<svg xmlns="http://www.w3.org/2000/svg" viewBox="0 0 1744 643"><defs><style>.a{fill:#f2f2f2;}.b{fill:none;stroke:#9c4310;stroke-miterlimit:10;stroke-width:10px;}.c{font-size:42px;}.c,.d{font-family:ArialMT, Arial;}.d{font-size:34px;}.e{letter-spacing:-0.04em;}.f{letter-spacing:-0.02em;}.g{fill:#333;}</style></defs><rect class="a" width="1744" height="643"/><rect class="b" x="57.78" y="91.67" width="243" height="203" rx="49.72"/><text class="c" transform="translate(108.09 199.41)">GFEBS</text><rect class="b" x="396.39" y="91.67" width="243" height="203" rx="49.72"/><text class="c" transform="translate(446.71 199.41)">GFEBS</text><rect class="b" x="735" y="91.67" width="243" height="458" rx="49.72"/><text class="c" transform="translate(797 197.57)">DDRS</text><rect class="b" x="1073.61" y="91.67" width="243" height="203" rx="49.72"/><text class="d" transform="translate(1162.05 176.85)">U.S.<tspan class="e" x="-33.38" y="40.8">T</tspan><tspan x="-13.87" y="40.8">reasury</tspan></text><rect class="b" x="1073.61" y="348.33" width="243" height="203" rx="49.72"/><text class="d" transform="translate(1132.12 399.51)">O<tspan class="f" x="26.45" y="0">f</tspan><tspan x="35.28" y="0">fice of</tspan><tspan x="-36.23" y="40.8">Management</tspan><tspan x="-6.95" y="81.6">&amp; Budget</tspan><tspan x="12.95" y="122.4">(OMB)</tspan></text><rect class="b" x="1412.22" y="91.67" width="274" height="458" rx="49.72"/><text class="d" transform="translate(1516.16 158.57)">U.S.<tspan x="-39.69" y="40.8">Congress</tspan><tspan x="-60.48" y="122.4">Government</tspan><tspan x="-71.83" y="163.2">Accountability</tspan><tspan x="-64.86" y="204">O</tspan><tspan class="f" x="-38.42" y="204">f</tspan><tspan x="-29.58" y="204">fice (GAO)</tspan><tspan x="-38.74" y="285.6">American</tspan><tspan x="-13.24" y="326.4">Public</tspan></text><path class="g" d="M374.82,199.33H321a4.41,4.41,0,0,1-4.42-4.41v-.17a4.42,4.42,0,0,1,4.42-4.42h53.82Z"/><path class="g" d="M355.42,214.61h0a2.66,2.66,0,0,1,.14-3.76l17.23-16-17.23-16a2.66,2.66,0,0,1-.14-3.76h0a2.65,2.65,0,0,1,3.75-.13l21.41,19.91-21.41,19.9A2.65,2.65,0,0,1,355.42,214.61Z"/><path class="g" d="M713.44,199.33H659.61a4.41,4.41,0,0,1-4.42-4.41v-.17a4.42,4.42,0,0,1,4.42-4.42h53.83Z"/><path class="g" d="M694,214.61h0a2.66,2.66,0,0,1,.14-3.76l17.23-16-17.23-16a2.66,2.66,0,0,1-.14-3.76h0a2.67,2.67,0,0,1,3.76-.13l21.4,19.91-21.4,19.9A2.67,2.67,0,0,1,694,214.61Z"/><path class="g" d="M1052.05,199.33H998.22a4.4,4.4,0,0,1-4.41-4.41v-.17a4.41,4.41,0,0,1,4.41-4.42h53.83Z"/><path class="g" d="M1032.64,214.61h0a2.66,2.66,0,0,1,.14-3.76l17.23-16-17.23-16a2.66,2.66,0,0,1-.14-3.76h0a2.67,2.67,0,0,1,3.76-.13l21.41,19.91-21.41,19.9A2.67,2.67,0,0,1,1032.64,214.61Z"/><path class="g" d="M1052.05,454.33H998.22a4.4,4.4,0,0,1-4.41-4.41v-.17a4.41,4.41,0,0,1,4.41-4.42h53.83Z"/><path class="g" d="M1032.64,469.61h0a2.66,2.66,0,0,1,.14-3.76l17.23-16-17.23-16a2.66,2.66,0,0,1-.14-3.76h0a2.67,2.67,0,0,1,3.76-.13l21.41,19.91-21.41,19.9A2.67,2.67,0,0,1,1032.64,469.61Z"/><path class="g" d="M1390.66,199.33h-53.83a4.4,4.4,0,0,1-4.41-4.41v-.17a4.41,4.41,0,0,1,4.41-4.42h53.83Z"/><path class="g" d="M1371.25,214.61h0a2.66,2.66,0,0,1,.14-3.76l17.23-16-17.23-16a2.66,2.66,0,0,1-.14-3.76h0a2.67,2.67,0,0,1,3.76-.13l21.41,19.91L1375,214.74A2.67,2.67,0,0,1,1371.25,214.61Z"/><path class="g" d="M1390.66,454.33h-53.83a4.4,4.4,0,0,1-4.41-4.41v-.17a4.41,4.41,0,0,1,4.41-4.42h53.83Z"/><path class="g" d="M1371.25,469.61h0a2.66,2.66,0,0,1,.14-3.76l17.23-16-17.23-16a2.66,2.66,0,0,1-.14-3.76h0a2.67,2.67,0,0,1,3.76-.13l21.41,19.91L1375,469.74A2.67,2.67,0,0,1,1371.25,469.61Z"/></svg>