<?xml version="1.0" encoding="utf-8"?>
<!-- Generator: Adobe Illustrator 25.2.3, SVG Export Plug-In . SVG Version: 6.00 Build 0)  -->
<svg version="1.1" id="Layer_1" xmlns="http://www.w3.org/2000/svg" xmlns:xlink="http://www.w3.org/1999/xlink" x="0px" y="0px"
	 viewBox="0 0 189 185.2" style="enable-background:new 0 0 189 185.2;" xml:space="preserve">
<style type="text/css">
	.st0{fill:#005A9C;}
	.st1{fill:#EFD763;}
	.st2{fill:#3197D4;}
	.st3{fill:none;}
	.st4{fill:#FFFFFF;}
</style>
<g id="g67483">
	<path id="path64543" class="st0" d="M94.5,173.3l4.2-0.1l4.1-0.3l4-0.5l4-0.7l3.9-0.9l3.8-1.1l3.7-1.3l3.7-1.4l3.6-1.6l3.5-1.8
		l3.4-1.9l3.3-2.1l3.2-2.2l3.1-2.4l2.9-2.5l2.8-2.7l2.7-2.8l2.5-2.9l2.4-3.1l2.3-3.2l2.1-3.3l1.9-3.4l1.8-3.5l1.6-3.6l1.4-3.7
		l1.3-3.8l1.1-3.8l0.9-3.9l0.7-4l0.5-4l0.3-4.1l0.1-4.2c0-44.6-36.2-80.7-80.7-80.7c-44.6,0-80.7,36.1-80.7,80.7v0
		C13.7,137.2,49.9,173.3,94.5,173.3z"/>
	<path class="st0" d="M94.5,173.3L94.5,173.3c-5.5,0-10.9-0.5-16.3-1.6c-5.2-1.1-10.3-2.6-15.2-4.7c-19.4-8.2-34.8-23.6-43-43
		c-2.1-4.9-3.6-10-4.7-15.2c-2.2-10.7-2.2-21.8,0-32.5c1.1-5.2,2.6-10.3,4.7-15.2c8.2-19.3,23.6-34.8,43-43c4.9-2.1,10-3.6,15.2-4.7
		c10.7-2.2,21.8-2.2,32.5,0c5.2,1.1,10.3,2.6,15.1,4.7c29.9,12.6,49.3,41.9,49.3,74.4l-0.1,4.2l-0.3,4.1l-0.5,4l-0.7,4l-0.9,3.9
		l-1.1,3.8l-1.3,3.8l-1.4,3.7l-1.6,3.6l-1.8,3.5l-1.9,3.4l-2.1,3.3l-2.3,3.2l-2.4,3l-2.5,2.9l-2.7,2.8l-2.8,2.7l-2.9,2.5l-3,2.4
		l-3.2,2.2l-3.3,2.1l-3.4,1.9l-3.5,1.8l-3.6,1.6l-3.7,1.4l-3.7,1.3l-3.8,1.1l-3.9,0.9l-3.9,0.7l-4,0.5l-4.1,0.3L94.5,173.3z
		 M94.5,11.8c-44.5,0-80.7,36.2-80.7,80.7s36.2,80.7,80.7,80.7l4.2-0.1l4.1-0.3l4-0.5l4-0.7l3.9-0.9l3.8-1.1l3.7-1.3l3.7-1.4
		l3.6-1.6l3.5-1.8l3.4-1.9l3.3-2.1l3.2-2.2l3.1-2.4l2.9-2.5l2.8-2.7l2.7-2.8l2.5-2.9l2.4-3.1l2.3-3.2l2.1-3.3l1.9-3.4l1.8-3.5
		l1.6-3.6l1.4-3.7l1.3-3.8l1.1-3.8l0.9-3.9l0.7-4l0.5-4l0.3-4.1l0.1-4.2C175.2,48.1,139,11.8,94.5,11.8z"/>
	<path id="path64547" class="st1" d="M52.2,108.4L55,73.9c-0.3-13.5-4.7-14.8-4.7-14.8l17.5-10.6c16.6,9.6,26.5-3,26.5-3
		c14.8,14.1,27.3,3.3,27.3,3.3l18.3,10.4c-5.9,6.4-5,11-5,11l1.6,37.6L94.8,77.3L52.2,108.4z"/>
	<path class="st1" d="M52.2,108.4L52.2,108.4L55,73.9c-0.1-7-1.4-10.6-2.5-12.5c-0.4-0.7-0.8-1.3-1.4-1.8c0.6,0.5,1,1.1,1.4,1.8
		c0.8,1.4,1.3,2.9,1.6,4.5c0.5,2.6,0.8,5.3,0.8,8L52.2,108.4l42.6-31.1l41.6,30.6l-1.5-37.6c-0.1-1,0-2.1,0.3-3.1
		c0.3-1.2,0.8-2.4,1.4-3.5c0.9-1.6,2-3.1,3.3-4.4l-18.3-10.4c-0.7,0.6-1.4,1.1-2.2,1.5c-1.8,1-3.8,1.8-5.9,2.2
		c-2.9,0.6-5.9,0.4-8.7-0.5c-3.6-1.1-7.1-3.2-10.5-6.5c-0.5,0.7-1.1,1.3-1.8,1.8c-1.6,1.4-3.3,2.5-5.2,3.3c-2.3,1-4.8,1.5-7.3,1.5
		c-0.3,0-0.7,0-1,0c-3.6-0.2-7.4-1.4-11.2-3.6L50.3,59.1c0.2,0.1,0.3,0.2,0.5,0.3c-0.1-0.1-0.3-0.2-0.5-0.2l0,0l17.5-10.6
		c4.6,2.7,8.7,3.6,12.2,3.6c2.5,0,5-0.5,7.3-1.5c1.9-0.8,3.7-1.9,5.2-3.3c0.7-0.6,1.3-1.2,1.8-1.8c5.9,5.7,11.5,7.2,15.8,7.2
		c1.1,0,2.2-0.1,3.3-0.3c2.1-0.4,4.1-1.1,5.9-2.2c0.8-0.4,1.5-0.9,2.2-1.5l18.3,10.4l0,0c-3,3.3-4.2,6.1-4.7,7.9
		c-0.3,1-0.4,2.1-0.3,3.1l1.5,37.6l0,0L94.8,77.3L52.2,108.4z"/>
	<path id="path64551" class="st1" d="M94.8,148.7L94.8,148.7L94.8,148.7l0.1-0.2l0.1-0.1l0.1-0.2l0.2-0.2l0.2-0.2l0.2-0.2l0.3-0.3
		l0.3-0.3l0.3-0.3l0.4-0.3l0.4-0.3l0.5-0.4l0.5-0.4l0.5-0.4l0.6-0.4l0.6-0.4l0.7-0.4l0.7-0.4l0.8-0.4l0.8-0.4l0.9-0.4l0.9-0.4
		l0.9-0.4l1-0.4l1-0.4l1.1-0.4l1.2-0.4l1.2-0.4l1.3-0.4l1.3-0.3c0,0,10-0.3,18.9-14.1L94.6,97.4L57,124.1
		c9.4,13.8,19.5,14.1,19.5,14.1C91.9,143.5,94.8,148.7,94.8,148.7z"/>
	<path class="st1" d="M94.8,148.7L94.8,148.7c-0.1-0.2-0.2-0.4-0.4-0.5C94.5,148.3,94.7,148.5,94.8,148.7L94.8,148.7L94.8,148.7
		l0.1-0.2l0.1-0.1l0.1-0.2l0.1-0.2l0.2-0.2l0.2-0.2l0.3-0.3l0.3-0.3l0.3-0.3l0.4-0.3l0.4-0.3l0.5-0.4l0.5-0.4l0.5-0.4l0.6-0.4
		l0.6-0.4l0.7-0.4l0.7-0.4l0.8-0.4l0.8-0.4l0.9-0.4l0.9-0.4l0.9-0.4l1-0.4l1-0.4l1.1-0.4l1.2-0.4l1.2-0.4l1.3-0.4l1.3-0.3
		c0.2,0,0.4,0,0.7-0.1c-0.2,0-0.4,0.1-0.7,0.1l-1.3,0.3l-1.3,0.4l-1.2,0.4l-1.2,0.4l-1.1,0.4l-1,0.4l-1,0.4l-0.9,0.4l-0.9,0.4
		l-0.9,0.4l-0.8,0.4l-0.8,0.4l-0.7,0.4l-0.7,0.4l-0.6,0.4l-0.6,0.4l-0.5,0.4l-0.5,0.4l-0.5,0.4l-0.4,0.3l-0.4,0.3l-0.3,0.3l-0.3,0.3
		l-0.3,0.3l-0.2,0.2l-0.2,0.2l-0.2,0.2l-0.1,0.2l-0.1,0.1L94.8,148.7L94.8,148.7L94.8,148.7z M93.8,147.5c-0.7-0.7-1.5-1.4-2.4-2
		c-2.4-1.8-7-4.5-14.9-7.2c0,0-0.2,0-0.7-0.1c0.2,0,0.5,0.1,0.7,0.1c3.2,1.1,6.3,2.4,9.4,3.9c1.9,1,3.8,2.1,5.6,3.3
		C92.3,146.1,93.1,146.7,93.8,147.5z M116.7,138c1.1-0.3,2.2-0.8,3.3-1.3c3.3-1.7,8.2-5.1,12.8-12.2L94.6,97.4L57,124.1
		c4.9,7.2,9.9,10.6,13.3,12.3c1.1,0.5,2.2,1,3.4,1.3c-1.2-0.3-2.3-0.8-3.4-1.3c-2.3-1.1-4.4-2.5-6.3-4.2c-2.7-2.4-5-5.1-7-8.1
		l37.6-26.7l38.2,27.1c-1.9,3-4.1,5.7-6.7,8c-1.8,1.7-3.9,3.1-6.1,4.2C119,137.3,117.9,137.7,116.7,138z"/>
	<path id="path64555" class="st2" d="M110.9,126.5l0,0.4l0,0.4l0,0.4l0,0.3l0.1,0.3l0.1,0.3l0.1,0.3l0.1,0.3l0.1,0.3l0.1,0.3
		l0.1,0.3l0.1,0.3l0.1,0.3l0.1,0.3l0.1,0.3l0.2,0.2l0.2,0.2l0.2,0.2l0.2,0.2l0.2,0.2l0.2,0.2l0.2,0.2l0.2,0.1l0.2,0.1l0.2,0.1
		l0.3,0.1l0.3,0.1l0.3,0.1l0.3,0.1l0.3,0l0.3,0h0.3c4.4,0,5.1-4.3,5.1-9.3c0-4.9-0.9-8.6-5.1-8.6c-4,0-5.1,2.9-5.3,7l0,0
		c0,0-1.5,0.2-1.8-0.9c-0.3,0.7-0.9,1.1-1.6,1l-41.8,0c-2.6,2.1,0,3.7,0,3.7h2v5.9h4.7v-4.7h-1.9l0,1.1h-1.1v-2.2h6.6v2.2h-1l0-1.1
		h-1.9v4.7l4.7,0.1v-5.8l29.9,0c1,0,1.4,1.2,1.4,1.2C109.4,127,110.1,126.5,110.9,126.5z"/>
	<path id="path64557" class="st2" d="M79.8,127.4h0.1h0.1h0.1l0.1,0l0.1,0l0.1,0l0.1,0l0.1,0l0.1-0.1l0.1-0.1l0.1-0.1l0.1-0.1
		l0.1-0.1l0.1-0.1l0.1-0.1l0.1-0.1l0.1-0.1l0.1-0.1l0.1-0.1l0.1-0.1l0.1-0.1l0.1-0.1l0.1-0.1l0.1-0.1l0-0.1l0-0.1l0-0.1l0-0.2l0-0.1
		v-0.1v-0.1v-0.1c0-1.5-1.3-2.7-2.9-2.7c-1.5,0-2.7,1.3-2.7,2.9C77,126.2,78.3,127.4,79.8,127.4L79.8,127.4z"/>
	<path id="path64559" class="st3" d="M79.8,127.4h0.1h0.1h0.1l0.1,0l0.1,0l0.1,0l0.1,0l0.1,0l0.1-0.1l0.1-0.1l0.1-0.1l0.1-0.1
		l0.1-0.1l0.1-0.1l0.1-0.1l0.1-0.1l0.1-0.1l0.1-0.1l0.1-0.1l0.1-0.1l0.1-0.1l0.1-0.1l0.1-0.1l0.1-0.1l0-0.1l0-0.1l0-0.1l0-0.2l0-0.1
		v-0.1v-0.1v-0.1c0-1.5-1.3-2.7-2.9-2.7c-1.5,0-2.7,1.3-2.7,2.9C77,126.2,78.3,127.4,79.8,127.4L79.8,127.4z"/>
	<polygon class="st4" points="65.8,123.4 65.8,123.4 76.6,123.4 	"/>
	<polygon class="st4" points="77.2,130.2 76.2,130.2 76.2,130.1 77,130.1 77,127.3 77.2,127.3 	"/>
	<polygon class="st4" points="71.2,130.2 70.1,130.2 70.1,130.1 71.1,130.1 71.1,129.5 71.2,129.5 	"/>
	<polygon class="st4" points="68.1,131.9 68.1,126.7 68.1,126.7 	"/>
	<path id="path64569" class="st4" d="M78,123.9L78,123.9v-0.1v-0.1v-0.1v0l0,0l0-0.1l0-0.1l0-0.1l0.1-0.1l0-0.1l0.1-0.1l0.1-0.1
		l0.1-0.1l0.1-0.1l0.1-0.1l0.1,0l0.1-0.1l0.1,0l0.1,0l0.1,0l0.1,0l0.1,0l0.1,0l0.1,0l0,0h0h0h0h0l0,0h0h0
		C77.6,122.1,78,123.9,78,123.9z"/>
	<polygon class="st4" points="83,123.4 83,123.4 106.3,123.4 	"/>
	<path id="path64573" class="st4" d="M108.4,123h0.1l0,0h0l0,0l0,0h0l0,0h0l0,0h0l0,0h0l0,0l0,0l0,0l0,0v0l0,0v0l0,0v0v0l0,0l0,0v0
		l0,0l0,0l0,0l0,0l0,0l0,0l0,0l0,0l0,0C108.7,122.8,108.5,122.9,108.4,123z"/>
	<path class="st4" d="M119.5,130.3c0.2-0.5,0.3-1,0.4-1.5c0.2-1,0-2-0.4-2.9l0,0c0.4,0.9,0.5,1.9,0.4,2.9
		C119.8,129.3,119.7,129.8,119.5,130.3z"/>
	<path class="st4" d="M119.3,123.4c0,0,0.1-0.2,0.2-0.5C119.4,123.2,119.3,123.4,119.3,123.4z M119.9,121.1c0-0.5-0.1-1.1-0.3-1.6
		l0,0C119.8,120,119.9,120.5,119.9,121.1L119.9,121.1z"/>
	<path class="st4" d="M114.3,132.5l-0.2-0.1L114.3,132.5z M112.9,130.9c-0.4-0.6-0.6-1.2-0.8-1.8c-0.5-2.1-0.7-4.4-0.5-6.6l0-0.5
		l0-0.2l0-0.2l0-0.2l0-0.2l0-0.2l0-0.2l0-0.2l0.1-0.2l0-0.2l0.1-0.2l0.1-0.2l0.1-0.2l0.1-0.2l0.3-0.7l0.2-0.3l0.1-0.1l0.1-0.2
		l0.1-0.1l0.1-0.1l0.1-0.1l0.1-0.1l0.1-0.1l0.1-0.1l0.4-0.3l0,0l-0.4,0.3l-0.1,0.1l-0.1,0.1l-0.1,0.1l-0.1,0.1l-0.1,0.1l-0.1,0.1
		l-0.1,0.2l-0.1,0.1l-0.2,0.3l-0.3,0.7l-0.1,0.2l-0.1,0.2l-0.1,0.2l-0.1,0.2l0,0.2l-0.1,0.2l0,0.2l0,0.2l0,0.2l0,0.2l0,0.2l0,0.2
		l0,0.2l0,0.5c-0.2,2.2,0,4.4,0.5,6.6C112.2,129.8,112.5,130.4,112.9,130.9L112.9,130.9z"/>
	<path id="path64581" class="st2" d="M97,70.8l-0.8-6.5h19.1c0.8,3.2,4.2,4,4.2,4l2.5,0c4.3-2.2,4.5-6,4.5-6l-2.2-0.5
		c-3.4,5.3-6.9,0.1-6.9,0.1l-18.8-4.1l-3.3,2.6l-1.2-8.5l-0.1-0.2l-1.3,8.7l-3-2.7l-18.8,4c0,0-3.5,5.1-6.9-0.2L61.8,62
		c0,0,0.3,3.8,4.5,6l2.5,0.1c0,0,3.3-0.5,4.2-3.7l19.2-0.1h0l-0.3,6.6c0.7,2.3,2.6,2.1,2.6,2.1C96.7,73.2,97,70.8,97,70.8z"/>
	<polygon class="st4" points="68,65.2 68,65 68.1,65 68.2,65 68.3,65 68.5,64.9 68.7,64.9 68.8,64.8 69,64.8 69.2,64.7 69.4,64.6 
		70,64.2 70.3,63.9 70.6,63.7 71,63.2 71.3,62.6 71.3,62.6 71.4,62.5 89.5,58.4 90.1,59.1 90,59.2 89.4,58.6 71.4,62.7 71.4,62.8 
		71.1,63.3 70.7,63.8 70.5,64 70.1,64.4 69.8,64.6 69.5,64.8 69.3,64.9 69.1,64.9 68.9,65 68.7,65.1 68.6,65.1 68.4,65.2 68.3,65.2 
		68.1,65.2 	"/>
	<polygon id="polygon64585" class="st4" points="62.5,62.5 63.1,64 63,62.3 	"/>
	<path class="st4" d="M63.2,64.4l-0.7-1.9l0.6-0.2L63.2,64.4z M62.6,62.5l0.4,1.2L63,62.4L62.6,62.5z"/>
	<path id="path64589" class="st4" d="M120.5,64.7l0.1,0h0.1h0.1h0.1h0.1h0.2h0.1h0.1h0.1h0.1l0.1,0h0.1l0.1,0l0.2-0.1l0.2-0.1
		l0.2-0.1l0.2-0.1l0.2-0.1l0.2-0.1l0.2-0.1l0.1-0.1l0.2-0.1l0.1-0.1l0.1-0.1l0.1-0.1l0.1-0.1l0.1-0.1l0.1-0.1l0.1-0.1l0.1-0.1
		l0.1-0.1l0.1-0.1l0.1-0.1v0v0v0v0l0,0v0l0,0l0,0l0,0l0,0l1.3,0.3C124.1,66.2,120.5,64.7,120.5,64.7z"/>
	<polygon class="st4" points="97,60.5 96.8,60.3 98.6,58.7 100.5,59.1 100.5,59.3 98.6,59 	"/>
	<path class="st4" d="M94.2,72c-0.2,0-0.3-0.1-0.5-0.2C93.9,71.9,94,72,94.2,72z M93.3,71.5c-0.3-0.3-0.4-0.7-0.4-1.1l0.2-6l0,0
		l-0.1,6C92.9,70.9,93,71.2,93.3,71.5L93.3,71.5z"/>
	<path id="path64595" class="st2" d="M122,70.1l8.1,14.6c0,0-7.6,13.1-17.9,0.5l7.8-15L122,70.1z"/>
	<path id="path64597" class="st4" d="M115.7,87.7l-0.1-0.1l-0.1-0.1l-0.1-0.1l-0.1-0.1l-0.1-0.1l-0.1-0.1l-0.1-0.1l-0.1-0.1
		l-0.1-0.1l-0.1-0.1l-0.1-0.1l-0.1-0.1l-0.1-0.1l-0.1-0.1l-0.1-0.1l0-0.1l-0.1-0.1l0-0.1l0-0.1l0-0.1l0-0.1l0-0.1l0-0.1l0,0v-0.1v0
		v0v0l0,0v0l0,0l0,0l11.7,0.1c-0.4,2.3-2.6,3.4-2.6,3.4c1.5-1.9,1.6-2.8,1.6-2.8h-8.9C115.4,86.6,115.7,87.7,115.7,87.7z"/>
	<path id="path64599" class="st2" d="M66.5,69.7l-8.2,14.5c0,0,7.5,13.1,17.9,0.7l-7.7-15.1L66.5,69.7z"/>
	<polygon id="polygon64601" class="st1" points="67.7,69.5 67.6,84.3 75.2,84.3 	"/>
	<path class="st2" d="M67.6,84.4l0-15.2l7.7,15.2L67.6,84.4z M67.7,69.8l0,14.5l7.4-0.1L67.7,69.8z"/>
	<polygon id="polygon64605" class="st1" points="66.9,70.1 66.9,84.3 58.9,84.3 	"/>
	<path class="st2" d="M67,84.3h-8.2L67,69.8L67,84.3z M59,84.2h7.8V70.4L59,84.2z"/>
	<path id="path64609" class="st4" d="M64.3,87L64.3,87l-0.1-0.1l-0.1,0l0,0L64,86.7l-0.1-0.1l-0.1-0.1l-0.1-0.1l-0.1-0.1l-0.1-0.1
		l-0.1-0.1l-0.1-0.1l-0.1-0.1l0-0.1l0-0.1l0-0.1l0-0.1l0-0.1l0-0.1l0-0.1l0-0.1v-0.1l0-0.1v-0.1v0v-0.1v0v0v-0.1l0,0v0l0,0l11.3,0
		c-0.4,1.8-2.5,3.2-2.5,3.2c1.4-1.5,1.2-2.7,1.2-2.7h-8.8C63.8,86,64.3,87,64.3,87z"/>
	<path id="path64611" class="st1" d="M117.5,124.5L117.5,124.5l0.2,0.1l0.1,0.1l0.1,0.1l0.1,0.1l0.1,0.1l0.1,0.1l0.1,0.1l0.1,0.1
		l0.1,0.1l0.1,0.1l0.1,0.1l0.1,0.1l0.1,0.1l0.1,0.1l0,0.1l0,0.1l0,0.1l0,0.1l0,0.1l0,0.1l0,0.1l0,0.1l0,0.1l0,0.1l0,0.1v0.1l0,0.1
		v0.1v0.1v0.1v0.1c0.1,2.2-1,4-2.6,4.2c-1.6,0.2-2.9-1.4-3.1-3.6c-0.1-1.3,0.4-2.7,1.3-3.6l0.2-0.1c-1-0.8-1.5-2-1.5-3.2
		c-0.1-2.2,1.1-4,2.7-4.2c1.6-0.1,2.9,1.5,3,3.7C119.1,122.1,118.6,123.4,117.5,124.5L117.5,124.5z"/>
	<polygon id="polygon64613" class="st1" points="120.7,70.4 120.6,84.7 113.1,84.7 	"/>
	<path class="st2" d="M120.7,84.7H113l7.8-14.6L120.7,84.7z M113.2,84.6h7.3l0-13.9L113.2,84.6z"/>
	<polygon id="polygon64617" class="st1" points="121.4,70.3 121.4,84.6 129.3,84.6 	"/>
	<path class="st2" d="M129.4,84.7h-8.1l-0.1-14.6L129.4,84.7z M121.5,84.6h7.7l-7.8-13.9L121.5,84.6z"/>
	<path id="path64621" class="st2" d="M67.4,70.6h0.1h0.1h0.1h0.1h0.1l0.1,0H68l0.1,0l0.1,0l0.1,0l0.1,0l0.1,0l0.1,0l0-0.1l0.1,0l0,0
		l0-0.1l0-0.1l0-0.1l0-0.1l0-0.1l0-0.1l0-0.1l0-0.1v-0.1l0-0.1v-0.1v-0.1v-0.1v-0.1v-0.1c0-0.8-0.7-1.5-1.5-1.4
		c-0.8,0-1.5,0.7-1.4,1.5C65.9,70,66.6,70.7,67.4,70.6L67.4,70.6z"/>
	<path id="path64623" class="st1" d="M67.5,70.2L67.5,70.2h0.1h0h0h0.1h0h0l0,0h0l0,0l0,0l0,0l0,0l0,0l0,0l0,0l0,0l0,0l0,0l0,0v0
		l0,0v-0.1l0,0v0v-0.1v0v-0.1v0v-0.1V69c0-0.6-0.5-1-1.1-0.9c-0.6,0-1,0.5-0.9,1.1C66.4,69.7,66.8,70.1,67.5,70.2L67.5,70.2z"/>
	<path id="path64625" class="st2" d="M120.9,70.9L120.9,70.9h0.2h0.1h0.1h0.1h0.1l0.1,0h0.1l0.1,0l0.1,0l0.1,0l0.1,0l0.1,0l0.1,0
		l0-0.1l0.1,0l0,0l0-0.1l0-0.1l0-0.1l0-0.1l0-0.1l0-0.1l0-0.1l0-0.1v-0.1l0-0.1v-0.1v-0.1v-0.1v-0.1v-0.1c0-0.8-0.7-1.5-1.5-1.4
		c-0.8,0-1.5,0.7-1.4,1.5C119.4,70.3,120.1,71,120.9,70.9L120.9,70.9z"/>
	<path id="path64627" class="st1" d="M120.9,70.5h0.1h0.1h0h0h0h0h0l0,0l0,0h0l0,0l0,0l0,0l0,0l0,0l0,0l0,0l0,0l0,0l0,0v0l0,0v0v0
		v-0.1v0v0v-0.1v-0.1v-0.1c0-0.5-0.4-1-0.9-1.1c-0.5,0-1,0.4-1.1,0.9c0,0,0,0.1,0,0.1C119.9,70,120.3,70.5,120.9,70.5
		C120.9,70.5,120.9,70.5,120.9,70.5z"/>
	<path class="st4" d="M94.6,152.9L94.6,152.9c-33.1,0-60-26.8-60-59.9c0-33.1,26.8-60,59.9-60c33.1,0,59.9,26.8,60,59.9l-0.1,3.1
		l-0.2,3.1l-0.4,3l-0.5,3l-0.7,2.9l-0.8,2.9l-0.9,2.8l-1.1,2.7l-1.2,2.7l-1.3,2.6l-1.4,2.5l-1.6,2.4l-1.7,2.3l-1.8,2.3l-1.9,2.2
		l-2,2.1l-2.1,2l-2.2,1.8l-2.3,1.8l-2.4,1.7l-2.4,1.6l-2.5,1.5l-2.6,1.3l-2.7,1.2l-2.7,1.1l-2.8,0.9l-2.9,0.8l-2.9,0.7l-3,0.5
		l-3,0.4l-3.1,0.2L94.6,152.9z M94.6,34.1c-32.4,0-58.8,26.4-58.8,58.8c0,32.5,26.3,58.8,58.8,58.8l3-0.1l3-0.2l2.9-0.4l2.9-0.5
		l2.8-0.7l2.8-0.8l2.7-0.9l2.7-1l2.6-1.2l2.5-1.3l2.5-1.4l2.4-1.5l2.3-1.6l2.2-1.7l2.1-1.8l2.1-2l1.9-2l1.8-2.1l1.7-2.2l1.6-2.3
		l1.5-2.4l1.4-2.5l1.3-2.5l1.2-2.6l1.1-2.7l0.9-2.7l0.8-2.8l0.7-2.8l0.5-2.9l0.4-2.9l0.2-3l0.1-3C153.4,60.5,127,34.1,94.6,34.1
		L94.6,34.1z"/>
	<path class="st4" d="M94.6,171.7L94.6,171.7c-43.5,0-78.8-35.3-78.8-78.8c0-43.5,35.3-78.8,78.8-78.8c43.5,0,78.8,35.3,78.8,78.8
		c0,0,0,0,0,0l-0.1,4l-0.3,4l-0.5,3.9l-0.7,3.9l-0.9,3.8l-1.1,3.8l-1.2,3.7l-1.4,3.5l-1.6,3.5l-1.7,3.4l-1.9,3.3l-2,3.2l-2.2,3.1
		l-2.3,3l-2.5,2.9l-2.6,2.8l-2.7,2.6l-2.9,2.5l-3,2.3l-3.1,2.2l-3.2,2l-3.3,1.9l-3.4,1.7l-3.5,1.6l-3.6,1.4l-3.6,1.2l-3.7,1
		l-3.8,0.9l-3.9,0.7l-3.9,0.5l-4,0.3L94.6,171.7z M94.6,15.2c-42.8,0-77.7,34.8-77.7,77.7s34.8,77.7,77.7,77.7l4-0.1l3.9-0.3
		l3.9-0.5l3.8-0.7l3.8-0.9l3.7-1l3.6-1.2l3.5-1.4l3.4-1.6l3.3-1.7l3.3-1.9l3.1-2l3-2.2l2.9-2.3l2.8-2.5l2.7-2.6l2.6-2.7l2.4-2.8
		l2.3-2.9l2.2-3l2-3.1l1.9-3.3l1.7-3.3l1.6-3.4l1.4-3.5l1.2-3.6l1-3.7l0.9-3.7l0.7-3.8l0.5-3.9l0.3-4l0.1-4
		C172.3,50.1,137.4,15.2,94.6,15.2L94.6,15.2z"/>
	<path id="path64633" class="st2" d="M56.7,124.1l-0.5-0.8l-0.5-0.8l-0.5-0.8l-0.5-0.9l-0.5-0.9l-0.4-0.9l-0.4-0.9l-0.4-1l-0.3-1
		l-0.3-1l-0.2-1l-0.2-1l-0.2-1l-0.1-0.5l-0.1-0.5l0-0.5l0-0.5v-0.5v-0.5L94.9,78l42,31c0,5.2-1,11.7-3.8,15.5L94.6,96.7L56.7,124.1z
		"/>
	<path class="st2" d="M133.1,124.5L94.6,96.7l-37.8,27.3l0,0l-0.5-0.8l-0.5-0.8l-0.5-0.8l-0.5-0.9l-0.5-0.9l-0.4-0.9l-0.4-0.9
		l-0.4-1l-0.3-1l-0.3-1l-0.2-1l-0.2-1l-0.2-1l-0.1-0.5l-0.1-0.5l0-0.5l0-0.5l0-1L94.8,78l42,31c0,2.8-0.3,5.5-0.8,8.3
		c0.6-2.7,0.8-5.5,0.8-8.3l-42-31l-43.1,31.2l0,1l0,0.5l0,0.5l0.1,0.5l0.1,0.5l0.2,1l0.2,1l0.2,1l0.3,1l0.3,1l0.4,1l0.4,0.9l0.4,0.9
		l0.5,0.9l0.5,0.9l0.5,0.8l0.5,0.8l0.5,0.7l37.8-27.3L133.1,124.5c0.1-0.1,0.2-0.3,0.3-0.4C133.3,124.2,133.2,124.4,133.1,124.5z"/>
	<path id="path64635" class="st3" d="M56.7,124.1l-0.5-0.8l-0.5-0.8l-0.5-0.8l-0.5-0.9l-0.5-0.9l-0.4-0.9l-0.4-0.9l-0.4-1l-0.3-1
		l-0.3-1l-0.2-1l-0.2-1l-0.2-1l-0.1-0.5l-0.1-0.5l0-0.5l0-0.5v-0.5v-0.5L94.9,78l42,31c0,5.2-1,11.7-3.8,15.5L94.6,96.7L56.7,124.1z
		"/>
	<path id="path64637" class="st4" d="M36.9,116.7l2,3.9l-0.3,0.1c-0.7-1.2-1-1.1-1.9-0.5l-6.7,3.4l0.3,0.7c0.7,1.5,1.2,1.7,2.8,1.3
		l0.2,0.3l-2.3,1.1l-3.9-7.6l2.3-1.2l0.2,0.3c-1.3,1-1.4,1.6-0.6,3l0.3,0.7l6.9-3.5c1-0.5,1.2-0.8,0.6-1.9L36.9,116.7z"/>
	<path class="st4" d="M30.9,127l-3.9-7.6l2.3-1.2l0.2,0.3c-0.7,0.6-1,0.9-1.1,1.4c-0.1,0.4,0.1,1,0.5,1.7l0.3,0.7l6.9-3.5
		c0.5-0.2,0.8-0.4,0.9-0.7c0.1-0.3,0-0.6-0.3-1.2l0.3-0.1l0,0l2,3.9l-0.3,0.1c-0.3-0.6-0.6-0.8-0.8-0.9h-0.1c-0.4,0.1-0.7,0.2-1,0.4
		l-6.7,3.4l0.3,0.7c0.4,0.7,0.7,1.2,1.1,1.4c0.4,0.2,0.9,0.2,1.7-0.1l0.2,0.3L30.9,127z M29.3,118.2l-2.3,1.2l3.9,7.6l2.3-1.1
		l-0.2-0.3c-0.9,0.2-1.4,0.3-1.7,0.1c-0.4-0.2-0.7-0.7-1.1-1.4l-0.3-0.7l6.7-3.4c0.5-0.3,0.8-0.5,1.1-0.4c0.3,0.1,0.5,0.3,0.8,0.9
		l0.3-0.1l-2-3.9l-0.3,0.1c0.3,0.6,0.4,1,0.3,1.2s-0.4,0.5-0.9,0.7l-6.9,3.5l-0.3-0.7c-0.4-0.7-0.6-1.2-0.5-1.7
		c0.1-0.5,0.4-0.8,1.1-1.4L29.3,118.2z"/>
	<path id="path64641" class="st4" d="M36,114.7L36,114.7l0-0.1v-0.1v0l0,0v0l0,0v0v0l0,0v0v0l0,0v0l0-0.1l0-0.1l0,0l0,0l0,0l0,0l0,0
		l0,0h-0.1h0h-0.1h-0.1H35h-0.1h-0.1h-0.1h-0.1h-0.1h-0.1l-0.1,0l-0.1,0h-0.1l-0.1,0l-0.1,0l-6.2,2c-1.1,0.3-1.1,0.6-0.9,1.7
		l-0.3,0.1l-1.3-4l0.3-0.1c0.4,1.1,0.7,1.2,1.7,0.8l2.8-0.9l-1.5-4.4l-2.8,0.9c-1,0.3-1.1,0.6-0.8,1.7l-0.3,0.1l-1.3-4l0.3-0.1
		c0.5,1.1,0.7,1.2,1.7,0.8l6.4-2.1c0.9-0.3,1.2-0.5,0.9-1.7l0.3-0.1l1.3,4l-0.3,0.1c-0.5-1.2-0.8-1.1-1.8-0.8l-2.8,0.9l1.5,4.4l3-1
		c0.9-0.4,1.1-0.6,0.8-1.8l0.3-0.1l1.3,4L36,114.7z"/>
	<path class="st4" d="M26.7,117.7l-1.3-4l0.3-0.1c0.1,0.2,0.2,0.4,0.3,0.7c-0.1-0.2-0.2-0.4-0.3-0.6l-0.3,0.1L26.7,117.7l0.3-0.1
		c-0.1-0.4-0.2-0.7-0.1-1.1c0.1-0.3,0.5-0.4,0.9-0.6l6.2-2l0.1,0l0.1,0h0.1l0.2-0.1l0.3-0.1h0.1H35h0.1l0.1,0h0h0.1l0.1,0.1l0.1,0.1
		l0.1,0.1v0l0,0v0v0l0,0l0,0.1l0,0v0l0,0v0v0.1l0,0v0.1l0.3-0.1l-1.2-4l-0.3,0.1c0.2,0.4,0.2,0.8,0,1.2c-0.1,0.2-0.4,0.4-0.8,0.6
		l-3,1l-1.5-4.4l2.8-0.9c1.1-0.4,1.4-0.4,1.8,0.8l0.3-0.1l-1.3-4l-0.3,0.1c0.2,0.6,0.2,0.9,0,1.1c-0.2,0.3-0.6,0.5-0.9,0.5l-6.4,2.1
		c-1,0.3-1.3,0.2-1.7-0.8l-0.3,0.1l1.3,4l0.3-0.1c-0.2-1.1-0.2-1.3,0.8-1.7l2.8-0.9l1.5,4.4l-2.8,0.9c-0.2,0.1-0.3,0.1-0.4,0.1
		c0.1,0,0.3-0.1,0.4-0.1l2.8-0.9l-1.5-4.4l-2.8,0.9c-1,0.4-1.1,0.6-0.8,1.7l-0.3,0.1l-1.3-4l0.3-0.1c0.5,1.1,0.7,1.2,1.7,0.8
		l6.4-2.1c0.4-0.1,0.7-0.3,0.9-0.5c0.1-0.2,0.1-0.6,0-1.1l0.3-0.1l1.3,4l-0.3,0.1c-0.5-1.2-0.8-1.1-1.8-0.8l-2.8,0.9l1.5,4.4l3-1
		c0.5-0.2,0.7-0.3,0.8-0.6c0.1-0.4,0.1-0.8,0-1.2l0.3-0.1l1.3,4l-0.3,0.1l0,0v-0.1l0,0v-0.1v0l0,0v0l0,0l0-0.1l0,0v0v0l0,0v0
		l-0.1-0.1l-0.1-0.1l-0.1-0.1h-0.1h0l-0.1,0H35h-0.1h-0.1l-0.3,0.1l-0.2,0.1h-0.1l-0.1,0l-0.1,0l-6.2,2c-0.5,0.2-0.8,0.3-0.9,0.6
		c-0.1,0.4-0.1,0.8,0.1,1.1L26.7,117.7z"/>
	<path id="path64645" class="st4" d="M31.9,96.1l1.3,8.1l-0.3,0c-0.2-0.9-0.4-1.3-1.5-1l-6.6,1.1c-1.2,0.1-1.2,0.5-1.1,1.4l-0.3,0
		L22,97.8l2.1-0.4l0.1,0.4c-1.3,0.4-1.5,0.9-1.2,2.5l0.3,2c0,0.3,0.1,0.5,0.6,0.4l3.3-0.5l-0.4-2.3c-0.2-1.3-0.6-1.4-1.7-1.4
		l-0.1-0.3l3.5-0.6l0.1,0.3c-1.2,0.4-1.3,0.6-1.2,1.8l0.3,2.3l3.7-0.6c0.6-0.1,0.6-0.1,0.3-2.3c-0.3-1.9-0.9-2.5-2.5-3l-0.1-0.4
		L31.9,96.1z"/>
	<path class="st4" d="M23.2,105.7L22,97.8l2.1-0.4l0.1,0.4l-0.2,0.1l0.2-0.1l-0.1-0.4L22,97.8L23.2,105.7l0.3,0
		c-0.1-0.9-0.1-1.3,1.1-1.4l6.6-1.1c0.3-0.1,0.7-0.1,1.1,0c0.2,0.1,0.3,0.5,0.5,1l0.3,0l-1.3-8.1l-2.6-0.3l0.1,0.4
		c0.2,0.1,0.5,0.1,0.7,0.2c-0.2-0.1-0.5-0.2-0.7-0.2l-0.1-0.4l2.6,0.3l1.3,8.1l-0.3,0c-0.1-0.5-0.2-0.8-0.5-1
		c-0.3-0.1-0.7-0.2-1.1,0l-6.6,1.1c-1.2,0.1-1.2,0.5-1.1,1.4L23.2,105.7z M23.7,102.8c-0.1,0-0.2,0-0.2-0.1
		c-0.1-0.1-0.1-0.2-0.1-0.4l-0.3-2c-0.1-0.5-0.1-0.9-0.1-1.4c0,0.5,0,0.9,0.1,1.4l0.3,2c0,0.2,0,0.3,0.1,0.4c0.1,0.1,0.3,0.1,0.5,0
		l3.3-0.5l-0.4-2.3c-0.1-0.7-0.3-1-0.5-1.2c-0.4-0.2-0.8-0.3-1.2-0.2l-0.1-0.3l3.5-0.6l0.1,0.3c-1.2,0.4-1.3,0.6-1.2,1.8l0.3,2.3
		l3.7-0.6c0.2,0,0.4-0.1,0.4-0.2c0.2-0.2,0.1-0.7-0.2-2.2c0-0.3-0.1-0.6-0.2-0.9c0.1,0.3,0.1,0.6,0.2,0.9c0.2,1.5,0.3,2,0.2,2.2
		c-0.1,0.1-0.2,0.1-0.4,0.2l-3.7,0.6l-0.3-2.3c-0.2-1.2,0-1.5,1.2-1.8l-0.1-0.3l-3.5,0.6l0.1,0.3l0,0c0.4-0.1,0.8,0,1.2,0.2
		c0.3,0.2,0.4,0.5,0.5,1.2l0.4,2.3l-3.3,0.5C23.8,102.8,23.7,102.8,23.7,102.8z"/>
	<path id="path64649" class="st4" d="M31.9,92.7v-0.3v-0.1v-0.1v-0.1v-0.1V92V92l0-0.1v0v-0.1l0,0l0,0l0,0l0,0l0,0l0,0l0,0h0l-0.1,0
		h0h-0.1h-0.1h-0.1h-0.1h-0.1H31h-0.1h-0.2L23.9,91c-1.1-0.1-1.3,0-1.4,1.2h-0.3l0.2-4.1c0.2-3.6,2-5.9,5.3-5.8
		c2,0.1,4.9,1.4,4.7,6.1l-0.2,4.3L31.9,92.7z"/>
	<path class="st4" d="M32.2,92.7h-0.3v-0.3v-0.1v-0.1v-0.1v-0.1V92V92l0-0.1v0v-0.1l-0.1-0.1l-0.1-0.1l0,0h0l-0.1,0h0l-0.1,0h-0.1
		h-0.1h-0.1H31h-0.1h-0.2L23.9,91C23.4,91,23,91,22.8,91.2c-0.2,0.2-0.3,0.5-0.3,1.1h-0.3l0.2-4.1c0-0.8,0.2-1.7,0.5-2.5
		c0.2-0.7,0.6-1.3,1-1.8c0.4-0.5,1-0.9,1.6-1.1c0.7-0.3,1.5-0.4,2.2-0.3H28h-0.3c-0.1,0-0.2,0-0.4,0c-3,0-4.8,2.1-5,5.8l-0.2,4.1
		h0.3c0.1-0.6,0.1-0.9,0.3-1.1c0.2-0.2,0.6-0.2,1.1-0.1l6.7,0.3h0.2h0.1h0.2h0.1h0.1h0.1l0.1,0h0l0.1,0h0l0,0l0.1,0.1l0.1,0.1v0.1v0
		l0,0.1V92V92v0.1v0.1v0.1v0.1v0.3h0.3l0.2-4.3c0.1-1.2-0.1-2.4-0.6-3.5c0.1,0.2,0.2,0.4,0.2,0.6c0.3,0.9,0.4,1.9,0.3,2.9L32.2,92.7
		z"/>
	<path id="path64653" class="st4" d="M34.6,74.3l-1.7,8l-0.4,0.1c0.1-1,0.1-1.3-1.1-1.6l-6.6-1.4c-1.2-0.2-1.3,0.1-1.6,1L23,80.4
		l1.7-7.9l2.1,0.4l-0.1,0.4c-1.4,0-1.7,0.3-2,1.9l-0.4,2c-0.1,0.3-0.1,0.5,0.4,0.6l3.3,0.7l0.5-2.3c0.3-1.3,0-1.5-1.1-1.9l0.1-0.3
		l3.4,0.7L30.7,75c-1.2-0.1-1.5,0.1-1.7,1.3l-0.5,2.3l3.7,0.7c0.6,0.1,0.6,0.1,1.1-2.1c0.4-1.8,0.1-2.7-1.3-3.6l0.1-0.4L34.6,74.3z"
		/>
	<path class="st4" d="M32.5,82.4c0-0.1,0-0.2,0-0.4C32.5,82.1,32.5,82.3,32.5,82.4l0.4,0l1.7-8l-2.5-1.1L32,73.7
		c0.3,0.2,0.5,0.4,0.8,0.7c-0.2-0.3-0.5-0.5-0.8-0.7l0.1-0.4l2.5,1.1l0,0l-1.7,8L32.5,82.4z M31.9,80.9c-0.2,0-0.3-0.1-0.5-0.1
		l-6.6-1.4c-1.2-0.2-1.4,0.1-1.6,1l-0.3-0.1l1.7-7.9l2.1,0.4l-0.1,0.4c-0.1,0-0.2,0-0.3,0c0.1,0,0.2,0,0.3,0l0.1-0.4l-2.1-0.4
		L23,80.4l0.3,0.1c0.3-0.9,0.4-1.3,1.6-1l6.6,1.4C31.6,80.8,31.7,80.9,31.9,80.9z M32.5,79.4c-0.1,0-0.2,0-0.3,0l-3.7-0.7l0.5-2.3
		c0-0.2,0.1-0.4,0.1-0.5c0,0.1-0.1,0.3-0.1,0.5l-0.5,2.3l3.7,0.7c0.1,0.1,0.3,0.1,0.5,0C32.6,79.4,32.5,79.4,32.5,79.4z M32.9,78.9
		c0.1-0.3,0.2-0.8,0.4-1.6c0.1-0.3,0.1-0.6,0.1-0.9c0,0.3-0.1,0.6-0.1,0.9C33.1,78.1,33,78.6,32.9,78.9z M27.9,78.5l-3.3-0.7
		c-0.5-0.1-0.5-0.3-0.4-0.6l0,0l0.4-2c0.1-0.5,0.3-1,0.6-1.5c-0.3,0.5-0.5,1-0.6,1.5l-0.4,2c-0.1,0.3-0.1,0.5,0.4,0.6L27.9,78.5
		l0.5-2.3c0.3-1.3,0-1.5-1.1-1.9l0.1-0.3l3.4,0.7L30.7,75c-0.3,0-0.6,0-1,0c0.3-0.1,0.6-0.1,1,0l0.1-0.3L27.4,74l-0.1,0.3
		c1,0.4,1.3,0.6,1.1,1.9L27.9,78.5z"/>
	<path id="path64657" class="st4" d="M25.9,69.8l1.3-3.8c0.7-2,2.1-3.5,3.9-2.8c0.7,0.3,1.3,0.8,1.6,1.6c0.4,0.8,0.3,1.8-0.3,3.3
		c-0.1,0.3-0.3,0.6-0.4,0.9l2.6,0.9c1.1,0.4,1.4,0.2,1.8-0.9h0.4l-1.4,4h-0.4c0.3-1.2,0-1.3-0.9-1.6L28,69.2
		c-1.1-0.4-1.3-0.3-1.8,0.7L25.9,69.8z"/>
	<path class="st4" d="M35.1,73c0.2-0.6,0.2-0.9,0-1.2C35.2,72.1,35.2,72.4,35.1,73h0.4l1.4-4h-0.4c-0.4,1.1-0.7,1.3-1.8,0.9L32.1,69
		c0.2-0.3,0.3-0.6,0.4-0.9c0.1-0.3,0.2-0.6,0.3-0.8c-0.1,0.3-0.2,0.5-0.3,0.8c-0.1,0.3-0.3,0.6-0.4,0.9l2.6,0.9
		c1.1,0.4,1.4,0.2,1.8-0.9h0.4l-1.4,4L35.1,73z M34.4,71.5l-0.3-0.1l-6.2-2.2c-0.3-0.2-0.7-0.3-1.1-0.2c-0.3,0.1-0.5,0.4-0.7,0.9
		l-0.3-0.1l0,0l1.3-3.8c0.3-0.9,0.8-1.7,1.5-2.4c0.3-0.3,0.7-0.5,1.1-0.5c0.4-0.1,0.9,0,1.3,0.1c0.7,0.3,1.3,0.8,1.6,1.5v0
		c0.1,0.1,0.1,0.3,0.1,0.4c0-0.1-0.1-0.3-0.1-0.4v0c-0.3-0.7-0.9-1.3-1.6-1.5c-0.8-0.3-1.7-0.1-2.4,0.4c-0.7,0.6-1.2,1.5-1.5,2.4
		l-1.3,3.8l0.3,0.1c0.2-0.5,0.4-0.8,0.7-0.9c0.4-0.1,0.8,0,1.1,0.2l6.2,2.2L34.4,71.5z"/>
	<path id="path64661" class="st4" d="M42.5,58.2l-1.8,3.4l-0.2-0.1c0.3-0.5,0.4-0.9-0.1-1.2c-0.3-0.1-0.6-0.2-0.9-0.2L37.8,60
		L36,63.5l1.2,1.4c0.1,0.2,0.3,0.3,0.4,0.4c0.6,0.3,0.9-0.3,1.1-0.6l0.2,0.1l-1.4,2.6l-0.2-0.1c0.1-0.3,0.2-0.6,0.1-0.8
		c-0.4-0.7-0.9-1.4-1.4-2l-5.1-6.3l0.1-0.3l9.4,0.7c1.2,0.1,1.5,0,1.8-0.6L42.5,58.2z"/>
	<path class="st4" d="M37.5,67.5l-0.2-0.1c0.1-0.3,0.2-0.6,0.1-0.8c-0.4-0.7-0.8-1.4-1.4-2l-5.1-6.3l0.1-0.3l9.4,0.7
		c0.4,0.1,0.8,0,1.2,0c0.3-0.1,0.5-0.3,0.6-0.5l0.3,0.1l0,0l-1.8,3.4l-0.2-0.1c0.2-0.5,0.4-0.9-0.1-1.2c-0.3-0.1-0.6-0.2-0.9-0.2
		L37.8,60l-1.9,3.5l1.2,1.4c0.1,0.2,0.3,0.3,0.4,0.4c0.5,0.3,0.9-0.3,1-0.6v0l0.2,0.1L37.5,67.5z M31.1,57.9l-0.1,0.3l5.1,6.3
		c0.5,0.6,1,1.3,1.4,2c0.1,0.3,0.1,0.6-0.1,0.8l0.2,0.1l1.4-2.6l-0.2-0.1v0c-0.2,0.3-0.5,0.9-1,0.6c-0.2-0.1-0.3-0.2-0.4-0.4
		L36,63.5l1.9-3.5l1.6,0.1c0.3,0,0.6,0.1,0.9,0.2c0.5,0.3,0.3,0.7,0.1,1.2l0.2,0.1l1.8-3.4l-0.3-0.1c-0.1,0.2-0.3,0.4-0.6,0.5
		c-0.4,0.1-0.8,0.1-1.2,0L31.1,57.9z"/>
	<path id="path64665" class="st4" d="M49.4,49.6l-1.6,1.9H42l-0.4,0.7l2.4,1.8c0.8,0.6,1.1,0.7,1.9-0.3l0.2,0.2l-2.6,3.3l-0.2-0.2
		c0.7-1,0.5-1.3-0.4-1.9l-5.2-4c-1-0.8-1.2-0.7-1.9,0.1l-0.2-0.2l2.5-3.3c0.8-1.1,2.6-2.8,4.4-1.4c1.6,1.2,0.7,3,0.3,3.7l4.9-0.1
		c0.5,0,1-0.2,1.4-0.6L49.4,49.6z"/>
	<path class="st4" d="M43.5,57.3l-0.2-0.2c0.4-0.5,0.5-0.8,0.4-1.1c-0.1-0.3-0.3-0.5-0.8-0.8l-5.2-4c-0.5-0.4-0.7-0.5-1-0.5h-0.1
		c-0.3,0-0.5,0.2-0.9,0.6l-0.2-0.2l2.5-3.3c0.9-1.1,2.6-2.8,4.4-1.4c0.7,0.5,1,1.2,0.9,2c-0.1,0.6-0.3,1.1-0.6,1.7l0,0l4.9-0.1
		c0.5,0,1-0.2,1.4-0.6l0.2,0.2l0,0l-1.6,2H42l-0.4,0.7l2.4,1.8c0.8,0.6,1.1,0.7,1.9-0.3l0.2,0.2L43.5,57.3z M36.7,50.7
		c0.4,0.1,0.7,0.2,1,0.5l5.2,4c0.4,0.3,0.7,0.5,0.8,0.8c0.1,0.3,0,0.6-0.4,1.1l0.2,0.2l2.6-3.3l-0.2-0.2c-0.8,0.9-1.1,0.9-1.9,0.3
		l-2.4-1.8l0.4-0.7l5.9,0l1.5-1.9l-0.2-0.2c-0.3,0.4-0.9,0.6-1.4,0.6l-4.9,0.1l0,0c0.3-0.7,1.3-2.5-0.3-3.7
		c-1.8-1.4-3.6,0.3-4.4,1.4l-2.5,3.3l0.2,0.2C36.2,50.9,36.4,50.7,36.7,50.7L36.7,50.7z"/>
	<path id="path64669" class="st4" d="M54.1,45.1l-3.2,3.1L50.7,48c1-1,0.7-1.3,0-2l-5.3-5.4L44.8,41c-1.2,1.2-1.3,1.6-0.4,3.1
		l-0.3,0.3l-1.7-1.9l6.1-5.9l1.8,1.8l-0.3,0.2c-1.4-1-1.9-0.9-3.1,0.3l-0.7,0.6l5.5,5.5c0.7,0.7,1,0.8,2,0L54.1,45.1z"/>
	<path class="st4" d="M50.9,48.2L50.7,48c0.1-0.1,0.1-0.2,0.2-0.2c-0.1,0.1-0.1,0.1-0.2,0.2L50.9,48.2l3.2-3.1l-0.2-0.2
		c-0.9,0.8-1.3,0.8-2,0l-5.5-5.5l0.7-0.6c0.3-0.4,0.7-0.7,1.2-0.9c-0.5,0.2-0.9,0.5-1.2,0.9l-0.7,0.6l5.5,5.5c0.7,0.7,1,0.8,2,0
		l0.2,0.2l0,0L50.9,48.2z M51.4,46.9c0-0.3-0.2-0.6-0.6-1l-5.3-5.4L44.8,41c-0.6,0.5-0.9,1-1,1.4c-0.1,0.5,0.1,0.9,0.6,1.6l-0.3,0.3
		l-1.7-1.9l6.1-5.9l1.8,1.8l-0.3,0.2l-0.2-0.2l0.2,0.2l0.3-0.2l-1.8-1.8l-6.1,5.9l1.7,1.9l0.3-0.3c-0.5-0.8-0.7-1.2-0.6-1.6
		c0.1-0.4,0.4-0.9,1-1.4l0.7-0.5l5.2,5.4C51.1,46.4,51.3,46.6,51.4,46.9L51.4,46.9z"/>
	<path id="path64673" class="st4" d="M60.6,29L60.6,29l-0.1,0.1l-0.1,0l-0.1,0l0,0.1l-0.1,0l0,0l0,0l0,0.1l0,0l0,0l0,0l0,0v0.1l0,0
		v0v0.1v0.1v0.2v0.1v0.1v0.1v0.1l0,0.1l0,0.1v0l0,0v0v0l0,0v0l0,0V31l3.8,5.6c0.8,0.9,1.1,0.8,2,0.3l0.2,0.2l-3.5,2.4l-0.2-0.2
		c1-0.7,1-1,0.3-2l-3.8-5.6v0l1.6,9.3L60.3,41l-7.8-4.7h0l3.4,5c0.9,1.3,1.3,1.4,2.3,0.8l0.2,0.2l-3,2L55.2,44
		c0.9-0.7,1.2-0.8,0.1-2.4l-3.4-5.1c-0.7-1-1-0.9-2-0.3L49.8,36l2.5-1.7l7.2,4.4l-1.5-8.2l2.5-1.7L60.6,29z"/>
	<path class="st4" d="M55.4,44.3l-0.1-0.2l0.1-0.1c0.4-0.3,0.7-0.5,0.7-0.9c0-0.3-0.2-0.7-0.7-1.5l-3.4-5.1c-0.7-1-1-0.9-2-0.3
		L49.8,36l2.5-1.7l7.2,4.4L58,30.5l2.5-1.7l0.2,0.2l0,0l-0.1,0.1l-0.1,0.1l-0.1,0l-0.1,0l0,0.1l-0.1,0l-0.1,0.1l0,0.1l0,0l0,0l0,0
		l0,0v0.1l0,0v0l0,0.1v0.2v0.1v0.1l0,0.2l0.1,0.1v0l0,0l0,0.1l0,0v0l0,0V31l3.8,5.6c0.2,0.3,0.5,0.5,0.8,0.7
		c-0.3-0.1-0.6-0.4-0.8-0.7L60.1,31v-0.1l0,0v0l0,0l0-0.1l0,0v0l-0.1-0.1l0-0.1v-0.1v-0.1v-0.2l0-0.1v0l0,0v-0.1l0,0l0,0l0,0l0,0
		l0-0.1l0.1-0.1l0.1,0l0-0.1l0.1,0l0.1,0l0.1-0.1l0.1-0.1l-0.2-0.2L58,30.5l1.5,8.2l-7.2-4.4L49.8,36l0.2,0.2c1-0.6,1.3-0.6,2,0.3
		l3.4,5.1c0.5,0.8,0.7,1.2,0.7,1.5c0,0.3-0.3,0.5-0.7,0.9l-0.1,0.1L55.4,44.3l3-2l-0.2-0.2c-0.9,0.5-1.4,0.5-2.3-0.8l-3.4-5h0
		l7.8,4.7l0.2-0.1l-1.6-9.3v0l3.8,5.6c0.3,0.5,0.5,0.8,0.5,1.1c0,0.3-0.3,0.6-0.8,0.9l0.2,0.2l3.5-2.4l-0.2-0.2
		c-0.1,0.1-0.2,0.1-0.4,0.2c0.1-0.1,0.2-0.1,0.4-0.2l0.2,0.2l-3.5,2.4l-0.2-0.2c0.4-0.3,0.7-0.6,0.8-0.9c0-0.4-0.2-0.8-0.5-1.1
		l-3.8-5.6v0l1.6,9.3L60.3,41l-7.8-4.7h0l3.4,5c0.9,1.3,1.4,1.4,2.3,0.8l0.2,0.2L55.4,44.3z"/>
	<path id="path64677" class="st4" d="M83,21.5L83,21.5l-0.2,0l-0.1,0l-0.1,0l-0.1,0l-0.1,0l-0.1,0l-0.1,0l-0.1,0l-0.1,0l0,0l0,0l0,0
		l0,0.1l0,0l0,0.1l0,0.1v0.1l0,0.1v0.1v0.1v0.1v0v0.2v0v0.2v0V23v0.1v0.1v0.1v0.1v0.1l0,0.1v0.1v0.1v0.1l0,0.1l2.1,7.7l-0.3,0.1
		l-8.5-6.3h0l1.5,5.7c0.4,1.5,0.8,1.7,1.9,1.5v0.3l-3.4,0.9l0-0.3c1.1-0.4,1.3-0.7,0.9-2.3l-1.7-6.5c-0.8-0.6-1-0.6-1.6-0.4
		l-0.1-0.3l2.5-0.7l7.5,5.5h0l-1.3-4.9c-0.5-1.7-0.9-1.7-1.9-1.5l-0.1-0.3l3.4-0.9L83,21.5z"/>
	<path class="st4" d="M75.4,33.6l0-0.3c0.5-0.2,0.9-0.4,1-0.7c0.1-0.3,0.1-0.8-0.1-1.6l-1.7-6.5c-0.8-0.6-1-0.6-1.6-0.4L72.8,24
		l2.5-0.7l7.5,5.5h0l-1.3-4.9c-0.2-0.8-0.5-1.3-0.7-1.4c-0.4-0.2-0.8-0.2-1.2,0l-0.1-0.3l3.4-0.9l0.1,0.3l0,0l-0.1,0l-0.3,0.1
		l-0.1,0l-0.2,0.1l-0.1,0l0,0l0,0l0,0l0,0.1l0,0l-0.1,0.1v0.1l0,0.1v0.1v0.1v0.1v0v0.1v0v0.2v0V23v0.1v0.1l0,0.1v0.1l0,0.1l0,0.2
		l0,0.1l2.1,7.7L84,31.5l-8.6-6.3h0l1.5,5.7c0.2,0.8,0.4,1.2,0.7,1.4s0.6,0.2,1.2,0.1v0.3L75.4,33.6z M73.4,24.2
		c0.4,0,0.8,0.2,1.1,0.5l1.7,6.5c0.2,0.8,0.3,1.3,0.1,1.6c-0.1,0.3-0.5,0.5-1,0.7l0,0.3l3.4-0.9v-0.3c-0.6,0.1-0.9,0.1-1.2-0.1
		c-0.3-0.2-0.5-0.6-0.7-1.4l-1.6-5.7h0l8.6,6.3l0.3-0.1l-2.1-7.7l0-0.1l0-0.2l0-0.1v-0.1l0-0.1v-0.1V23V23v0v-0.2v0v-0.2v0v-0.1
		v-0.1v-0.1l0-0.1v-0.1l0.1-0.1l0,0l0-0.1l0,0l0,0l0,0l0.1,0l0.2-0.1l0.1,0l0.3-0.1l0.1,0l-0.1-0.3l-3.4,0.9l0.1,0.3
		c0.4-0.1,0.8-0.1,1.2,0c0.3,0.2,0.5,0.6,0.7,1.4l1.3,4.9h0l-7.5-5.5L72.8,24l0.1,0.3C73,24.2,73.2,24.2,73.4,24.2L73.4,24.2z"/>
	<path id="path64681" class="st4" d="M91.3,30.3l-4.4,0.5l0-0.3c1.4-0.2,1.4-0.6,1.3-1.7l-0.8-7.5l-0.8,0.1c-1.7,0.2-2,0.5-2.2,2.2
		l-0.4,0L83.8,21l8.5-0.9l0.4,2.6l-0.4,0c-0.5-1.6-1-1.8-2.6-1.7l-0.8,0.1l0.8,7.7c0.1,1,0.3,1.3,1.6,1.2L91.3,30.3z"/>
	<path class="st4" d="M86.9,30.8l0-0.3c0.7-0.1,1-0.2,1.2-0.5c0.1-0.4,0.2-0.8,0.1-1.2l-0.8-7.5l-0.8,0.1c-0.5,0-0.9,0.1-1.4,0.3
		c0.4-0.2,0.9-0.3,1.4-0.3l0.8-0.1l0.8,7.5c0.1,0.4,0.1,0.8-0.1,1.2c-0.2,0.2-0.5,0.4-1.2,0.5L86.9,30.8l4.4-0.5l0-0.3h-0.4
		c-0.9,0-1.1-0.3-1.2-1.2l-0.8-7.7l0.8-0.1c0.8-0.1,1.3-0.1,1.7,0.2c0.4,0.2,0.6,0.6,0.9,1.5l0.4,0l-0.4-2.6L83.8,21l0.2,2.6l0.4,0
		c0-0.1,0-0.2,0-0.3c0,0.1,0,0.2,0,0.3l-0.4,0L83.8,21l8.5-0.9l0.4,2.6l-0.4,0c-0.3-0.9-0.5-1.3-0.9-1.5c-0.4-0.2-1-0.2-1.7-0.2
		l-0.8,0.1l0.8,7.7c0.1,0.9,0.3,1.2,1.2,1.2h0.4l0,0.3L86.9,30.8z"/>
	<path id="path64685" class="st4" d="M96.3,25l0-0.3l0.1-0.3l0.1-0.3l0.1-0.3l0.1-0.3l0.1-0.3l0.1-0.3l0.1-0.2l0.1-0.2l0.1-0.2
		l0.1-0.2l0.2-0.2l0.2-0.2l0.2-0.2l0.2-0.2l0.2-0.1l0.2-0.1l0.2-0.1l0.2-0.1l0.2-0.1l0.2-0.1l0.2-0.1l0.2-0.1l0.2-0.1l0.2,0l0.2,0
		l0.2,0h0.2h0.2h0.5l0.2,0c2.5,0.3,4.7,2.2,4.4,5.7c-0.3,3.2-2.7,5-5.5,4.7C97.8,30.4,96,28.2,96.3,25z"/>
	<path class="st4" d="M101.3,30.7c-0.2,0-0.4,0-0.6,0c-0.3,0-0.5-0.1-0.8-0.1c0.3,0.1,0.5,0.1,0.8,0.1
		C100.9,30.7,101.1,30.7,101.3,30.7c1.1,0,2.2-0.4,3-1c0.2-0.1,0.4-0.3,0.5-0.5c-0.2,0.2-0.3,0.3-0.5,0.5
		C103.4,30.4,102.4,30.7,101.3,30.7z M97.8,29.5c-0.2-0.2-0.3-0.3-0.5-0.5c-0.9-1.1-1.2-2.6-1-4l0-0.3l0.1-0.6l0.1-0.3l0.1-0.3
		l0.1-0.3l0.1-0.3l0.1-0.2l0.3-0.5l0.1-0.2l0.3-0.4l0.2-0.2l0.2-0.2l0.2-0.1l0.4-0.3l0.2-0.1l0.2-0.1l0.2-0.1l0.2-0.1l0.5-0.2
		l0.5-0.1l0.2,0l0.5,0h0.5l0.2,0c0.6,0.1,1.2,0.2,1.8,0.5c0.1,0.1,0.2,0.1,0.3,0.2c-0.6-0.4-1.4-0.6-2.1-0.7l-0.2,0h-0.5l-0.5,0
		l-0.2,0l-0.5,0.1l-0.5,0.1l-0.2,0.1L99,20.7l-0.2,0.1L98.6,21l-0.4,0.3l-0.2,0.1l-0.2,0.2l-0.2,0.2l-0.3,0.4l-0.2,0.2L97,22.8
		L96.8,23l-0.1,0.3l-0.1,0.3l-0.1,0.3l-0.1,0.3l-0.1,0.6l0,0.3c-0.2,1.4,0.2,2.8,1,4C97.5,29.2,97.6,29.3,97.8,29.5L97.8,29.5z
		 M106,27c0.1-0.3,0.1-0.6,0.2-1c0-0.2,0-0.4,0-0.6c0,0.2,0,0.4,0,0.6C106.1,26.3,106.1,26.7,106,27L106,27z"/>
	<path id="path64689" class="st4" d="M113.2,29.3L113.2,29.3v-0.1v-0.1V29v-0.1v-0.2v-0.1v-0.1v-0.1v-0.1v-0.1v-0.1l0-0.1l0,0l0-0.1
		l0,0l0,0l0,0l0,0l0,0l-0.1,0l-0.1,0l-0.1,0l-0.1,0l-0.1,0l-0.1,0l-0.1,0h-0.1l-0.1,0l-0.1,0l-0.1,0l-0.1,0l-2.1-0.6l-0.8,3.2
		c-0.3,1.1,0,1.4,1,1.7l-0.1,0.3l-4.1-1l0.1-0.3c1.1,0.2,1.3,0,1.7-1.2l1.6-6.4c0.3-1.2,0-1.3-0.9-1.6l0.1-0.3l7.8,2l-0.5,2.1
		l-0.4-0.1c0.1-1.4-0.2-1.7-1.8-2.1l-2-0.5c-0.4-0.1-0.5-0.1-0.6,0.4l-0.8,3.2l2.1,0.6c1.2,0.3,1.5,0.1,2-1l0.3,0.1l-0.9,3.4
		L113.2,29.3z"/>
	<path class="st4" d="M109.9,32.1l-4.1-1l0.1-0.3c0.3,0.1,0.7,0.1,1,0c-0.3,0.1-0.7,0.1-1,0l-0.1,0.3L109.9,32.1l0.1-0.3
		c-0.4-0.1-0.7-0.3-1-0.5c-0.1-0.2-0.1-0.6,0-1.1l0.8-3.2l2.1,0.6l0.1,0l0.1,0l0.1,0l0.1,0h0.1l0.2,0.1l0.1,0l0.1,0.1l0.1,0l0,0
		l0.1,0.1l0,0l0,0.1l0,0l0,0.1v0.1v0.1l0,0.2v0.1v0.1v0.2V29v0.1v0.1v0.1v0.1l0.3,0.1l0.9-3.4l-0.3-0.1c-0.1,0.7-0.7,1.2-1.4,1.2
		c-0.2,0-0.4-0.1-0.5-0.2l-2.1-0.6l0.8-3.2c0.1-0.5,0.2-0.5,0.6-0.4l2,0.5l0.4,0.1l-0.4-0.1l-2-0.5c-0.4-0.1-0.5-0.1-0.6,0.4
		l-0.8,3.2l2.1,0.6c0.6,0.4,1.4,0.2,1.8-0.5c0.1-0.2,0.1-0.3,0.2-0.5l0.3,0.1l-0.9,3.4l-0.3-0.1v-0.1v-0.1v-0.1V29v-0.1v-0.2v-0.1
		v-0.1l0-0.2v-0.1v-0.1l0-0.1l0,0l0-0.1l0,0l-0.1-0.1l0,0l-0.1,0l-0.1-0.1l-0.1,0l-0.2-0.1h-0.1l-0.1,0l-0.1,0l-0.1,0l-0.1,0
		l-2.1-0.6l-0.8,3.2c-0.1,0.6-0.1,0.9,0,1.1c0.3,0.3,0.6,0.5,1,0.5L109.9,32.1z M107.4,30c0-0.1,0.1-0.2,0.1-0.4l1.6-6.4
		c0.1-0.2,0.1-0.5,0.1-0.7c0,0.2,0,0.5-0.1,0.7l-1.6,6.4C107.5,29.8,107.4,29.9,107.4,30z M115.6,25.5l-0.4-0.1c0-0.3,0-0.7,0-1
		c0.1,0.3,0.1,0.7,0,1L115.6,25.5l0.5-2.1l-7.8-2l-0.1,0.3l0.4,0.1l-0.4-0.1l0.1-0.3l7.8,2L115.6,25.5z"/>
	<path id="path64693" class="st4" d="M122.8,37l-4-1.9l0.1-0.3c1.3,0.5,1.5,0.2,2-0.8l3.2-6.8l-0.7-0.4c-1.5-0.7-2-0.6-3,0.7
		l-0.3-0.1l1.2-2.3l7.7,3.7l-1,2.4l-0.3-0.2c0.4-1.6,0.2-2.1-1.3-2.8l-0.7-0.4l-3.3,7c-0.4,0.9-0.4,1.3,0.7,1.8L122.8,37z"/>
	<path class="st4" d="M122.8,37L122.8,37l-4-1.9l0.1-0.3c0.7,0.3,1,0.3,1.3,0.2s0.4-0.5,0.7-1l3.2-6.8l-0.7-0.4
		c-0.7-0.3-1.2-0.5-1.7-0.4s-0.8,0.4-1.3,1.1l-0.3-0.1l1.2-2.3l7.7,3.7l-1,2.4l-0.3-0.2c0.2-0.9,0.2-1.4,0.1-1.7
		c-0.2-0.4-0.7-0.7-1.4-1l-0.7-0.4l-3.3,7c-0.2,0.3-0.3,0.6-0.3,0.9c0-0.3,0.1-0.6,0.3-0.9l3.3-7l0.7,0.4c0.7,0.3,1.2,0.6,1.4,1
		c0.2,0.4,0.2,0.9-0.1,1.7l0.3,0.2l1-2.4l-7.7-3.7l-1.2,2.3l0.3,0.1c0.5-0.7,0.9-1,1.3-1.1c0.4-0.1,1,0.1,1.7,0.4l0.7,0.4l-3.2,6.8
		c-0.3,0.5-0.4,0.8-0.7,1c-0.3,0.1-0.6,0.1-1.3-0.2l-0.1,0.3L122.8,37l0.1-0.2c-0.2-0.1-0.3-0.2-0.4-0.2c0.1,0.1,0.3,0.2,0.4,0.2
		L122.8,37z"/>
	<path id="path64697" class="st4" d="M124.9,37.7L124.9,37.7l0.1,0.1l0,0l0,0l0,0h0l0,0h0h0l0,0h0h0h0h0l0.1,0h0.1h0.1h0.1h0.1h0.1
		h0.1h0h0.1h0l0.1,0l0,0l0,0l0,0l0.1,0l0,0l0-0.1l0-0.1l0.1-0.1l0-0.1l0-0.1l0.1-0.1l0.1-0.1l0.1-0.1l0-0.1l3.7-5.4
		c0.6-0.9,0.5-1.2-0.3-1.8l0.2-0.2l3.5,2.4l-0.2,0.2c-1-0.6-1.3-0.5-1.9,0.4l-1.7,2.4l3.8,2.6l1.7-2.4c0.6-0.9,0.5-1.2-0.3-1.8
		l0.2-0.2l3.5,2.4l-0.2,0.2c-1-0.6-1.3-0.5-1.9,0.4l-3.8,5.5c-0.6,0.8-0.6,1.2,0.3,1.9l-0.2,0.2l-3.5-2.3l0.2-0.3
		c1.1,0.7,1.3,0.4,2-0.5l1.7-2.4l-3.8-2.6l-1.8,2.5c-0.6,0.8-0.6,1.2,0.3,1.9l-0.2,0.2l-3.5-2.4L124.9,37.7z"/>
	<path class="st4" d="M133.3,43.7l-3.5-2.4l0.2-0.3c0.2,0.2,0.5,0.3,0.8,0.4c-0.3-0.1-0.5-0.2-0.8-0.4l-0.2,0.3L133.3,43.7l0.2-0.2
		c-0.9-0.7-0.9-1-0.3-1.9l3.8-5.5c0.6-0.9,0.9-0.9,1.9-0.4l0.2-0.2l-3.5-2.4l-0.2,0.2c0.1,0.1,0.2,0.2,0.3,0.3
		c-0.1-0.1-0.2-0.2-0.3-0.3l0.2-0.2l3.5,2.4l-0.2,0.2c-1-0.6-1.2-0.5-1.9,0.4l-3.8,5.5c-0.6,0.8-0.6,1.2,0.3,1.9L133.3,43.7z
		 M131.5,41.1c0.1-0.2,0.3-0.3,0.4-0.5l1.7-2.5l-3.8-2.6l-1.8,2.6c-0.6,0.9-0.6,1.2,0.3,1.9l-0.2,0.2l-3.5-2.4l0.2-0.2l0.1,0
		l0.2,0.1h0l0,0l0.1,0l0,0l0.1,0h0h0l0.1,0h0.1h0.1h0.1h0.1h0.1h0.1h0h0.1h0l0.1,0l0.1-0.1l0.1,0l0,0l0.1-0.1l0.1-0.1l0-0.1l0-0.1
		l0.2-0.2l0-0.1l3.7-5.4c0.4-0.5,0.5-0.8,0.4-1.1c0,0,0,0.1,0,0.1c0.1,0.3-0.1,0.6-0.4,1l-3.7,5.4l0,0.1l-0.2,0.2l0,0.1l0,0.1
		l-0.1,0.1l-0.1,0.1l0,0l-0.1,0l-0.1,0.1l-0.1,0h0H126h0h-0.1h-0.1h-0.1h-0.1h-0.1h-0.1l-0.1,0h0h0l-0.1,0l0,0l-0.1,0l0,0h0
		l-0.2-0.1l-0.1,0l-0.2,0.2l3.5,2.4l0.2-0.2c-0.9-0.7-0.9-1-0.3-1.9l1.8-2.6l3.8,2.6l-1.7,2.5C131.8,40.8,131.7,41,131.5,41.1
		L131.5,41.1z M133.9,37.6l-3.8-2.6l1.7-2.4c0.3-0.4,0.5-0.7,0.8-0.7h0.1c0.3,0,0.7,0.2,1,0.4l0.2-0.2l-3.5-2.4l-0.2,0.2l0.2,0.2
		c-0.1-0.1-0.2-0.1-0.2-0.2l0.2-0.2l3.5,2.4l-0.2,0.2c-0.3-0.2-0.6-0.3-1-0.4c0,0-0.1,0-0.1,0c-0.3,0.1-0.5,0.3-0.8,0.7l-1.7,2.4
		L133.9,37.6l1.7-2.4c0.4-0.6,0.5-0.9,0.3-1.2c0,0.1,0.1,0.1,0.1,0.2c0.1,0.2-0.1,0.5-0.4,1L133.9,37.6z"/>
	<path id="path64701" class="st4" d="M139.8,50l-6-5.6l0.2-0.2c0.7,0.6,1.1,0.7,1.9-0.1l4.6-4.9c0.8-0.9,0.6-1.2,0-1.9l0.2-0.2
		l5.9,5.5l-1.4,1.6l-0.3-0.3c0.8-1.1,0.6-1.6-0.6-2.7l-1.5-1.4c-0.2-0.2-0.4-0.3-0.7,0l-2.3,2.5l1.7,1.6c1,0.9,1.3,0.7,2.2,0.1
		l0.3,0.2l-2.4,2.6l-0.3-0.2c0.7-1,0.7-1.3-0.2-2.2l-1.7-1.6l-2.6,2.7c-0.4,0.5-0.5,0.5,1.2,2c1.4,1.3,2.2,1.5,3.8,0.8l0.3,0.3
		L139.8,50z"/>
	<path class="st4" d="M139.8,50L139.8,50l-6-5.6l0.2-0.2c0.2,0.3,0.6,0.4,0.9,0.5l0,0c0.3,0,0.6-0.2,1-0.6l4.6-4.9
		c0.4-0.4,0.6-0.7,0.5-1c0,0.3-0.2,0.6-0.5,1l-4.6,4.9c-0.4,0.4-0.7,0.6-1,0.6l0,0c-0.4-0.1-0.7-0.2-0.9-0.5l-0.2,0.2L139.8,50
		l2.3-1.4l-0.3-0.3c-1.5,0.7-2.4,0.5-3.8-0.8c-1.6-1.5-1.6-1.5-1.2-2l0,0l2.6-2.7l1.7,1.6c0.4,0.4,0.7,0.7,0.7,1
		c0,0.4-0.2,0.8-0.5,1.2l0.3,0.2l2.4-2.6l-0.3-0.2l-0.2,0.2l0.2-0.2l0.3,0.2l-2.4,2.5l-0.3-0.2c0.3-0.3,0.4-0.7,0.5-1.2
		c0-0.3-0.3-0.6-0.7-1l-1.7-1.6l-2.6,2.8c-0.4,0.5-0.4,0.5,1.2,2c1.4,1.3,2.2,1.5,3.8,0.8l0.3,0.3L139.8,50z M142.3,44.5
		c-0.3-0.1-0.6-0.3-0.8-0.6l-1.7-1.6l2.3-2.5c0.1-0.2,0.3-0.2,0.4-0.2l0,0c0.1,0,0.2,0.1,0.3,0.2l1.5,1.4c0.6,0.5,0.9,1,1,1.4
		c0.1,0.4,0,0.8-0.5,1.4l0.3,0.3l1.4-1.6l-5.9-5.5l-0.2,0.2c0.1,0.1,0.2,0.2,0.3,0.3c-0.1-0.1-0.2-0.2-0.3-0.3l0.2-0.2l5.9,5.5
		l-1.4,1.6l-0.3-0.3c0.4-0.6,0.5-1,0.5-1.4c-0.1-0.4-0.5-0.8-1-1.4l-1.5-1.4c-0.1-0.1-0.2-0.2-0.3-0.2l0,0c-0.1,0-0.2,0.1-0.4,0.2
		l-2.3,2.5l1.7,1.6C141.7,44.1,142,44.4,142.3,44.5z"/>
	<path id="path64705" class="st4" d="M145.7,57.7l-2.6-3.6l0.2-0.2c0.9,1.1,1.2,0.9,2.1,0.3l6.2-4.4l-0.5-0.7c-1-1.4-1.4-1.5-3-0.8
		L148,48l2.1-1.4l5,7l-2,1.6l-0.2-0.3c1.2-1.2,1.2-1.7,0.2-3.1l-0.5-0.7l-6.3,4.5c-0.8,0.6-1,0.9-0.3,2L145.7,57.7z"/>
	<path class="st4" d="M145.7,57.7L145.7,57.7l-2.6-3.6l0.2-0.2c0.4,0.5,0.7,0.8,1,0.8h0c0.4-0.1,0.7-0.2,1-0.5l6.2-4.4l-0.5-0.7
		c-1-1.4-1.5-1.5-3-0.8L148,48l2.1-1.4l5,7l-2,1.6l-0.2-0.3c0.6-0.7,0.9-1.1,0.9-1.5c0-0.4-0.3-1-0.7-1.6l-0.5-0.7l-6.3,4.5
		c-0.8,0.6-1,0.9-0.3,2L145.7,57.7z M143.4,54l-0.2,0.2l2.6,3.6l0.2-0.2c-0.7-1.1-0.6-1.4,0.3-2l6.3-4.5l0.5,0.7
		c0.5,0.6,0.7,1.1,0.7,1.6c0,0.5-0.3,0.8-0.9,1.5l0.2,0.3l2-1.6l-5-7L148,48l0.2,0.3c1.5-0.7,2-0.5,3,0.8l0.5,0.7l-6.2,4.4
		c-0.3,0.3-0.6,0.4-1,0.5h0C144.1,54.7,143.8,54.5,143.4,54z"/>
	<path id="path64709" class="st4" d="M151.6,67.8l-1.1-2.2l2.5-5.3l-0.4-0.7l-2.7,1.4c-0.9,0.5-1.1,0.7-0.6,1.8l-0.3,0.1l-1.9-3.7
		l0.3-0.1c0.6,1.1,0.9,1,1.9,0.5l5.8-3c1-0.5,1-0.8,0.6-1.8l0.3-0.1l1.9,3.7c0.6,1.2,1.5,3.6-0.6,4.6c-1.8,0.9-3-0.7-3.5-1.3l-2,4.5
		c-0.2,0.5-0.3,1,0,1.5L151.6,67.8z"/>
	<path class="st4" d="M151.6,67.8L151.6,67.8l-1.1-2.2l2.5-5.3l-0.4-0.7l-2.7,1.4c-0.9,0.5-1.1,0.7-0.6,1.8l-0.3,0.1l-1.9-3.7
		l0.3-0.1c0.6,1.1,1,1,1.9,0.5l5.8-3c1-0.5,1-0.8,0.6-1.8l0.3-0.1l1.9,3.7c0.4,0.7,1,2.1,0.6,3.3c-0.2,0.6-0.6,1.1-1.2,1.3
		c-1.8,0.9-3.1-0.7-3.5-1.3l-2,4.5c-0.2,0.5-0.3,1,0,1.5L151.6,67.8z M152.6,59.5l0.4,0.7l-2.5,5.3l1.1,2.2l0.3-0.1
		c-0.2-0.5-0.2-1,0-1.5l2-4.5c0.5,0.6,1.7,2.2,3.5,1.3c0.6-0.3,1-0.7,1.2-1.3c0.4-1.2-0.2-2.6-0.6-3.3l-1.9-3.7l-0.3,0.1
		c0.4,1,0.4,1.3-0.6,1.8l-5.8,3c-1,0.5-1.3,0.6-1.9-0.5l-0.3,0.1l1.9,3.7l0.3-0.1c-0.5-1.1-0.3-1.3,0.6-1.8L152.6,59.5z"/>
	<path id="path64713" class="st4" d="M154.9,76l-2.6-7.7l0.3-0.1c0.4,0.9,0.6,1.2,1.7,0.8l6.4-2.1c1.2-0.4,1.1-0.7,0.9-1.7l0.3-0.1
		l2.5,7.6l-2,0.7l-0.1-0.4c1.2-0.6,1.3-1.1,0.8-2.7l-0.6-1.9c-0.1-0.3-0.2-0.5-0.6-0.3l-3.2,1.1l0.7,2.2c0.4,1.3,0.8,1.3,1.9,1.1
		l0.1,0.3l-3.3,1.1l-0.1-0.3c1.1-0.6,1.2-0.8,0.8-2l-0.7-2.2l-3.6,1.2c-0.6,0.2-0.6,0.2,0.1,2.3c0.6,1.8,1.3,2.4,2.9,2.5l0.1,0.4
		L154.9,76z"/>
	<path class="st4" d="M154.9,76L154.9,76l-2.6-7.7l0.3-0.1c0.1,0.2,0.2,0.4,0.3,0.6c-0.1-0.2-0.2-0.4-0.3-0.6l-0.3,0.1L154.9,76
		l2.6-0.2l-0.1-0.4c-1.7-0.1-2.3-0.7-2.9-2.5c-0.7-2.1-0.7-2.1-0.1-2.3l0,0l3.6-1.2l0.7,2.2c0.4,1.2,0.3,1.5-0.8,2l0.1,0.3l3.3-1.1
		l-0.1-0.3c-1.1,0.2-1.5,0.2-1.9-1.1l-0.7-2.2l3.2-1.1c0.5-0.2,0.5,0,0.6,0.3v0l0.6,1.9c0.3,0.7,0.4,1.3,0.3,1.7s-0.4,0.6-1,1
		l0.1,0.4l2-0.7l-2.5-7.6l-0.3,0.1c0,0.1,0.1,0.3,0.1,0.4c0-0.1-0.1-0.3-0.1-0.4l0.3-0.1l2.5,7.6l-2,0.7l-0.1-0.4
		c0.7-0.3,0.9-0.6,1-1c0.1-0.4,0-1-0.3-1.7l-0.7-2c-0.1-0.3-0.2-0.5-0.6-0.3l-3.2,1.1l0.7,2.2c0.4,1.3,0.8,1.3,1.9,1.1l0.1,0.3
		l-3.3,1.1l-0.1-0.3c1.1-0.6,1.2-0.8,0.8-2l-0.7-2.2l-3.6,1.2c-0.6,0.2-0.6,0.2,0.1,2.3c0.6,1.8,1.3,2.4,2.9,2.5l0.1,0.4L154.9,76z
		 M153.7,69.1c0.2,0,0.5-0.1,0.7-0.2l6.4-2.1c0.6-0.2,0.8-0.4,1-0.6c-0.1,0.2-0.4,0.4-1,0.6l-6.4,2.1
		C154.1,69,153.9,69.1,153.7,69.1L153.7,69.1z"/>
	<path id="path64717" class="st4" d="M156.9,87.2l-0.6-3.8l0.3,0c0.1,0.6,0.2,1,0.7,0.9c0.3-0.1,0.6-0.2,0.9-0.4l1.3-0.9l-0.6-3.9
		l-1.9-0.4c-0.2,0-0.4-0.1-0.6,0c-0.6,0.1-0.5,0.8-0.5,1.1l-0.3,0l-0.5-2.9l0.3,0c0.1,0.3,0.2,0.5,0.5,0.7c0.7,0.3,1.5,0.6,2.3,0.7
		l7.8,1.9l0,0.3l-7.8,5.1c-1,0.7-1.1,0.9-1.1,1.6L156.9,87.2z"/>
	<path class="st4" d="M156.9,87.2L156.9,87.2l-0.6-3.8l0.3,0c0.1,0.4,0.1,0.7,0.3,0.9c0.1,0.1,0.3,0.1,0.4,0.1
		c0.3-0.1,0.6-0.3,0.9-0.4l1.3-0.9l-0.6-3.9l-1.9-0.4c-0.2,0-0.4,0-0.6,0c-0.6,0.1-0.5,0.8-0.5,1.1v0l-0.3,0l-0.5-2.9l0.3,0
		c0.1,0.3,0.2,0.5,0.5,0.7c0.7,0.3,1.4,0.5,2.1,0.7l0.2,0.1l7.8,1.9l0,0.3l-7.8,5.1c-0.1,0.1-0.2,0.1-0.3,0.2l0.3-0.2l7.8-5.1l0-0.3
		l-7.8-1.9l-0.2-0.1c-0.7-0.1-1.4-0.4-2.1-0.7c-0.2-0.2-0.4-0.4-0.5-0.7l-0.3,0l0.5,2.9l0.3,0v0c0-0.3-0.1-1,0.5-1.1
		c0.2,0,0.4,0,0.6,0l1.9,0.4l0.6,3.9l-1.3,0.9c-0.3,0.2-0.6,0.3-0.9,0.4c-0.1,0-0.3,0-0.4-0.1c-0.2-0.2-0.3-0.5-0.3-0.9l-0.3,0
		L156.9,87.2l0.3,0c0-0.2,0-0.5,0.1-0.7c-0.1,0.2-0.1,0.5-0.1,0.7L156.9,87.2z"/>
	<path id="path64721" class="st4" d="M164.2,93.8v-0.4c1.2-0.3,2.6-1.3,2.6-2.9c0-0.8-0.5-1.5-1.3-1.5c0,0-0.1,0-0.1,0
		c-2.3,0-2.5,5.1-5.6,5.2c-1.3,0-2.8-1-2.8-3.1c0-1.2,0.5-1.9,0.5-2.4c0-0.3-0.2-0.5-0.5-0.5c0,0,0,0,0,0V88l3.2-0.5v0.3
		c-0.7,0.3-2.6,1.1-2.6,3.2c-0.1,0.9,0.7,1.7,1.6,1.8c0,0,0.1,0,0.1,0c0.8,0,1.4-0.3,2.6-2.5c0.8-1.4,1.4-2.4,2.9-2.4
		c1.7,0,2.6,1.3,2.6,2.7c0,0.9-0.5,1.7-0.5,2.1s0.4,0.5,0.5,0.5v0.3L164.2,93.8z"/>
	<path class="st4" d="M159.7,94.3c-0.1,0-0.2,0-0.3,0C159.6,94.3,159.7,94.3,159.7,94.3L159.7,94.3c1.7,0,2.5-1.5,3.3-2.9
		c0.7-1.2,1.3-2.3,2.3-2.3h0c0.1,0,0.2,0,0.4,0c-0.1,0-0.2,0-0.4,0h0c-1.1,0-1.7,1.1-2.3,2.3c-0.4,0.7-0.8,1.3-1.3,1.9
		C161.2,93.9,160.5,94.2,159.7,94.3L159.7,94.3z M164.2,93.8L164.2,93.8v-0.4c0.2,0,0.3-0.1,0.5-0.1c-0.2,0.1-0.3,0.1-0.5,0.1V93.8
		l3.2-0.4v-0.3c-0.3,0-0.5-0.2-0.5-0.5c0-0.2,0.1-0.4,0.2-0.6c0.2-0.5,0.3-1,0.3-1.5c0-0.8-0.3-1.5-0.8-2c-0.5-0.4-1.1-0.7-1.8-0.7
		h-0.1c-0.2,0-0.3,0-0.5,0.1c0.2,0,0.3,0,0.5-0.1h0.1c0.7,0,1.3,0.2,1.8,0.7c0.5,0.5,0.8,1.3,0.8,2c0,0.5-0.1,1-0.3,1.5
		c-0.1,0.2-0.1,0.4-0.2,0.6c0,0.4,0.4,0.5,0.5,0.5v0.3L164.2,93.8z M157.4,92.8c-0.3-0.5-0.4-1.1-0.4-1.7c0-0.6,0.1-1.1,0.3-1.7
		c0.1-0.2,0.1-0.5,0.2-0.7c0-0.3-0.2-0.5-0.5-0.5c0,0,0,0,0,0V88l3.2-0.5v0.3l-0.1,0c-0.3,0.1-0.6,0.3-0.8,0.4
		c0.3-0.2,0.6-0.3,0.8-0.4l0.1,0v-0.3l-3.2,0.5v0.3l0,0c0.3,0,0.5,0.2,0.5,0.4c0,0,0,0,0,0c0,0.2-0.1,0.5-0.2,0.7
		c-0.2,0.5-0.3,1.1-0.3,1.7C157,91.7,157.1,92.3,157.4,92.8z M159.2,92.7c-0.4,0-0.8-0.2-1.1-0.4c-0.4-0.4-0.6-0.8-0.6-1.4
		c0-0.2,0-0.4,0-0.6c0,0.2,0,0.4,0,0.6C157.5,91.9,158.2,92.7,159.2,92.7C159.2,92.7,159.2,92.7,159.2,92.7L159.2,92.7
		c0.9,0,1.4-0.3,2.7-2.5c0.2-0.4,0.4-0.8,0.7-1.1c-0.2,0.4-0.5,0.7-0.7,1.1C160.6,92.5,160.1,92.7,159.2,92.7L159.2,92.7z M166.8,91
		c0-0.1,0-0.3,0-0.4c0-0.3-0.1-0.6-0.3-0.9c0.2,0.3,0.3,0.6,0.3,0.9C166.8,90.7,166.8,90.9,166.8,91L166.8,91z"/>
	<path id="path64725" class="st4" d="M165.7,105.9v-0.5v-0.1v-0.1v-0.1v-0.1v-0.1V105l0-0.1l0-0.1l0-0.1l0,0l0,0l0,0l-0.1,0l0,0
		l-0.1,0l-0.1,0l-0.1,0l-0.1,0H165l-0.1,0l-0.1,0l-0.1,0h-0.1h-0.1h-0.1h-0.1h-0.1h-0.1h-0.1h-0.1h-0.1H164l-3.9-0.5
		c-1.2-0.2-4-0.5-3.5-4.4c0.5-3.7,3.4-3.3,4.3-3.2l4.6,0.5c1.1,0.1,1.3-0.1,1.5-1.2l0.3,0l-0.6,4.2l-0.3,0c0.1-1.2-0.1-1.4-1.2-1.5
		l-4.8-0.6c-1-0.1-3.1-0.4-3.4,2.2c-0.2,1,0.1,2,0.9,2.6c0.3,0.2,0.8,0.5,2,0.6l4.1,0.5c1.6,0.2,1.9-0.1,2.1-1.2l0.3,0l-0.5,3.5
		L165.7,105.9z"/>
	<path class="st4" d="M165.9,106l-0.3,0v-0.5v-0.1l0-0.2l0-0.1l-0.1-0.2l-0.1-0.1l-0.1,0l0,0l-0.1,0l-0.1,0l-0.1,0l-0.1,0h-0.1
		l-0.1,0l-0.1,0l-0.1,0h-0.1l-0.2,0h-0.1h-0.1h-0.1h-0.1H164h-0.1l-3.9-0.5c-0.7-0.1-2.1-0.3-2.9-1.3c-0.6-0.7-0.8-1.8-0.6-3.1
		c0.2-1.2,0.6-2.1,1.3-2.7c0.1-0.1,0.3-0.2,0.5-0.3c-0.2,0.1-0.3,0.2-0.5,0.3c-0.8,0.7-1.2,1.6-1.3,2.7c-0.2,1.3,0,2.4,0.6,3.1
		c0.8,1,2.2,1.2,2.9,1.3l3.9,0.5h0.1h0.1h0.1h0.1h0.1h0.1l0.2,0h0.1l0.1,0l0.1,0l0.1,0h0.1l0.1,0l0.1,0l0.1,0l0.1,0l0,0l0.1,0
		l0.1,0.1l0.1,0.2l0,0.1l0,0.2v0.1v0.5L165.9,106l0.4-3.5l-0.3,0c0,0.4-0.2,0.8-0.5,1c-0.3,0.2-0.8,0.2-1.6,0.1l-4.1-0.5
		c-1.3-0.2-1.7-0.4-2-0.6c-0.7-0.7-1.1-1.6-0.9-2.6c0-0.2,0.1-0.4,0.1-0.6c-0.1,0.2-0.1,0.4-0.1,0.6c-0.2,1,0.1,2,0.9,2.6
		c0.3,0.2,0.7,0.5,2,0.6l4.1,0.5c0.8,0.1,1.3,0.1,1.6-0.1c0.3-0.3,0.5-0.6,0.5-1l0.3,0L165.9,106z M166.7,99.8l-0.3,0
		c0-0.2,0-0.4,0-0.6c0,0.2,0,0.4,0,0.6L166.7,99.8l0.6-4.2l-0.3,0c0,0.4-0.2,0.8-0.4,1.1l-0.1,0c0.3-0.2,0.4-0.5,0.5-1.1l0.3,0
		L166.7,99.8z M165.8,98.3c-0.2,0-0.3-0.1-0.5-0.1l-4.8-0.6c-0.5-0.1-1-0.1-1.4,0c0.5-0.1,1,0,1.4,0l0,0l4.8,0.6
		C165.4,98.3,165.6,98.3,165.8,98.3L165.8,98.3z M165.9,96.8c-0.1,0-0.3,0-0.5,0l-4.7-0.6c-0.2,0-0.5-0.1-0.7-0.1
		c0.2,0,0.5,0,0.7,0.1l4.7,0.6C165.7,96.7,165.8,96.7,165.9,96.8L165.9,96.8z"/>
	<path id="path64729" class="st4" d="M153.2,113.9l0.7-2.3l5.5-2.1l0.2-0.8l-2.9-0.9c-1-0.3-1.3-0.2-1.7,0.9l-0.3-0.1l1.2-4l0.3,0.1
		c-0.3,1.2,0,1.3,1.1,1.7l6.3,1.9c1.1,0.3,1.3,0.2,1.7-0.8l0.3,0.1l-1.2,4c-0.4,1.3-1.4,3.6-3.6,2.9c-1.9-0.6-1.7-2.6-1.6-3.4
		l-4.6,1.9c-0.5,0.2-0.9,0.6-1.1,1.1L153.2,113.9z"/>
	<path class="st4" d="M161.5,114.5c-0.3,0-0.5,0-0.8-0.1c-0.2-0.1-0.3-0.1-0.5-0.2c0.1,0.1,0.3,0.1,0.5,0.2c0.6,0.2,1.2,0.1,1.8-0.1
		c1.1-0.6,1.6-2,1.8-2.8l1.2-4l-0.3-0.1c-0.4,1-0.6,1.2-1.7,0.8l-6.3-1.9c-1.1-0.3-1.4-0.5-1.1-1.7l-0.3-0.1l-1.2,4l0.3,0.1
		c0.2-0.6,0.4-0.9,0.6-1c0.4-0.1,0.7-0.1,1.1,0.1l2.8,0.9l-0.2,0.8l-5.5,2.1l-0.7,2.3l0.3,0.1c0.2-0.5,0.6-0.9,1.1-1.1l4.6-1.9v0
		c0,0.3,0,0.6,0,0.8c0-0.3,0-0.6,0-0.8V111l-4.6,1.9c-0.5,0.2-0.9,0.6-1.1,1.1l-0.3-0.1l0.7-2.3l5.5-2.1l0.2-0.8l-2.9-0.9
		c-0.3-0.2-0.7-0.2-1.1-0.1c-0.2,0.1-0.4,0.4-0.6,1l-0.3-0.1l1.2-4l0.3,0.1c-0.3,1.2,0,1.3,1.1,1.7l6.3,1.9c1.1,0.3,1.3,0.2,1.7-0.8
		l0.3,0.1l-1.2,4c-0.2,0.8-0.8,2.2-1.8,2.8C162.2,114.4,161.9,114.5,161.5,114.5z"/>
	<path id="path64733" class="st4" d="M158.2,126.6L158.2,126.6l0.1-0.2l0-0.1v0v-0.1v0v-0.1v-0.3v-0.1v-0.1v-0.1v-0.1v-0.1l0-0.1
		l0-0.1l0-0.1l0-0.1l0-0.1l0-0.1l0-0.1l-0.1-0.1l0-0.1l0-0.1l0-0.1l0-0.1l0-0.1l0-0.1l0-0.1l0-0.1l0-0.1l0-0.1l-2.1-3.5l-2.6-1.3
		c-1-0.5-1.3-0.4-1.9,0.8l-0.3-0.1l2-4.2l0.3,0.1c-0.6,1.3-0.3,1.5,0.7,2l2.4,1.2l3.5-0.5c2.7-0.4,2.9-0.6,3.2-1.1l0.3,0.1l-1.9,3.8
		l-0.3-0.1c0.3-0.6,0.4-1,0-1.2c-0.2-0.1-0.5-0.1-0.7-0.1l-4,0.5l2.1,3.5c0.1,0.2,0.2,0.3,0.4,0.4c0.4,0.2,0.7-0.3,0.9-0.7l0.3,0.1
		l-1.4,3L158.2,126.6z"/>
	<path class="st4" d="M158.4,126.7l-0.3-0.1l0-0.1l0-0.1l0-0.1v0v-0.1v0v-0.1v-0.3v-0.1v-0.1l0-0.1v-0.1l0-0.1l0-0.1l0-0.1l0-0.1
		l-0.1-0.2l0-0.1l-0.1-0.2l0-0.1l0-0.1l0-0.1l0-0.1l-0.2-0.3l-2.1-3.5l-2.6-1.3c-0.5-0.2-0.8-0.3-1.1-0.2s-0.5,0.4-0.8,1l-0.3-0.1
		l2-4.2l0.3,0.1c-0.3,0.7-0.4,1.1-0.3,1.3c0.1,0.3,0.5,0.5,1,0.7l2.4,1.2l3.5-0.5c1.8-0.2,2.4-0.4,2.8-0.7c-0.1,0.1-0.2,0.1-0.3,0.2
		c-0.8,0.3-1.6,0.4-2.5,0.5L156,119l-2.4-1.2c-0.5-0.3-0.9-0.4-1-0.7c-0.1-0.3,0-0.7,0.3-1.3l-0.3-0.1l-2,4.2l0.3,0.1
		c0.3-0.6,0.5-0.9,0.8-1c0.1,0,0.2,0,0.2,0c0.3,0,0.6,0.1,0.9,0.3l2.6,1.3l2.1,3.5l0.2,0.3l0,0.1l0,0.1l0,0.1l0,0.1l0.1,0.2l0,0.1
		l0.1,0.2l0,0.1l0,0.1l0,0.1l0,0.1v0.1l0,0.1v0.1v0.1v0.3v0.1v0v0.1v0l0,0.1l0,0.1l0,0.1L158.4,126.7l1.4-3l-0.3-0.1
		c-0.2,0.4-0.4,0.8-0.7,0.8c-0.1,0-0.1,0-0.2-0.1c-0.2-0.1-0.3-0.2-0.4-0.4v0l-2.1-3.5l4-0.5c0.2,0,0.5,0,0.7,0.1
		c0.4,0.2,0.2,0.5,0,1.2l0.3,0.1l1.9-3.8l-0.3-0.1l-0.1,0.1l0.1-0.1l0.3,0.1l-1.9,3.8l-0.3-0.1c0.3-0.6,0.4-1,0-1.2
		c-0.2-0.1-0.5-0.1-0.7-0.1l-4,0.5l2.1,3.5c0.1,0.2,0.2,0.3,0.4,0.4c0.1,0,0.1,0.1,0.2,0.1c0.3,0,0.5-0.4,0.7-0.8l0.3,0.1
		L158.4,126.7z"/>
	<path id="path64737" class="st0" d="M31.2,89.8h0.2h0h0h0h0h0l0,0h0l0,0l0,0l0,0v0v0v0v0v0v0v0v0v0v-0.1v0v-0.1v-0.1v-0.1
		c0.1-1,0.3-4.7-4.2-4.9c-1.3-0.1-2.6,0.3-3.5,1.2c-0.7,0.7-1.1,1.5-1.2,3.4c0,0.7,0.3,0.7,0.6,0.7L31.2,89.8z"/>
	<path class="st4" d="M31.4,89.8h-0.2l-7.7-0.4c-0.3,0-0.6,0-0.6-0.7c0.1-1.9,0.6-2.7,1.2-3.4c0.8-0.8,2-1.3,3.2-1.2h0.4
		c1.4,0.1,2.5,0.5,3.2,1.3c1.1,1.3,1,3,1,3.6V89v0.1v0.1v0v0.1v0v0v0v0l-0.1,0.1l-0.1,0.1h0l0,0l-0.1,0h0h0L31.4,89.8z M31.2,89.8
		h0.2h0h0l0.1,0l0,0h0l0.1-0.1l0.1-0.1v0v0v0v0v-0.1v0v-0.1v-0.1V89c0-0.6,0.1-2.4-1-3.6c-0.7-0.8-1.8-1.2-3.2-1.3
		c-1.3-0.1-2.6,0.3-3.5,1.2c-0.7,0.7-1.1,1.5-1.2,3.4c0,0.7,0.3,0.7,0.6,0.7L31.2,89.8z"/>
	<path id="path64741" class="st0" d="M31.6,68.8l0-0.1l0-0.1l0-0.1l0-0.1l0-0.1l0-0.1l0-0.1l0-0.1c0.2-0.5,0.9-2.4-1.3-3.2
		c-2-0.7-2.8,1.3-3,2c-0.2,0.4-0.2,0.6,0.3,0.8L31.6,68.8z"/>
	<path class="st4" d="M31.6,68.8L31.6,68.8l-3.7-1.3c-0.2-0.1-0.3-0.1-0.4-0.2c0-0.1,0-0.3,0.1-0.5l0,0c0.1-0.4,0.5-1.5,1.4-2
		c0.5-0.2,1.1-0.2,1.6,0c0.6,0.2,1.1,0.6,1.4,1.1c0.2,0.7,0.2,1.4-0.1,2.1l0,0.1l0,0.1L31.6,68.8z M29.8,64.6
		c-0.3,0-0.5,0.1-0.8,0.2c-0.9,0.4-1.3,1.6-1.4,2l0,0c-0.1,0.2-0.1,0.4-0.1,0.5s0.1,0.2,0.4,0.2l3.7,1.3l0.3-0.6l0-0.1l0-0.1
		c0.3-0.7,0.3-1.4,0.1-2.1c-0.3-0.5-0.8-1-1.4-1.1C30.3,64.7,30,64.6,29.8,64.6z"/>
	<polygon id="polygon64745" class="st0" points="37.5,60.2 33,59.8 35.9,63.3 	"/>
	<path class="st4" d="M35.9,63.4L33,59.7H33l4.6,0.4L35.9,63.4z M33.1,59.8l2.8,3.4l1.6-3L33.1,59.8z"/>
	<path id="path64749" class="st0" d="M41.1,51.9L41.1,51.9l0.1-0.2l0.1-0.1l0.1-0.1l0.1-0.1l0.1-0.1l0.1-0.1l0.1-0.1l0.1-0.1
		l0.1-0.1l0.1-0.1l0.1-0.1l0.1-0.1l0.1-0.1l0.1-0.1l0-0.1l0-0.1l0-0.2l0-0.1v-0.1v-0.1v-0.1v-0.1v-0.1l0-0.1v-0.1l0-0.1v-0.1l0-0.1
		l0-0.1l0-0.1l0-0.1l0-0.1l0-0.1L42,48.1L41.9,48L41.9,48l-0.1-0.1l-0.1-0.1l-0.1-0.1l-0.1-0.1c-1.6-1.2-2.8,0.3-3.2,0.8
		c-0.5,0.6-0.5,0.8-0.1,1.1L41.1,51.9z"/>
	<path class="st4" d="M41.1,51.9L41.1,51.9l-2.9-2.3c-0.2-0.1-0.2-0.2-0.3-0.3c0-0.1,0.1-0.4,0.4-0.7c0.4-0.6,1-1.1,1.8-1.3
		c0.5,0,1,0.1,1.4,0.5l0.2,0.2l0.1,0.1l0.1,0.1l0.1,0.1l0.1,0.1l0.1,0.1l0,0.1l0,0.1l0,0.1l0,0.1v0.1l0,0.1v0.1l0,0.1v0.1v0.1v0.1
		v0.1v0.1l0,0.1l0,0.2l0,0.1l0,0.1l-0.1,0.2l-0.2,0.4l-0.1,0.1L41.7,51l-0.1,0.1l-0.1,0.1l-0.1,0.1l-0.1,0.1l-0.1,0.1L41.1,51.9
		L41.1,51.9z M40.3,47.3h-0.2c-0.7,0.2-1.4,0.6-1.8,1.3c-0.3,0.4-0.4,0.6-0.4,0.7s0.1,0.2,0.3,0.3l2.9,2.3l0.1-0.1l0.1-0.2l0.1-0.1
		l0.1-0.1l0.1-0.1l0.1-0.1l0.1-0.1l0.1-0.3l0.1-0.1l0.2-0.4l0.1-0.1l0-0.1l0-0.1l0-0.2l0-0.1v-0.1v-0.1V49v-0.1v-0.1l0-0.1v-0.1
		l0-0.1v-0.1l0-0.1l0-0.1l0-0.1l0-0.1l-0.1-0.1L42,48.1L41.9,48l-0.1-0.1l-0.1-0.1l-0.2-0.2C41.2,47.4,40.8,47.3,40.3,47.3
		L40.3,47.3z"/>
	<path id="path64753" class="st0" d="M104.4,25.8l0-0.3v-0.3v-0.3v-0.3v-0.3v-0.3l0-0.3l0-0.2l0-0.2l-0.1-0.2l-0.1-0.2l-0.1-0.2
		l-0.1-0.2l-0.1-0.2l-0.1-0.2l-0.1-0.2l-0.1-0.1l-0.1-0.1l-0.1-0.1l-0.1-0.1l-0.1-0.1l-0.1-0.1l-0.1-0.1l-0.1-0.1l-0.1-0.1l-0.2-0.1
		l-0.1-0.1l-0.1,0l-0.1,0l-0.1,0l-0.2,0h-0.1c-1.5-0.2-3.3,0.9-3.7,4.3c-0.3,3.3,1.1,4.8,2.7,5S104.1,29.1,104.4,25.8z"/>
	<path class="st4" d="M101.1,30.2c-0.1,0-0.2,0-0.3,0c-0.2,0-0.4-0.1-0.5-0.1c0.2,0.1,0.4,0.1,0.5,0.1c0.2,0,0.3,0,0.5,0H101.1z
		 M102.6,29.7c0.2-0.1,0.3-0.3,0.5-0.4c0.1-0.1,0.2-0.2,0.3-0.3C103.2,29.2,102.9,29.5,102.6,29.7L102.6,29.7z M99.1,29.4
		c-0.2-0.2-0.3-0.3-0.4-0.5c-0.1-0.1-0.1-0.3-0.2-0.4c0.1,0.1,0.1,0.3,0.2,0.4C98.8,29,98.9,29.2,99.1,29.4L99.1,29.4z M104.3,26.6
		c0-0.2,0.1-0.5,0.1-0.8l0-0.3v-0.3v-0.3l0-0.6v-0.3l0-0.3l0-0.2l0-0.2l-0.1-0.4l-0.1-0.2l-0.1-0.2l-0.1-0.2l-0.1-0.2l-0.2-0.3
		l-0.1-0.1l-0.1-0.1l-0.1-0.1l-0.1-0.1l-0.1-0.1l-0.1-0.1l-0.1-0.1l-0.1-0.1l-0.1-0.1l-0.1-0.1l-0.1,0l-0.1,0l-0.1,0l-0.2,0h-0.1
		c-0.2,0-0.4,0-0.6,0c0.2,0,0.4,0,0.6,0h0.1l0.2,0l0.1,0l0.1,0l0.1,0l0.1,0.1l0.1,0.1l0.1,0.1l0.1,0.1l0.1,0.1l0.1,0.1l0.1,0.1
		l0.1,0.1l0.1,0.1l0.1,0.1l0.2,0.3l0.1,0.2l0.1,0.2l0.1,0.2l0.1,0.2l0.1,0.4l0,0.2l0,0.2l0,0.3v0.3l0,0.6v0.3v0.3l0,0.3
		C104.4,26.1,104.4,26.3,104.3,26.6L104.3,26.6z M98,26c0-0.3,0-0.5,0-0.8c0.2-1.7,0.7-3,1.6-3.7c0.1-0.1,0.2-0.2,0.4-0.3
		c-0.1,0.1-0.3,0.2-0.4,0.3c-0.9,0.7-1.4,2-1.6,3.7C98,25.4,98,25.7,98,26L98,26z"/>
	<path id="path64757" class="st0" d="M152.9,59.6l0.1,0.1l0.1,0.1l0.1,0.1l0.1,0.1l0.1,0.1l0.1,0.1l0.1,0.1l0.1,0.1l0.1,0.1l0.1,0.1
		l0.1,0.1l0.1,0.1l0.1,0.1l0.1,0.1l0.1,0.1l0.1,0.1l0.1,0.1l0.1,0.1l0.1,0.1l0.1,0.1l0.1,0.1l0.1,0.1l0.1,0h0.1h0.1h0.1h0.1h0.1h0.1
		h0.2h0.1h0.1l0.1,0h0.1l0.1,0l0.1,0l0.1,0l0.1,0l0.1,0c1.8-0.9,0.9-2.7,0.6-3.3c-0.4-0.7-0.5-0.8-0.9-0.6L152.9,59.6z"/>
	<path class="st4" d="M155.5,62L155.5,62h-0.2h-0.1h-0.1H155l-0.1,0l-0.1-0.1l-0.1-0.1l-0.2-0.1l-0.1-0.1l-0.1-0.1l-0.1-0.1
		l-0.1-0.1l-0.1-0.1l-0.1-0.1l-0.1-0.1l-0.1-0.1l-0.1-0.1l-0.1-0.1l-0.1-0.2l-0.1-0.1l-0.1-0.1l-0.1-0.1l-0.1-0.1l-0.1-0.1l-0.1-0.1
		l0,0l3.3-1.7c0.4-0.2,0.5-0.1,0.9,0.6c0.3,0.5,0.4,1,0.5,1.5c0,0.8-0.4,1.5-1.1,1.8l-0.2,0.1l-0.2,0.1l-0.1,0H156l-0.1,0l-0.2,0
		L155.5,62L155.5,62z M155.3,62L155.3,62h0.1h0.1h0.2l0.2,0l0.1,0h0.1l0.1,0l0.2-0.1l0.2-0.1c0.7-0.3,1.1-1,1.1-1.8
		c0-0.5-0.2-1-0.5-1.5c-0.4-0.7-0.5-0.8-0.9-0.6l-3.3,1.7l0.1,0.1l0.1,0.1L153,60l0.1,0.1l0.1,0.1l0.1,0.1l0.1,0.2l0.1,0.1l0.1,0.1
		l0.1,0.1l0.1,0.1l0.1,0.1l0.1,0.1l0.1,0.1l0.1,0.1l0.1,0.1l0.1,0.1l0.2,0.1l0.1,0.1l0.1,0.1l0.1,0h0.1h0.1h0.1L155.3,62z"/>
	<polygon id="polygon64761" class="st0" points="160.4,82.7 164.2,80.3 159.8,79.2 	"/>
	<path class="st4" d="M160.4,82.7L160.4,82.7l-0.6-3.6l4.5,1.1L160.4,82.7z M159.9,79.3l0.5,3.3l3.7-2.3L159.9,79.3z"/>
	<path id="path64765" class="st0" d="M160.1,108.8l0,0.1l0,0.1l0,0.1l0,0.1l0,0.1l0,0.1l0,0.1l0,0.2v0.1l0,0.1v0.2v0.1v0.2v0.5v0.1
		l0,0.2l0,0.1l0,0.1l0.1,0.1l0,0.1l0.1,0.1l0,0.1l0,0.1l0,0.1l0.1,0.1l0,0.1l0,0l0.1,0.1l0.1,0l0.1,0l0.1,0l0.1,0l0.1,0l0.1,0l0.1,0
		l0.1,0l0.1,0l0.1,0l0.1,0c1.9,0.6,2.5-1.3,2.7-1.9c0.2-0.4,0.1-0.8-0.3-1.1L160.1,108.8z"/>
	<path class="st4" d="M161.9,112.9c-0.2,0-0.5,0-0.7-0.1l-0.1,0l-0.2-0.1l-0.1,0l-0.1,0l-0.1-0.1l-0.1,0l-0.1,0l-0.1-0.1l-0.1-0.1
		l0-0.1l-0.1-0.1l0-0.1l0-0.1l0-0.1l-0.1-0.1l0-0.1l-0.1-0.1l-0.1-0.3l0-0.2V111v-0.5l0-0.5l0-0.1v-0.1l0-0.2l0-0.1l0-0.1l0.1-0.3
		l0-0.1l0.1-0.2l3.6,1.1c0.3,0.3,0.4,0.7,0.3,1.1c-0.1,0.3-0.4,1.4-1.2,1.8C162.5,112.8,162.2,112.9,161.9,112.9z M160.1,108.8
		l-0.1,0.2l0,0.1l-0.1,0.3l0,0.1l0,0.1l0,0.2v0.1l0,0.1l0,0.5v0.5v0.1l0,0.2l0.1,0.3l0.1,0.1l0,0.1l0.1,0.1l0,0.1l0,0.1l0,0.1
		l0.1,0.1l0,0.1l0.1,0.1l0.1,0.1l0.1,0l0.1,0l0.1,0.1l0.1,0l0.1,0l0.2,0.1l0.1,0c0.5,0.2,1,0.1,1.5-0.1c0.8-0.4,1.1-1.5,1.2-1.8
		c0.2-0.4,0.1-0.8-0.3-1.1L160.1,108.8z"/>
	<path id="path64769" class="st4" d="M74.4,33.6l-7.5,3.3l-0.1-0.3c0.9-0.5,1.1-0.7,0.5-1.7l-2.7-6.1c-0.4-1.1-0.7-1.1-1.6-0.8
		l-0.1-0.3l7.3-3.3l0.9,2l-0.3,0.2c-0.7-1.1-1.2-1.2-2.8-0.5l-1.9,0.8c-0.3,0.1-0.5,0.2-0.2,0.7l1.4,3.1l2.1-0.9
		c1.2-0.6,1.2-0.9,0.9-2l0.3-0.2l1.4,3.2l-0.3,0.2c-0.7-1-1-1.1-2.1-0.6l-2.1,0.9l1.5,3.4c0.3,0.6,0.3,0.6,2.3-0.3
		c1.7-0.8,2.2-1.5,2.2-3.2l0.4-0.2L74.4,33.6z"/>
	<path class="st4" d="M66.9,36.9l-0.1-0.3c0.5-0.3,0.7-0.5,0.8-0.7c0-0.4-0.1-0.7-0.3-1l-2.7-6.1c-0.2-0.5-0.3-0.8-0.5-0.9
		c-0.2-0.1-0.6,0-1.1,0.1l-0.1-0.3l7.3-3.3l0.9,2l-0.3,0.2c-0.4-0.6-0.7-0.9-1.1-0.9c-0.1,0-0.1,0-0.2,0c-0.5,0.1-1,0.2-1.5,0.5
		L66.1,27c-0.3,0.1-0.5,0.2-0.2,0.7l1.4,3.1l2.1-0.9c1.2-0.6,1.2-0.9,0.9-2l0.3-0.2l1.4,3.2L71.7,31c-0.3-0.5-0.6-0.8-0.9-0.9
		c-0.4-0.1-0.9,0-1.2,0.3l-2.1,0.9l1.5,3.4c0.3,0.5,0.3,0.6,2.3-0.3c0.3-0.1,0.6-0.3,0.9-0.5c-0.3,0.2-0.6,0.3-0.9,0.5
		c-2.1,0.9-2.1,0.9-2.3,0.3l-1.5-3.5l2.1-0.9c0.4-0.2,0.8-0.3,1.2-0.3c0.3,0.1,0.6,0.4,0.9,0.9l0.3-0.2l-1.4-3.2l-0.3,0.2
		c0.3,1.1,0.3,1.4-0.9,2l-2.1,0.9l-1.4-3.1c-0.2-0.5-0.1-0.5,0.2-0.7l0,0l1.9-0.8c0.7-0.3,1.3-0.5,1.7-0.4c0.4,0.1,0.7,0.3,1.1,0.9
		l0.3-0.2l-0.9-2l-7.3,3.3l0.1,0.3c0.5-0.2,0.8-0.3,1.1-0.1c0.3,0.1,0.4,0.4,0.5,0.9l2.8,6.1c0.3,0.5,0.4,0.8,0.3,1
		c-0.1,0.2-0.4,0.5-0.8,0.7L66.9,36.9l7.5-3.3l-0.4-2.6l-0.4,0.2c0,0.3,0,0.5,0,0.8c0-0.3,0-0.5,0-0.8l0.4-0.2l0.4,2.6l0,0
		L66.9,36.9z"/>
	<path id="path64773" class="st4" d="M77.3,163.3L77.3,163.3h0.1h0.1h0.1h0.1h0.1h0.1h0.1H78h0.1h0.1h0.1h0h0.1l0,0h0.1l0,0l0,0l0,0
		l0,0l0,0v0l0,0v0l0,0v0v0l0,0v0v0v0v0v0v0v0v0v0v0v-0.1l1.5-6.7c0.1-0.3,0.2-0.7-0.3-0.8c-0.2,0-0.2,0-1.1,0.1l0.1-0.2l3-0.7
		l0.1,0.1l-1.8,8.9c-0.2,0.7,0.1,0.9,1.2,1.2l0,0.2l-4.1-0.9L77.3,163.3z"/>
	<path class="st4" d="M81.3,164.4l-4.1-0.9l0-0.2l0.1,0h0.1h0.1h0.1h0.1h0.1h0.1H78h0.1h0.1h0.1h0h0.1l0,0h0.1l0.1-0.1l0,0l0,0l0,0
		v0l0,0v0l0,0v0v0l0,0l0-0.1l0-0.1v0v0v0l0-0.1v-0.1l1.5-6.7v0c0.1-0.3,0.1-0.7-0.3-0.8c-0.2,0-0.2,0-1.1,0.1l0.1-0.2l3-0.7l0.1,0.1
		l-1.9,8.9c-0.1,0.2-0.1,0.5,0,0.7c0.1,0.2,0.5,0.4,1.2,0.5L81.3,164.4z M77.3,163.3l0,0.2l4.1,0.9l0-0.2c-0.7-0.1-1-0.3-1.2-0.5
		c-0.1-0.2-0.1-0.4,0-0.7l2-8.9l-0.1-0.1l-3,0.7l-0.1,0.2c0.9-0.2,0.9-0.2,1.1-0.1c0.5,0.1,0.4,0.5,0.3,0.8v0l-1.5,6.7v0.1l0,0.1v0
		v0v0l0,0.1l0,0.1l0,0v0v0l0,0v0l0,0v0l0,0l0,0l0,0l-0.1,0.1h-0.1l0,0h-0.1h0h-0.1h-0.1h-0.1H78H78h-0.1h-0.1h-0.1h-0.1h-0.1
		L77.3,163.3z"/>
	<path id="path64777" class="st4" d="M93.7,156l-3.9,9.6l-1-0.1l3.6-8.8l-3.3-0.2c-1-0.1-1.3,0.3-1.8,1.1l-0.2-0.1l0.7-1.5l0.3-0.6
		l5.6,0.4L93.7,156z"/>
	<path class="st4" d="M89.8,165.6l-1-0.1l3.6-8.8l-3.3-0.2H89c-0.8,0-1.1,0.4-1.6,1.1v0l-0.2-0.1l0.7-1.5l0.3-0.6l5.6,0.4v0.2
		L89.8,165.6z M88.9,156.5h0.2l3.3,0.2l-3.6,8.8l1,0.1l3.9-9.6v-0.2l-5.6-0.4l-0.3,0.6l-0.7,1.5l0.2,0.1v0
		C87.9,156.9,88.1,156.5,88.9,156.5z"/>
	<path id="path64781" class="st4" d="M108.8,164.5l0.2-0.1l0.1-0.1l0.2-0.1l0.1-0.1l0.1-0.1l0.1-0.1l0.1-0.1l0.1-0.1l0.1-0.1
		l0.1-0.1l0.2-0.2l0.2-0.2l0.2-0.2l0.2-0.2l0.2-0.2l0.2-0.2l0.1-0.2l0.1-0.2l0.1-0.2l0.1-0.2l0.1-0.2l0.1-0.2l0.1-0.2l0.1-0.2l0-0.2
		l0-0.2l0-0.2l0-0.2V160l0-0.1v-0.1v-0.1v-0.1v-0.3l0,0c-0.5,0.7-1.2,1.1-2,1.3c-2,0.5-3.1-1.1-3.3-2.3c-0.5-2,0.3-3.8,2.3-4.3
		c1.8-0.4,3.6,0.9,4.2,3.4c0.7,3.1-0.8,6.4-4.5,7.5L108.8,164.5z"/>
	<path class="st4" d="M108.9,164.8l-0.1-0.3l0,0l0.2-0.1l0.1-0.1l0.3-0.2l0.1-0.1l0.1-0.1l0.1-0.1l0.4-0.3l0.2-0.2l0.2-0.2l0.2-0.2
		l0.2-0.2l0.2-0.2l0.2-0.2l0.1-0.2l0.1-0.2l0.1-0.2l0.1-0.2l0.1-0.2l0.1-0.2l0.1-0.2l0.1-0.2l0-0.2l0.1-0.4l0-0.2V160l0-0.1v-0.1
		v-0.1v-0.1v-0.3l0,0c-0.5,0.7-1.2,1.1-2,1.3c-0.7,0.2-1.4,0.1-2-0.3c-0.3-0.2-0.5-0.4-0.7-0.6c0.2,0.3,0.4,0.5,0.7,0.6
		c0.6,0.4,1.3,0.5,2,0.3c0.8-0.2,1.5-0.7,2-1.3l0,0v0.3v0.1v0.1v0.1l0,0.1v0.2l0,0.2l-0.1,0.4l0,0.2l-0.1,0.2l-0.1,0.2l-0.1,0.2
		l-0.1,0.2l-0.1,0.2l-0.1,0.2l-0.1,0.2l-0.1,0.2l-0.2,0.2l-0.2,0.2l-0.2,0.2l-0.2,0.2l-0.2,0.2l-0.2,0.2l-0.4,0.3l-0.1,0.1l-0.1,0.1
		l-0.1,0.1l-0.3,0.1l-0.1,0.1l-0.2,0.1L108.9,164.8c1.8-0.5,3.3-1.7,4.1-3.3c-0.1,0.1-0.1,0.2-0.2,0.4
		C112,163.3,110.6,164.4,108.9,164.8z M107,158.5c0-0.1-0.1-0.2-0.1-0.3c-0.1-0.3-0.1-0.5-0.1-0.8c0,0.3,0.1,0.5,0.1,0.8
		C107,158.3,107,158.4,107,158.5z M113.5,157.7c0-0.2-0.1-0.3-0.1-0.5c-0.2-1.2-0.9-2.3-2-3c-0.7-0.4-1.5-0.6-2.2-0.4
		c-0.8,0.2-1.5,0.6-1.9,1.3c-0.1,0.2-0.2,0.4-0.3,0.6c0.1-0.2,0.2-0.4,0.3-0.6c0.4-0.7,1.1-1.2,1.9-1.3c0.8-0.2,1.6-0.1,2.2,0.4
		c1,0.7,1.7,1.8,2,3C113.4,157.4,113.5,157.6,113.5,157.7L113.5,157.7z"/>
	<path id="path64785" class="st4" d="M99.4,160.7l-0.1-0.1l-0.1-0.1l-0.1-0.1l-0.1-0.1l-0.1-0.1l-0.1-0.1l-0.1-0.1l-0.1-0.1
		l-0.1-0.1l-0.1-0.1l-0.1-0.1l-0.1-0.1l-0.1-0.1l-0.1-0.1l-0.1-0.1l-0.1-0.1l-0.1-0.1l-0.1-0.1l-0.1-0.1l0-0.1l0-0.1l0-0.1l0-0.1
		l0-0.1l0-0.1l0-0.1l0-0.1v-0.1l0-0.1v-0.1v-0.1V158c-0.1-1.5,1.3-2.5,2.6-2.6c1.7-0.1,2.7,0.8,2.8,1.9c0.1,1.4-1,2.1-1.8,2.6
		c2.1,1.3,2.5,2.1,2.6,3.2c0.1,0.8-0.3,2.5-2.8,2.7c-1.9,0.2-3-1-3.1-2.2C97.5,162.3,98.1,161.8,99.4,160.7z"/>
	<path class="st4" d="M100.3,165.8c-0.7,0-1.4-0.2-1.9-0.7c-0.5-0.4-0.8-0.9-0.8-1.5c0-0.2,0-0.4,0-0.7c0,0.2,0,0.4,0,0.7
		c0.1,0.6,0.3,1.2,0.8,1.5c0.6,0.5,1.5,0.7,2.3,0.6c0.2,0,0.4,0,0.6-0.1c-0.2,0-0.4,0.1-0.6,0.1
		C100.5,165.8,100.4,165.8,100.3,165.8z M102.8,165c0.1-0.1,0.2-0.2,0.2-0.3c0.3-0.5,0.5-1,0.5-1.6c0-0.5-0.2-0.9-0.4-1.3
		c0.3,0.4,0.4,0.9,0.4,1.3c0,0.6-0.1,1.1-0.5,1.6C103,164.8,102.9,164.9,102.8,165z M98.7,161.3c0.2-0.2,0.4-0.4,0.7-0.6l-0.1-0.1
		l-0.1-0.1l-0.1-0.1l-0.1-0.1l-0.1-0.1l-0.1-0.1l-0.1-0.1l-0.1-0.1l-0.1-0.1l-0.2-0.2l-0.1-0.1l-0.1-0.1l-0.1-0.1l-0.1-0.1l-0.2-0.2
		l0-0.1l-0.1-0.1l0-0.1l0-0.1l0-0.1l-0.1-0.2v-0.1l0-0.1l-0.1-0.2V158c-0.1-0.7,0.2-1.4,0.8-1.8c0.2-0.1,0.4-0.3,0.6-0.4
		c-0.9,0.4-1.4,1.3-1.3,2.2v0.1l0,0.2l0,0.1v0.1l0.1,0.2l0,0.1l0,0.1l0,0.1l0.1,0.1l0,0.1l0.2,0.2l0.1,0.1l0.1,0.1l0.1,0.1l0.1,0.1
		l0.2,0.2l0.1,0.1l0.1,0.1l0.1,0.1l0.1,0.1l0.1,0.1l0.1,0.1l0.1,0.1l0.1,0.1l0.1,0.1l0,0C99.1,160.9,98.9,161.1,98.7,161.3
		L98.7,161.3z M101.8,160.6c-0.3-0.2-0.6-0.4-0.9-0.6l0.4-0.2c-0.1,0.1-0.2,0.2-0.4,0.2C101.2,160.2,101.5,160.4,101.8,160.6
		L101.8,160.6z M102.5,158.5c0.2-0.3,0.2-0.7,0.2-1.1c0-0.6-0.3-1.1-0.8-1.4c-0.5-0.3-1.1-0.5-1.7-0.5h-0.3c-0.2,0-0.5,0.1-0.7,0.1
		c0.2-0.1,0.5-0.1,0.7-0.1c0.1,0,0.2,0,0.3,0c0.6,0,1.2,0.2,1.7,0.5c0.5,0.3,0.8,0.9,0.8,1.4C102.7,157.7,102.7,158.1,102.5,158.5
		L102.5,158.5z"/>
	<path id="path64789" class="st0" d="M112,157.6L112,157.6l0-0.2v-0.1l0-0.1l0-0.1l0-0.1l0-0.1l0-0.1l-0.1-0.1l0-0.2l-0.1-0.1
		l-0.1-0.2l-0.1-0.2l-0.1-0.2l-0.1-0.1l-0.1-0.1l-0.1-0.2l-0.1-0.1l-0.1-0.1l-0.1-0.1l-0.1-0.1l-0.1-0.1l-0.1-0.1l-0.1,0l-0.1,0
		l-0.1,0l-0.1,0l-0.1,0l-0.1,0l-0.1,0H110l-0.1,0h-0.1h-0.1h-0.3h-0.1h-0.1h-0.1c-1.2,0.3-1.3,1.7-1,2.9c0.3,1.1,1,2.8,2.5,2.4
		c0.5-0.2,1-0.4,1.3-0.9c0.1-0.2,0.2-0.4,0.1-0.6L112,157.6z"/>
	<path class="st4" d="M110.3,159.7c-0.3,0-0.6-0.1-0.8-0.2c-0.8-0.5-1.2-1.7-1.3-2.2c-0.1-0.6-0.3-1.7,0.1-2.4
		c0.2-0.3,0.5-0.5,0.8-0.6l0.3,0h0.3h0.1h0.1l0.1,0h0.1l0.2,0.1l0.1,0l0.1,0l0.1,0l0.1,0l0.1,0l0.1,0.1l0.1,0.1l0.2,0.2l0.2,0.3
		l0.1,0.2l0.1,0.1l0.1,0.3l0.1,0.2l0.1,0.3l0,0.2l0.1,0.1l0,0.1l0,0.1l0,0.1l0.1,0.2v0.1l0,0.1v0.1l0.1,0.6c0.1,0.2,0.1,0.5-0.1,0.6
		c-0.3,0.4-0.8,0.7-1.3,0.9C110.6,159.7,110.4,159.7,110.3,159.7z M109.4,154.3l-0.3,0c-0.4,0.1-0.7,0.3-0.8,0.6
		c-0.4,0.7-0.3,1.8-0.1,2.4c0.1,0.5,0.5,1.7,1.3,2.2c0.4,0.2,0.8,0.3,1.3,0.2c0.5-0.2,1-0.4,1.3-0.9c0.1-0.2,0.2-0.4,0.1-0.6
		l-0.1-0.6v-0.1l0-0.1v-0.1l-0.1-0.2l0-0.1l0-0.1l0-0.1l-0.1-0.1l0-0.2l-0.1-0.3l-0.1-0.2l-0.1-0.3l-0.1-0.1l-0.1-0.2l-0.2-0.3
		l-0.2-0.2l-0.1-0.1l-0.1-0.1l-0.1,0l-0.1,0l-0.1,0l-0.1,0l-0.1,0l-0.2-0.1H110l-0.1,0h-0.1h-0.1L109.4,154.3z"/>
	<path id="path64793" class="st0" d="M98.9,163.3v0.1v0.1v0.1l0,0.1v0.1l0,0.1l0,0.1l0,0.1l0,0.1l0,0.1l0,0.1l0,0.1l0.1,0.1l0.1,0.1
		l0.1,0.1l0.1,0.1l0.1,0.1l0.1,0.1l0.1,0.1l0.1,0l0.1,0.1l0.1,0l0.1,0l0.1,0l0.1,0l0.1,0h0.1h0.1h0.1h0.3c0.9,0,1.6-0.8,1.6-1.6
		c0-0.1,0-0.1,0-0.2c-0.1-1.1-0.8-1.5-2.6-2.6C99.2,161.4,98.8,162.3,98.9,163.3z"/>
	<path class="st4" d="M101,165.3h-0.3l-0.2,0h-0.1l-0.1,0l-0.1,0l-0.1,0l-0.1,0l-0.1,0l-0.1-0.1l-0.1,0l-0.1-0.1l-0.1-0.1l-0.1-0.1
		l-0.2-0.3l-0.2-0.4l0-0.1l0-0.1l0-0.1v-0.1l0-0.1l0-0.3c-0.1-0.9,0.3-1.9,1-2.5l0,0c1.8,1.1,2.5,1.5,2.6,2.6
		c0.1,0.5-0.1,0.9-0.4,1.3C101.8,165,101.4,165.2,101,165.3z M98.9,163.3l0,0.3l0,0.1v0.1l0,0.1l0,0.1l0,0.1l0.2,0.4l0.2,0.3
		l0.1,0.1l0.1,0.1l0.1,0.1l0.1,0l0.1,0.1l0.1,0l0.1,0l0.1,0l0.1,0l0.1,0h0.1l0.2,0h0.3c0.9,0,1.6-0.8,1.6-1.7c0-0.1,0-0.1,0-0.2
		c-0.1-1.1-0.8-1.5-2.6-2.6l0,0C99.2,161.4,98.8,162.3,98.9,163.3L98.9,163.3z"/>
	<path id="path64797" class="st0" d="M100.6,159.6l0.1-0.1l0.1-0.1l0.1-0.1l0.1-0.1l0.1,0l0.1-0.1l0-0.1l0.1-0.1l0.1-0.1l0-0.1
		l0-0.1l0.1-0.1l0-0.1l0-0.1l0-0.1l0-0.1l0-0.1l0-0.1l0-0.1l0-0.1l0-0.1v-0.1v-0.1v-0.1v-0.5c0-0.9-0.8-1.6-1.6-1.5
		c-0.1,0-0.1,0-0.2,0c-0.8,0-1.5,0.7-1.5,1.5c0,0,0,0.1,0,0.1C98.6,158.5,100,159.3,100.6,159.6z"/>
	<path class="st4" d="M100.6,159.6L100.6,159.6c-0.5-0.3-2-1-2.1-2.2c0-0.4,0.1-0.8,0.3-1.1c0.3-0.3,0.7-0.5,1.2-0.5
		c0.5-0.1,0.9,0.1,1.3,0.4c0.3,0.3,0.5,0.7,0.5,1.1v0.5l0,0.3l-0.1,0.4l0,0.1l0,0.1l-0.1,0.2l-0.1,0.1l0,0.1l0,0.1l-0.1,0.1l0,0.1
		l-0.1,0.1l-0.1,0l-0.1,0.1l-0.1,0.1l-0.1,0.1L100.6,159.6z M100.2,155.7H100c-0.4,0-0.9,0.2-1.2,0.5c-0.3,0.3-0.4,0.7-0.3,1.1
		c0.1,1.2,1.5,1.9,2.1,2.2l0.1-0.1l0.1-0.1l0.1-0.1l0.1-0.1l0.1,0l0.1-0.1l0-0.1l0.1-0.1l0-0.1l0-0.1l0.1-0.1l0.1-0.2l0-0.1l0-0.1
		l0.1-0.4l0-0.3v-0.5c0-0.4-0.2-0.9-0.5-1.1C101,155.8,100.6,155.7,100.2,155.7z"/>
	<polygon id="polygon64801" class="st4" points="55.9,117.1 56.4,115 54.6,113.9 56.8,113.7 57.3,111.6 58.1,113.6 60.3,113.5 
		58.6,114.9 59.4,116.9 57.6,115.7 	"/>
	<polygon id="polygon64803" class="st4" points="62.5,111.8 63,109.7 61.2,108.6 63.3,108.4 63.9,106.3 64.7,108.3 66.8,108.2 
		65.2,109.6 66,111.6 64.1,110.4 	"/>
	<polygon id="polygon64805" class="st4" points="69.1,107.3 69.6,105.2 67.8,104 70,103.9 70.5,101.8 71.3,103.8 73.4,103.7 
		71.8,105 72.6,107 70.7,105.9 	"/>
	<polygon id="polygon64807" class="st4" points="75.4,102.8 75.9,100.7 74.1,99.5 76.3,99.4 76.8,97.3 77.6,99.3 79.7,99.2 
		78.1,100.6 78.9,102.6 77.1,101.4 	"/>
	<polygon id="polygon64809" class="st4" points="81.4,98.3 81.9,96.2 80.1,95.1 82.3,94.9 82.8,92.8 83.6,94.8 85.8,94.7 84.1,96.1 
		84.9,98.1 83.1,96.9 	"/>
	<polygon id="polygon64811" class="st4" points="87.4,93.8 87.9,91.7 86.1,90.6 88.3,90.4 88.8,88.3 89.6,90.4 91.7,90.2 90.1,91.6 
		90.9,93.6 89.1,92.4 	"/>
	<polygon id="polygon64813" class="st4" points="93.1,89.7 93.6,87.6 91.8,86.4 94,86.3 94.5,84.2 95.3,86.2 97.4,86.1 95.8,87.5 
		96.6,89.5 94.8,88.3 	"/>
	<polygon id="polygon64815" class="st4" points="99.1,94 99.6,91.9 97.7,90.8 99.9,90.6 100.4,88.5 101.2,90.5 103.4,90.4 
		101.7,91.8 102.5,93.8 100.7,92.6 	"/>
	<polygon id="polygon64817" class="st4" points="105.3,98.3 105.8,96.2 104,95.1 106.2,94.9 106.7,92.9 107.5,94.9 109.6,94.7 
		108,96.1 108.8,98.1 107,97 	"/>
	<polygon id="polygon64819" class="st4" points="111.3,103.6 111.8,101.5 110,100.3 112.2,100.2 112.7,98.1 113.5,100.1 115.7,100 
		114,101.3 114.8,103.4 113,102.2 	"/>
	<polygon id="polygon64821" class="st4" points="117.6,107.9 118.1,105.8 116.3,104.7 118.4,104.5 118.9,102.4 119.7,104.4 
		121.9,104.3 120.2,105.7 121,107.7 119.2,106.5 	"/>
	<polygon id="polygon64823" class="st4" points="123.8,112.2 124.3,110.1 122.5,109 124.7,108.8 125.2,106.7 126,108.7 128.2,108.6 
		126.5,110 127.3,112 125.5,110.8 	"/>
	<polygon id="polygon64825" class="st4" points="130.5,117.8 131,115.7 129.2,114.5 131.3,114.4 131.9,112.3 132.6,114.3 
		134.8,114.1 133.1,115.5 133.9,117.5 132.1,116.4 	"/>
</g>
</svg>
