<?xml version="1.0" encoding="utf-8"?>
<!-- Generator: Adobe Illustrator 25.2.3, SVG Export Plug-In . SVG Version: 6.00 Build 0)  -->
<svg version="1.1" id="Layer_1" xmlns="http://www.w3.org/2000/svg" xmlns:xlink="http://www.w3.org/1999/xlink" x="0px" y="0px"
	 viewBox="0 0 216.9 324.9" style="enable-background:new 0 0 216.9 324.9;" xml:space="preserve">
<style type="text/css">
	.st0{fill:#F2A74E;}
	.st1{fill:#F9B65D;}
	.st2{fill:#B7B5AB;}
	.st3{fill:#F4F0DC;}
	.st4{fill:#53AA5B;}
</style>
<g>
	<path class="st0" d="M108.4,0v324.9c0,0,108.4-156.6,108.4-216.4C216.8,48.5,168.3,0,108.4,0z"/>
	<path class="st1" d="M0,108.4c0,59.9,108.4,216.4,108.4,216.4V0C48.5,0,0,48.5,0,108.4z"/>
	<circle class="st2" cx="112.4" cy="111" r="85"/>
	<circle class="st3" cx="108.4" cy="106" r="85"/>
	<path class="st4" d="M101.6,135c0-1.8-0.1-3.2-0.1-4.1c-0.1-4.7,0.7-9.4,2.3-13.8c1.3-3.2,3.1-6.2,5.4-8.8c3-3.4,6.3-6.5,9.8-9.5
		c4.7-4.1,7.8-7.5,9.2-9.9c1.4-2.5,2.1-5.2,2.1-8.1c0-5.3-2.3-10.3-6.2-13.9c-4-4-9.5-6.1-15.2-6c-5.4-0.2-10.6,1.8-14.5,5.4
		c-3.9,3.6-6.4,9.3-7.6,17l-14-1.7c1.3-10.3,5-18.2,11.2-23.7s14.4-8.2,24.6-8.2c10.8,0,19.5,2.9,25.9,8.8s9.7,13,9.7,21.4
		c0,4.7-1.1,9.3-3.4,13.4c-2.3,4.1-6.7,9-13.3,14.9c-4.4,3.9-7.3,6.8-8.7,8.7c-1.4,1.9-2.4,4.1-3,6.4c-0.7,2.4-1,6.3-1.1,11.8
		L101.6,135z M100.7,162.2v-15.4h15.5v15.5L100.7,162.2z"/>
</g>
</svg>
