<?xml version="1.0" encoding="utf-8"?>
<!-- Generator: Adobe Illustrator 25.2.3, SVG Export Plug-In . SVG Version: 6.00 Build 0)  -->
<svg version="1.1" id="Layer_1" xmlns="http://www.w3.org/2000/svg" xmlns:xlink="http://www.w3.org/1999/xlink" x="0px" y="0px"
	 viewBox="0 0 369.9 369.8" style="enable-background:new 0 0 369.9 369.8;" xml:space="preserve">
<style type="text/css">
	.st0{fill:#754725;}
	.st1{fill:#E03838;}
	.st2{fill:#EFEFED;}
	.st3{fill:#D8D8D8;}
	.st4{fill:#4D99CE;}
	.st5{fill:#EF9F20;}
	.st6{fill:#4389AF;}
	.st7{fill:#C13434;}
	.st8{fill:#A32828;}
	.st9{fill:#C43030;}
	.st10{fill:#3F81A5;}
	.st11{fill:#346C84;}
	.st12{fill:#44443F;}
	.st13{fill:#353533;}
</style>
<path class="st0" d="M285.2,149.4c-5.9,0.9-11.8,2.1-17.2,4.8c-7,0.7-13.6,2.8-20.1,5.2c-6.1,0.6-11.8,2.9-17.7,4.4
	c-6.3,1.9-12.9,2.6-19,5.5c-6.1,0.6-11.9,2.6-17.7,4.3c-6.6,1.6-13.3,3-19.7,5.6c-5.6,0.4-10.8,2.8-16.3,3.8c-2.8,0.5-5-0.1-5.8-3.1
	s1-4.1,3.6-4.9c5.2-1.5,10.4-3.1,15.6-4.7c6.7-1.7,13.4-3.2,19.8-5.8c6.1-1.1,12-2.8,17.8-5l18.9-5.1c5.7-1.9,12-2.2,17.2-5.6
	c7-0.5,13.5-3,20-5.2c6-1.2,11.9-2.8,17.7-5c6.9-1.7,13.9-3,20.3-6.2c1.7,0.5,3.2-0.2,4.8-0.7c14.6-4.1,29.1-8.1,43.6-12.1
	c6.8,1.7,7.6,5.2,2.7,12.1c-1.3-0.1-2.6,0-3.9,0.2c-14.7,3.9-29.3,7.8-44,11.7C298.9,145.5,291.8,146.6,285.2,149.4z"/>
<path class="st1" d="M350.9,119.6c-14.5,4-29.1,8.1-43.6,12.1c-1.6,0.4-3.1,1.1-4.8,0.7c-1.2-3.4-2.1-7-3.6-10.3
	c-1.2-2.7-0.7-4.1,2-5.3c13.5-6.2,27-12.4,40.5-18.8c2.5-1.2,3.4-0.6,4,2C347.1,106.6,349.1,113.1,350.9,119.6z"/>
<path class="st1" d="M305.7,143.6c14.6-3.9,29.3-7.9,44-11.7c1.3-0.2,2.6-0.3,3.9-0.2c1.1,6,2.1,12,3.2,18.1
	c0.4,2.3,0.6,3.9-2.8,4.1c-14.2,0.6-28.4,1.6-42.6,2.6c-2.6,0.2-3.4-0.8-3.8-3.1C307.1,150,306.4,146.8,305.7,143.6z"/>
<path class="st2" d="M264.5,143.6c-6.5,2.2-13,4.7-20,5.2c-0.2-0.8-0.4-1.6-0.7-2.4c-16-43.8-64.7-70.4-110.4-60.4
	c-44.2,9.7-76.7,48.1-77.5,91.8c-0.6,32.5,11.6,59.3,36.8,79.6c21.8,17.5,47.1,23.7,74.7,20c19-2.6,35.4-10.8,49.9-23
	c0,1.5,1.3,2.2,1.9,3.3c2.8,4.7,8,7.5,10.1,12.7c-14.1,13.1-30.8,21.2-49.3,25.6c-65.5,15.5-130.8-27.3-143-93.5
	C25,136.9,70.5,74.1,137,64.7c54.9-7.8,108.8,24.8,127.1,76.9C264.3,142.2,264.4,142.9,264.5,143.6z"/>
<path class="st3" d="M229.5,270.4c-2.1-5.2-7.3-8-10.1-12.7c-0.7-1.1-1.9-1.8-1.9-3.3c10.1-9.1,18.3-20.2,24.1-32.6
	c4.5-9.7,6.7-20,8.6-30.5l20,1.1c-1.1,18.1-7,34.6-16.4,50C247.2,253.1,239.7,262.9,229.5,270.4z"/>
<path class="st2" d="M270.1,192.4l-20-1.1c0.4-10.7,0.4-21.4-2.3-32c6.6-2.4,13.2-4.5,20.2-5.2c1.4,8.9,3.1,17.8,3.1,27
	C271.2,184.9,270.9,188.7,270.1,192.4z"/>
<path class="st4" d="M205.4,240.2c-23.4,20-50,25.5-78.9,15.2S80.6,223.9,75.2,194c-7.6-42,22-83.2,64.1-90.3
	c38.3-6.5,74.3,14.2,88,50.7l-18.9,5.1c-1-2.1-2-4.2-3-6.3c-11.8-22.9-39.2-35.7-64.3-30.2c-39.4,8.8-59.2,51.2-40.1,86.7
	c11.1,20.6,29.5,30.7,52.6,31.1c14.5,0.2,27.5-5.2,38.8-14.6c1.2,1.7,2.2,3.8,3.8,5.1C199.5,233.9,200.8,238.7,205.4,240.2z"/>
<path class="st1" d="M179.6,212.4c-21.9,20.4-59.5,8.2-66.5-21.6c-3.8-16.5,2.8-33.6,16.7-43.2c13.9-9.7,32.3-9.8,46.3-0.3
	c6.4,4.2,11.5,10.2,14.6,17.3c-6.4,2.6-13.1,4.1-19.8,5.8c-5.7-9.5-17.2-12.8-27.3-7.8c-9.6,4.8-13.9,16.9-9.8,26.8
	c4.8,11.7,20.2,18.2,33.7,7.8C170.5,203,176.1,206.8,179.6,212.4z"/>
<path class="st5" d="M167.4,197.1c-13.5,10.4-28.9,3.9-33.7-7.8c-4.1-9.9,0.3-22,9.8-26.8c10.1-5,21.6-1.7,27.3,7.8
	c-5.2,1.6-10.4,3.2-15.6,4.7c-2.6,0.7-4.3,2-3.6,4.9s3,3.6,5.8,3.1c5.5-1.1,10.7-3.4,16.3-3.8l0.5,4.4
	C173.3,188.6,170.9,193.4,167.4,197.1z"/>
<path class="st4" d="M212.5,187.4c-0.2-6.1,0.5-12.2-1.3-18.2c6-2.9,12.7-3.6,19-5.5c1.2,8.2,3.3,16.4,1.2,24.7
	C225,189.1,218.8,187.1,212.5,187.4z"/>
<path class="st1" d="M174.3,183.5l-0.5-4.4c6.4-2.6,13.1-4,19.7-5.6c0.9,4,1.5,7.9,0.3,11.9C187.4,184.3,180.8,183.6,174.3,183.5z"
	/>
<path class="st6" d="M212.5,187.4c6.3-0.3,12.6,1.7,18.9,1c-1.4,20.9-10.6,38-26,51.8c-4.5-1.5-5.8-6.3-9.2-9.1
	c-1.6-1.3-2.5-3.3-3.8-5.1C203.7,215.6,210.2,202.6,212.5,187.4z"/>
<path class="st7" d="M174.3,183.5c6.5,0.1,13.1,0.8,19.5,2c-0.6,10.6-5.8,20.4-14.2,26.9c-3.4-5.6-9.1-9.4-12.2-15.3
	C170.9,193.4,173.3,188.6,174.3,183.5z"/>
<path class="st8" d="M212.5,187.4c0-0.1,0-0.2,0-0.4l-18.6-1.7c0,0.1,0,0.1-0.1,0.2c-0.6,10.4-5.6,20.1-13.8,26.6l12.1,14.3l0.3-0.2
	C203.7,215.6,210.2,202.6,212.5,187.4z"/>
<path class="st9" d="M179.6,212.4c-21.9,20.4-59.5,8.2-66.5-21.6c-3.8-16.5,2.8-33.6,16.7-43.2c13.9-9.7,32.3-9.8,46.3-0.3
	c6.4,4.2,11.5,10.2,14.6,17.3c6.1-1.1,12-2.8,17.8-5c-1-2.1-2-4.2-3-6.3c-11.8-22.9-39.2-35.7-64.3-30.2
	c-39.4,8.8-59.2,51.2-40.1,86.7c11.1,20.6,29.5,30.7,52.6,31.1c14.4,0.2,27.3-5.1,38.5-14.4L180,212.1L179.6,212.4z"/>
<path class="st9" d="M211.2,169.2c-6.1,0.6-11.9,2.6-17.7,4.3c0.9,3.9,1.5,7.8,0.4,11.8l18.6,1.7
	C212.3,181.1,212.9,175.1,211.2,169.2z"/>
<path class="st10" d="M126.5,255.4c-28.8-10.3-45.9-31.6-51.3-61.4c-7.6-42,22-83.2,64.1-90.3c38.3-6.5,74.3,14.2,88,50.7
	c5.7-1.9,12-2.2,17.2-5.6c-0.2-0.8-0.4-1.6-0.7-2.4c-16-43.8-64.7-70.4-110.4-60.4c-44.2,9.7-76.7,48.1-77.5,91.8
	c-0.6,32.5,11.6,59.3,36.8,79.6c21.8,17.5,47.1,23.7,74.7,20c18.4-2.5,34.4-10.4,48.6-22l-11.9-14.2
	C181.1,260.4,154.9,265.6,126.5,255.4z"/>
<path class="st10" d="M247.9,159.4c-6.1,0.6-11.8,2.9-17.7,4.4c1.2,8.2,3.3,16.3,1.2,24.6l18.8,1.6
	C250.6,179.6,250.4,169.4,247.9,159.4z"/>
<path class="st11" d="M241.5,221.8c4.5-9.7,6.7-20,8.6-30.5l0.1-1.4l-18.8-1.6c0,0,0,0.1,0,0.1c-1.4,20.9-10.6,38-26,51.8l-1.1,0.9
	l11.9,14.2c0.4-0.3,0.8-0.7,1.3-1C227.6,245.2,235.7,234.2,241.5,221.8z"/>
<path class="st12" d="M285.2,149.4c-5.9,0.9-11.8,2.1-17.2,4.7c1.4,8.9,3.1,17.9,3.1,27c0.1,3.8-0.2,7.6-1,11.3l0,0l18.6,1.7
	C290,179.2,288.8,164.1,285.2,149.4z"/>
<path class="st12" d="M180.1,295.9c-65.5,15.5-130.8-27.3-143-93.5C25,136.9,70.5,74.1,137,64.7c54.9-7.8,108.8,24.8,127.1,76.9
	c0.2,0.6,0.3,1.3,0.5,1.9c6-1.2,11.9-2.8,17.7-5c-21.7-67.3-93.9-106.9-162.6-89.1C82,59.2,54.4,82,34,114.6
	c-17.3,27.6-25.1,57.3-21.5,89.6c4.3,38.3,22.2,69.3,52.5,93.2c40.9,32.2,101.2,37,146.8,12.1c11.1-6,21.3-13.6,30.4-22.4
	l-13.4-16.1C214.8,283.8,198.3,291.6,180.1,295.9z"/>
<path class="st13" d="M270.4,250.1c10.3-18,16.5-36.6,18.3-56l-18.6-1.7c-1.1,18.1-7,34.6-16.4,50c-6.5,10.6-14.1,20.5-24.2,28
	l-0.8,0.7l13.4,16.1C253.2,276.3,262.7,263.8,270.4,250.1z"/>
</svg>
