<svg xmlns="http://www.w3.org/2000/svg" viewBox="0 0 2587.54 2202.5"><defs><style>.cls-1{fill:#83d2e6;}.cls-2{fill:#808285;opacity:0.4;}.cls-12,.cls-2,.cls-5{stroke:#2f4353;}.cls-11,.cls-12,.cls-2,.cls-5{stroke-miterlimit:10;}.cls-3{fill:#1d4e69;}.cls-12,.cls-4{fill:#fff;}.cls-5,.cls-9{fill:#2f4353;}.cls-6{fill:#8fd4dc;}.cls-7{fill:#f16724;}.cls-8{fill:#38c2d5;}.cls-10{fill:#577a96;}.cls-11{fill:none;stroke:#fff;stroke-width:15px;}</style></defs><g id="Layer_2" data-name="Layer 2"><path class="cls-1" d="M2184.45,825.4l15.25-48.94,28.05,44.34,25.73-6.89,2.07-51.22,38.56,35.57,23.07-13.32-11.26-50,46.46,24.38,18.84-18.84-23.82-45.39,51.18,11.52,13.32-23.07-34.76-37.68,52.43-2.11,6.89-25.73-43.32-27.4L2443.23,575V548.35l-48.94-15.25,44.34-28-6.9-25.74-51.22-2.06,35.58-38.57-13.32-23.07-50,11.26,24.38-46.46-18.84-18.83-45.39,23.82,11.52-51.19-23.07-13.32-37.68,34.76-2.12-52.42-25.73-6.9-27.06,42.78-.54-.09-15.41-49.45h-26.64l-14.88,47.73-1.07.11-27.35-43.25-25.73,6.9-2,49.51-1.34.53-37.29-34.39L2033.45,330l10.84,48.14-1.33.95-44.71-23.46-18.84,18.83,22.93,43.7c-.34.42-.66.85-1,1.27l-49.29-11.1-13.32,23.07,33.55,36.38c-.2.46-.42.91-.62,1.37l-50.6,2.05L1914.17,497l42.19,26.68c-.06.37-.09.75-.15,1.12L1907.4,540v26.64l48.26,15c0,.2,0,.4.08.6L1912,609.92l6.9,25.73,51.18,2.07v0l-35.55,38.54,13.32,23.07,50-11.26-24.38,46.46,18.84,18.84,45.39-23.82-11.52,51.18,23.07,13.32L2087,759.32l2.12,52.42,25.73,6.89,27.4-43.32,15.61,50.09ZM1990.13,557.49A185.19,185.19,0,0,1,2175.32,372.3c102.27,0,185.18,82.91,185.18,185.19s-82.91,185.18-185.18,185.18S1990.13,659.76,1990.13,557.49Z"/><path class="cls-2" d="M1606.11,298.35a47.06,47.06,0,0,0-73.19-47.46,60.72,60.72,0,0,0-118.64-3.32,47,47,0,0,0-68.5,41.92,47.85,47.85,0,0,0,.7,7.81,30.32,30.32,0,0,0,2.06,60.57h249.38a30.31,30.31,0,0,0,8.19-59.52Z"/><rect class="cls-3" x="418.23" y="525.17" width="1800" height="1142.11"/><rect class="cls-4" x="461.14" y="570.62" width="1714.18" height="1048"/><path class="cls-5" d="M1188.78,1667.28v248.89h258.89V1667.28Zm212.73,118.42c0,45.08-36.35,81.62-81.2,81.62s-81.2-36.54-81.2-81.62v-73.82h162.4Z"/><rect class="cls-3" x="945.16" y="1916.17" width="746.13" height="48.85" rx="24.36"/><rect class="cls-6" x="461.14" y="570.62" width="1714.18" height="63.32"/><circle class="cls-4" cx="2118.92" cy="602.28" r="11.48" transform="translate(1045.92 2526.14) rotate(-76.72)"/><circle class="cls-4" cx="2069.21" cy="602.28" r="11.48" transform="translate(1007.63 2477.76) rotate(-76.72)"/><circle class="cls-4" cx="2019.51" cy="602.28" r="11.48" transform="translate(165.62 1604.41) rotate(-45)"/><rect class="cls-7" x="1207.43" y="912.6" width="900" height="665"/><rect class="cls-3" x="1207.43" y="912.6" width="900" height="92.5"/><rect class="cls-8" x="573.23" y="716.24" width="900" height="665"/><rect class="cls-3" x="573.23" y="716.24" width="900" height="78.85"/><rect class="cls-7" x="235.31" y="291.45" width="577.92" height="757.29"/><rect class="cls-3" x="235.31" y="291.45" width="577.92" height="78.65"/><circle class="cls-6" cx="770.73" cy="330.78" r="10.08" transform="matrix(0.16, -0.99, 0.99, 0.16, 321.12, 1038.79)"/><circle class="cls-6" cx="739.48" cy="330.78" r="10.08" transform="matrix(0.16, -0.99, 0.99, 0.16, 294.86, 1007.94)"/><circle class="cls-6" cx="708.23" cy="330.78" r="10.08" transform="matrix(0.16, -0.99, 0.99, 0.16, 268.6, 977.1)"/><rect class="cls-6" x="262.39" y="325.74" width="397.5" height="10.08"/><circle class="cls-6" cx="2020.92" cy="958.85" r="10.08"/><circle class="cls-6" cx="1989.67" cy="958.85" r="10.08"/><circle class="cls-6" cx="1958.42" cy="958.85" r="10.08"/><rect class="cls-6" x="1512.58" y="953.81" width="397.5" height="10.08"/><circle class="cls-6" cx="1400.92" cy="755.67" r="10.08"/><circle class="cls-6" cx="1369.67" cy="755.67" r="10.08"/><circle class="cls-6" cx="1338.42" cy="755.67" r="10.08"/><rect class="cls-6" x="892.58" y="750.63" width="397.5" height="10.08"/><path class="cls-9" d="M698.15,591a182.6,182.6,0,0,1-42.25,117.1L514.11,591v-184C615.71,406.92,698.15,489.36,698.15,591Z"/><path class="cls-4" d="M655.9,708.06a183.86,183.86,0,0,1-259.2,24.37L514.11,591Z"/><path class="cls-10" d="M514.11,406.92V591L396.7,732.43A183.11,183.11,0,0,1,330.23,591C330.23,489.36,412.52,406.92,514.11,406.92Z"/><rect class="cls-4" x="396.7" y="815.1" width="363.95" height="12.5"/><rect class="cls-4" x="285.73" y="863.85" width="474.92" height="12.5"/><rect class="cls-4" x="285.73" y="912.6" width="474.92" height="12.5"/><rect class="cls-4" x="285.73" y="961.35" width="474.92" height="12.5"/><path class="cls-10" d="M1043.8,944.69h-38.73a65.5,65.5,0,0,0-55.23-56v-38.6A104.28,104.28,0,0,1,1043.8,944.69Z"/><path class="cls-9" d="M1043.67,964.66a104.35,104.35,0,0,1-93.83,92.9V1019a65.84,65.84,0,0,0,55.1-54.3Z"/><path class="cls-10" d="M929.87,1019v38.6A104.35,104.35,0,0,1,836,964.66h38.73A65.81,65.81,0,0,0,929.87,1019Z"/><path class="cls-4" d="M929.87,850.06v38.6a65.5,65.5,0,0,0-55.23,56H835.9A104.29,104.29,0,0,1,929.87,850.06Z"/><rect class="cls-4" x="645.73" y="1245.1" width="27.5" height="107.5"/><rect class="cls-4" x="704.55" y="1172.6" width="27.5" height="180"/><rect class="cls-4" x="763.38" y="1245.1" width="27.5" height="107.5"/><rect class="cls-4" x="822.2" y="1152.6" width="27.5" height="200"/><rect class="cls-4" x="881.03" y="1207.6" width="27.5" height="145"/><rect class="cls-4" x="939.85" y="1172.6" width="27.5" height="180"/><rect class="cls-4" x="998.68" y="1096.23" width="27.5" height="256.37"/><rect class="cls-4" x="1057.5" y="1048.74" width="27.5" height="303.85"/><rect class="cls-4" x="1116.33" y="1005.1" width="27.5" height="347.5"/><rect class="cls-4" x="1188.78" y="815.1" width="235.7" height="61.25"/><rect class="cls-4" x="1188.78" y="894.47" width="235.7" height="61.25"/><rect class="cls-4" x="1188.78" y="973.85" width="65.5" height="83.71"/><rect class="cls-4" x="1273.88" y="973.85" width="65.5" height="83.71"/><rect class="cls-4" x="1358.98" y="973.85" width="65.5" height="83.71"/><rect class="cls-4" x="1188.78" y="1068.89" width="65.5" height="83.71"/><rect class="cls-4" x="1273.88" y="1068.89" width="65.5" height="83.71"/><rect class="cls-4" x="1358.98" y="1068.89" width="65.5" height="83.71"/><rect class="cls-4" x="1188.78" y="1163.92" width="65.5" height="83.71"/><rect class="cls-4" x="1273.88" y="1163.92" width="65.5" height="83.71"/><rect class="cls-4" x="1358.98" y="1163.92" width="65.5" height="83.71"/><rect class="cls-4" x="1188.78" y="1262.6" width="235.7" height="10.63"/><rect class="cls-4" x="1188.78" y="1288.22" width="235.7" height="10.63"/><rect class="cls-4" x="1188.78" y="1313.85" width="235.7" height="10.63"/><rect class="cls-4" x="1188.78" y="1339.47" width="235.7" height="10.63"/><polyline class="cls-11" points="1273.88 1443.85 1390.84 1488.85 1573.23 1288.22 1657.43 1344.79 1910.08 1094.62"/><polyline class="cls-11" points="1255.71 1503.52 1425.9 1573.52 1593.41 1377.16 1692.72 1439.77 2059.16 1064.81"/><circle class="cls-4" cx="1910.08" cy="1094.62" r="32.35" transform="translate(526.4 2806.94) rotate(-80.88)"/><circle class="cls-4" cx="1657.43" cy="1339.47" r="32.35" transform="translate(-381.51 719.82) rotate(-22.04)"/><circle class="cls-4" cx="1391.73" cy="1480.1" r="32.35" transform="translate(-469.81 666.3) rotate(-23.15)"/><circle class="cls-4" cx="1273.88" cy="1447.75" r="17.24" transform="translate(-359.23 2473.27) rotate(-80.78)"/><circle class="cls-4" cx="1572" cy="1288.22" r="20.31"/><circle class="cls-4" cx="2057.73" cy="1064.8" r="26.12"/><circle class="cls-4" cx="1689.78" cy="1447.75" r="32.35" transform="translate(-7.62 2886.56) rotate(-80.88)"/><circle class="cls-4" cx="1591.98" cy="1381.24" r="21.58" transform="translate(-511.58 1249.85) rotate(-37.37)"/><circle class="cls-4" cx="1255.71" cy="1521.2" r="32.35"/><circle class="cls-7" cx="777.45" cy="1385.54" r="286.76"/><circle class="cls-4" cx="777.45" cy="1385.54" r="227.84"/><rect class="cls-7" x="553.66" y="1574.87" width="53.38" height="63.03" transform="translate(1236.91 29.61) rotate(42.47)"/><path class="cls-7" d="M303.08,1909.29h0a64.17,64.17,0,0,1-4-90.65l181.17-197.92a64.16,64.16,0,0,1,90.65-4h0a64.17,64.17,0,0,1,4,90.65L393.73,1905.28A64.16,64.16,0,0,1,303.08,1909.29Z"/><rect class="cls-4" x="436.82" y="1682.88" width="128.32" height="20.42" transform="translate(1274.63 105.95) rotate(42.47)"/><rect class="cls-4" x="309.15" y="1823.01" width="128.32" height="20.42" transform="translate(1335.75 228.92) rotate(42.47)"/><rect class="cls-3" x="627.72" y="1450.99" width="21.39" height="83.6"/><rect class="cls-3" x="673.47" y="1379.06" width="21.39" height="155.53"/><rect class="cls-3" x="719.21" y="1421.83" width="21.39" height="112.76"/><rect class="cls-3" x="764.96" y="1394.61" width="21.39" height="139.98"/><rect class="cls-3" x="810.7" y="1335.22" width="21.39" height="199.37"/><rect class="cls-3" x="856.45" y="1298.3" width="21.39" height="236.3"/><rect class="cls-3" x="902.2" y="1264.35" width="21.39" height="270.24"/><path class="cls-12" d="M1441.76,349.27a71.77,71.77,0,0,0-111.61-72.38,92.6,92.6,0,0,0-180.93-5.07,71.53,71.53,0,0,0-103.39,75.84A46.24,46.24,0,0,0,1049,440h380.3a46.23,46.23,0,0,0,12.5-90.77Z"/></g></svg>