<?xml version="1.0" encoding="utf-8"?>
<!-- Generator: Adobe Illustrator 25.2.3, SVG Export Plug-In . SVG Version: 6.00 Build 0)  -->
<svg version="1.1" id="Layer_1" xmlns="http://www.w3.org/2000/svg" xmlns:xlink="http://www.w3.org/1999/xlink" x="0px" y="0px"
	 viewBox="0 0 300 300" style="enable-background:new 0 0 300 300;" xml:space="preserve">
<style type="text/css">
	.st0{fill:#F3F6F7;}
	.st1{fill:#231F20;}
	.st2{fill:#FEFEFE;}
	.st3{fill:#6EA3A3;}
	.st4{fill:#F5D755;}
</style>
<path class="st0" d="M134.4,145.1v3.6c-8.5,0-17,0-25.5,0.1c-0.7,0-2-0.7-2.1,1c0,1.5,0.9,1.6,2,1.6l25.5-0.1
	c0.2,7.1,2.6,13.5,6,19.6c0.2,0.4,0.4,0.9,0.6,1.3l-32.1,0.1c-1.1,0-2.1,0-2.1,1.5c0,1.7,1.3,1,2,1c11.4,0,22.8,0,34.2,0
	c3.5,4.1,7.6,7.7,12.2,10.5c5.9,3.4,12.4,5.4,19.2,5.9c0.7,0,1.4-0.1,1.8,0.6c-1.6,1.5-1.1,3.5-1,5.2c0.1,2.2-0.4,3-2.8,3
	c-30-0.1-60.1-0.1-90.1,0c-2.4,0-2.7-0.7-2.7-2.8c0.1-35,0.1-69.9,0-104.9c0-8.8,0-17.5,0-26.3c0-1.3,0.1-2,1.7-1.9
	c8.4,0.1,16.9,0.1,25.3,0c1.4,0,1.7,0.5,1.7,1.7c-0.1,2.8,0.1,5.6-0.1,8.4c-0.1,2,0.3,2.7,2.6,2.7c12.7-0.1,25.4-0.1,38,0
	c1.8,0,2.6-0.3,2.4-2.3c-0.2-2.8,0-5.6-0.1-8.4c-0.1-1.6,0.3-2.2,2.1-2.1c6.6,0.1,13.1,0.1,19.6,0c1.9,0,2.4,0.4,2.4,2.4
	c-0.1,13.4,0,26.7,0,40.1c-10.3,0.3-20.2,4.5-27.7,11.5c-0.5,0.4-1,0.8-1.6,1.3c-0.5-0.4-1.2-0.6-1.9-0.5c-3.2,0-6.5,0-9.7,0
	c-8.7,0-17.3,0-26,0c-0.7,0-1.8-0.4-1.7,1.1c-0.1,0.8,0.5,1.4,1.3,1.5c0.1,0,0.2,0,0.4,0c0.6,0,1.2,0,1.8,0l33.9,0.1
	c-0.8,1.6-1.7,3.2-3.5,4c-1.2-1-2.6-0.5-3.8-0.5c-9.4,0-18.8,0-28.3,0c-0.8,0-1.8-0.4-1.7,1.1c-0.1,0.8,0.5,1.4,1.3,1.5
	c0.1,0,0.3,0,0.4,0c0.6,0,1.2,0,1.8,0l29.3,0.1c-0.2,2.4-1.9,4.3-2.6,6.5c-1.1,2.8-1.8,5.8-2.1,8.8c-8.7,0-17.3-0.1-26,0
	c-0.7,0-2-0.7-2.1,1c0,1.5,0.9,1.6,2.1,1.6L134.4,145.1z M95.1,159.4c-3.1,0-6.1,0-9.2,0c-1.3,0-2.1,0.3-2.1,1.8
	c0,6.1,0,12.2,0,18.3c0,1.3,0.5,1.8,1.8,1.8c6.3,0,12.6,0,18.9,0c1.3,0,1.8-0.5,1.8-1.8c0-5.9,0-11.9,0-17.8c0-1.8-0.7-2.5-2.6-2.4
	C100.9,159.6,98,159.4,95.1,159.4z M95.1,111.9c-3.1,0-6.1,0-9.2,0c-1.3,0-2.1,0.3-2.1,1.8c0,6,0,11.9,0,17.9c0,1.6,0.7,2.3,2.4,2.3
	c5.9-0.1,11.8-0.1,17.6,0c2,0,2.4-0.9,2.4-2.6c0-5.8,0-11.6,0-17.4c0-1.5-0.5-2.2-2.1-2.1C101.2,112,98.2,112,95.1,111.9L95.1,111.9
	z M95.1,109.4c3,0,5.9-0.1,8.9,0c1.8,0.1,2.3-0.6,2.3-2.4c-0.1-5.6-0.1-11.2,0-16.8c0-2.1-0.8-2.9-2.9-2.8c-5.7,0.1-11.4,0.1-17.1,0
	c-2.1,0-2.6,0.9-2.6,2.7c0,5.8,0.1,11.5,0,17.3c0,1.6,0.6,2.1,2.1,2C89,109.3,92.1,109.4,95.1,109.4L95.1,109.4z M95.1,135.9
	c-3.1,0-6.1,0.1-9.2,0c-1.5,0-2.1,0.4-2.1,2c0.1,5.8,0,11.6,0,17.3c0,1.8,0.7,2.6,2.6,2.6c5.8,0,11.5,0,17.3,0
	c1.8,0,2.6-0.7,2.6-2.6c0-5.8-0.1-11.6,0-17.3c0-1.8-0.8-2.1-2.3-2.1C101.1,136,98.1,136,95.1,135.9L95.1,135.9z M138.4,194.2H156
	c4.9,0,9.9,0,14.8,0c0.5,0,1.3,0.3,1.3-0.7c0.1-0.7-0.2-1.3-0.9-1.6c-0.5-0.2-1.1-0.3-1.7-0.3c-20.9,0-41.8,0-62.8,0
	c-1.3,0-2.5,0.4-2.5,1.6c0,1.4,1.5,1,2.4,1C117.4,194.2,128,194.2,138.4,194.2L138.4,194.2z M136,95.1c-8.4,0-16.8,0-25.3,0
	c-1,0-2.4-0.3-2.4,1.1s1.3,1.4,2.4,1.4h50.2c1,0,1.9-0.2,1.9-1.4c0.1-1.7-1.2-1.1-1.9-1.1C152.8,95.1,144.4,95.1,136,95.1L136,95.1z
	 M122,168.6c4.5,0,9,0,13.5,0c0.9,0,1.8,0,1.9-1.2s-0.7-1.4-1.6-1.4h-27.3c-1.2,0-1.7,0.5-1.7,1.7c0,1.3,1.1,0.8,1.7,0.9
	C113,168.7,117.5,168.6,122,168.6L122,168.6z M122.7,103.8c4.1,0,8.1,0,12.2,0c1,0,2.1-0.2,2.1-1.6c0-1.7-1.3-0.9-2.1-0.9
	c-8,0-16,0-23.9,0c-1,0-2.6-0.4-2.5,1.2c0,1.3,1.4,1.3,2.5,1.3C114.9,103.8,118.8,103.8,122.7,103.8z M91.8,194.2c2.1,0,4.2,0,6.3,0
	c0.7,0.1,1.3-0.3,1.5-1c0.3-1.1-0.8-1.4-1.3-1.4c-4.3-0.1-8.6-0.1-12.9-0.1c-0.8,0.1-1.4,0.7-1.4,1.5c0.1,0.9,1,1,1.8,1
	C87.7,194.2,89.8,194.2,91.8,194.2z"/>
<path class="st1" d="M175.4,106.3c0-13.3-0.1-26.7,0-40.1c0-1.9-0.5-2.4-2.4-2.3c-6.6,0.1-13.1,0.1-19.6,0c-1.7,0-2.1,0.5-2.1,2.1
	c0.1,2.8-0.1,5.6,0.1,8.4c0.1,2-0.6,2.3-2.4,2.3c-12.7-0.1-25.4-0.1-38,0c-2.2,0-2.7-0.7-2.6-2.7c0.2-2.8,0-5.6,0.1-8.4
	c0-1.3-0.2-1.8-1.7-1.8c-8.4,0.1-16.9,0.1-25.3,0c-1.6,0-1.7,0.6-1.7,1.9c0,8.8,0,17.5,0,26.3c0,35,0,69.9,0,104.9
	c0,2.1,0.3,2.8,2.7,2.8c30-0.1,60.1-0.1,90.1,0c2.4,0,2.9-0.8,2.8-3c-0.1-1.8-0.7-3.7,1-5.2c1,0.1,1.7,1,1.6,2c0,0,0,0.1,0,0.1
	c-0.1,2.2-0.1,4.4,0,6.6c0,1.4-0.5,2-1.9,2c-2.2-0.1-4.4,0-6.6,0c-29.7,0-59.4,0-89.1,0.1c-2.4,0-3-0.7-3-3c0.1-45,0.1-90.1,0-135.1
	c0-2.4,0.7-3,3-3c7.1,0.1,14.3-0.1,21.4,0.1c2.4,0.1,2.9-0.7,2.7-2.8s0.1-4.4-0.1-6.6c-0.1-1.8,0.3-2.5,2.3-2.4
	c3.1,0.2,6.3,0,9.4,0.1c1.2,0,1.5-0.2,1.6-1.5c0.8-7,9.2-11.2,14.6-10c5.9,1.4,8.8,4.9,10.3,10.2c0.3,1.1,0.6,1.3,1.6,1.3
	c3.2,0,6.5,0,9.7,0c1.5,0,2.2,0.5,2.1,2.1c-0.1,2.6,0.1,5.3-0.1,7.9c-0.1,1.5,0.4,1.8,1.8,1.8c6-0.1,12.1,0,18.1-0.1
	c1.4,0,2.1,0.1,2.1,1.8c-0.1,14,0,27.9,0,41.9c0,0.8,0.2,1.8-0.8,2.2S175.9,106.7,175.4,106.3z M129.9,74.7c5.8,0,11.6,0,17.4,0
	c1.4,0,2.1-0.2,2.1-1.9c-0.1-4.8-0.1-9.5,0-14.3c0-1.5-0.5-1.8-1.9-1.8c-11.6,0-23.1,0-34.7,0c-1.5,0-1.8,0.5-1.8,1.9
	c0.1,4.7,0.1,9.4,0,14c0,1.8,0.6,2.1,2.2,2C118.7,74.6,124.3,74.7,129.9,74.7z M129.8,52.2c-7.2,0-14.4,0-21.7,0
	c-0.7,0-1.8-0.5-1.8,1c0,2.4,0,4.8,0,7.1c0,0.7,0.2,1,1,1s1.1-0.3,1-1c0-1.2,0.1-2.4,0-3.6c-0.2-2,0.6-2.6,2.6-2.6
	c11.6,0.1,23.1,0,34.7,0c5.5,0,5.5,0,5.6,5.4c0,0.2,0,0.3,0,0.5c0,0.7,0,1.3,1,1.3s1-0.6,1-1.3c0-2-0.1-3.9,0-5.9
	c0.1-1.7-0.5-2.1-2.1-2.1C144.1,52.2,137,52.2,129.8,52.2z M130,40.4c-4.4,0.1-8.3,3-9.7,7.2c-0.3,0.7-0.8,1.8,0.5,1.9
	c0.8,0.1,2.1,0.9,2.4-1.1c0.4-2.7,3.4-4.8,6.2-4.9c3.6-0.1,6.1,1.4,7.5,5.2c0.6,1.7,1.6,0.7,2.4,0.9s0.8-0.6,0.6-1.2
	C138.6,43.9,134.7,40.7,130,40.4z M125.6,49.6h8.7c-0.8-2-2-3.5-4.1-3.5C128,46,126.1,47.5,125.6,49.6L125.6,49.6z"/>
<path class="st1" d="M176.7,187c-19.2,1-40.2-16.6-38.2-41.5c1.4-17.8,16.9-36,40.1-35.1c21,0.9,37.4,18.6,36.6,39.6
	C214.6,170,198,187.6,176.7,187z M176.4,184.4c19.9,0.9,35.6-16.9,36.1-34.1c0.6-21.7-16.8-36.8-34.1-37.4
	c-22.2-0.8-37.8,16.4-37.8,35.9c-0.1,19.6,15.7,35.6,35.3,35.7C176.2,184.5,176.3,184.5,176.4,184.4L176.4,184.4z"/>
<path class="st1" d="M128.3,240.4c0,4.2-0.1,7.8,0,11.3c0,1.4-0.5,2.1-1.7,2.2s-1.9-0.8-1.9-2.2c0.1-5.8,0-11.6,0-17.3
	c0-0.9-0.2-2,1-2.3c1-0.3,2.1,0.1,2.7,0.9c0.9,1.1,1.6,2.3,2.1,3.6c1.4,2.6,2.7,5.3,4.4,8c0-3.3,0-6.6,0-9.9c0-1.2-0.3-2.6,1.7-2.6
	s1.9,1.2,1.9,2.6c0,5.7,0,11.4,0,17.1c0,1.1-0.2,2-1.3,2.3c-1.1,0.2-2.2-0.4-2.5-1.5C132.7,248.6,130.6,244.8,128.3,240.4z"/>
<path class="st1" d="M174.8,242.8c0-2.8,0.1-5.6,0-8.4c-0.1-1.7,0.4-2.5,2.3-2.4c2.7,0.2,5.4-0.4,8,0.6c1.9,0.7,3.4,1.9,3.5,4.1
	c0.1,2.6,0.4,5.4-2.5,6.7c-1.6,0.8-1.1,1.7-0.5,2.5c1,1.5,1.8,3.1,2.6,4.8c0.7,0.9,0.5,2.1-0.4,2.8c-0.1,0.1-0.2,0.1-0.3,0.2
	c-1.2,0.9-2-0.3-2.4-1.1c-1.2-2-2.1-4.1-3.2-6.1c-0.6-1.1-1.1-2-2.6-1.8c-1.8,0.3-0.8,1.6-0.8,2.4c-0.2,1.5-0.2,3.1,0,4.6
	c0.1,1.4-0.5,2.1-1.7,2.1s-1.9-0.9-1.9-2.2C174.8,248.7,174.8,245.7,174.8,242.8z M180.6,241.7c3,0,4.3-1,4.4-3.2s-1.8-3.2-4.8-3.5
	c-2.3-0.2-2.1,1.3-1.8,2.5C178.8,239,176.6,242.1,180.6,241.7z"/>
<path class="st1" d="M191.1,242.7c0-2.9,0.1-5.8,0-8.7c0-1.5,0.5-2.2,2.1-2.1c2,0.1,3.9-0.1,5.9,0c3,0,5.4,2.5,5.4,5.5
	c0,0.1,0,0.1,0,0.2c0,3.1-0.2,6.3,0,9.4c0.3,5-2.2,6-6.1,6.9h-0.3c-7,0.6-7,0.6-7-6.4L191.1,242.7z M194.7,242.5
	c0,1.8-0.1,3.6,0,5.3c0.1,0.9-1,2.6,1.3,2.5c1.9-0.1,4.5,0.6,4.7-2.3c0.2-3.6,0.2-7.1,0-10.7c-0.1-1.6-2.3-2.6-4.9-2.4
	c-2.2,0.1-1,1.7-1.2,2.6C194.6,239.3,194.6,240.9,194.7,242.5z"/>
<path class="st1" d="M142.1,243c0-3,0-5.9,0-8.9c0-1.5,0.5-2.2,2.1-2.1c2.5,0.2,5-0.4,7.5,0.5c2.3,0.6,3.8,2.7,3.7,5
	c0.1,3.6,0.1,7.3,0,10.9c-0.1,3.3-2.4,5.3-6.3,5.6c-6.9,0.5-6.9,0.5-6.9-6.4L142.1,243z M145.7,242.5c0,2.1,0,4.2,0,6.4
	c0,0.5-0.2,1.3,0.3,1.4c1.3,0.3,2.7,0.3,4,0c1.2-0.4,1.9-1.5,1.9-2.7c-0.1-2.6,0-5.3,0-7.9c0-3.5-0.7-4.2-4.1-4.6
	c-1.4-0.1-2.2,0-2.1,1.8S145.7,240.6,145.7,242.5L145.7,242.5z"/>
<path class="st1" d="M173.2,251.8c0.1,1.2-0.7,1.4-1.3,1.8c-1,0.7-1.6-0.1-2.1-0.5c-0.4-0.4-0.6-1-0.6-1.6c-0.2-2.5-1.7-2.7-3.8-2.7
	c-2.5,0-4.3,0.1-4.5,3.2c0,0.9-0.5,2.5-2.3,1.8c-1.6-0.6-1.8-1.4-1.2-3.1c1.9-5.6,3.5-11.3,5.2-17c0.3-1.2,1.4-2,2.6-1.8
	c1.1-0.1,2.2,0.6,2.4,1.7c1.8,5.8,3.5,11.7,5.2,17.5C172.9,251.3,173.1,251.6,173.2,251.8z M167.5,245.7c-0.8-2.6-1.5-5.1-2.4-8.4
	c-0.9,3.3-1.6,5.8-2.3,8.4H167.5z"/>
<path class="st1" d="M123,252c-0.1,0.9-0.8,1.7-1.7,1.8c-1,0.1-2-0.6-2.2-1.6c-0.2-1.2-0.1-2.9-1.3-3.2c-1.9-0.4-3.8-0.4-5.7,0
	c-0.8,0.1-0.8,1.6-1.1,2.5c-0.3,1.2-0.4,2.8-2.2,2.4s-2.1-1.3-1.4-3.1c1.9-5.6,3.5-11.3,5.2-16.9c0.4-1.4,1.3-1.7,2.6-1.8
	c1.1-0.2,2.2,0.6,2.3,1.8c1.8,6,3.6,11.9,5.3,17.9C122.8,251.8,122.9,251.9,123,252z M112.5,245.8c1.2,0,2.3-0.1,3.4,0
	c0.9,0.1,1.4-0.3,1.1-1.1c-0.8-2.1-0.9-4.4-2.3-6.7L112.5,245.8z"/>
<path class="st1" d="M213.1,253.9c-1.5,0.1-3.1-0.2-4.4-0.9c-0.7-0.4-1.3-1-1.8-1.7c-0.8-1.1-0.1-1.9,0.5-2.6
	c0.8-0.9,1.5-0.3,2.1,0.4c1.7,1.6,3.6,2.4,5.8,0.9c1.5-1,2-2.2,0.7-3.6c-0.9-1-2-1.8-3.3-2.2c-2.5-0.8-4.6-2.2-5.4-5
	c-0.6-2.1,0.5-6,3.2-6.7c2.5-0.8,5.1-0.8,7.6,0c1.3,0.4,2.1,1.4,1.6,2.7s-1.9,1.1-2.9,0.6c-0.9-0.5-2-0.8-3.1-0.8
	c-1.3,0.2-2.5,0.5-2.8,2s0.7,2.1,1.7,2.6c1.3,0.7,2.7,1.1,4,1.8c2.9,1.5,4.4,4.9,3.5,8.1C219.3,252,217.7,254.2,213.1,253.9z"/>
<path class="st1" d="M87.2,232c0.8,0.2,1.8-0.2,3,0.3c1.3,0.6,2.7,0.7,1.9,2.8s-2,0.8-3,0.4c-1.2-0.7-2.7-0.7-4-0.1
	c-2.1,1.2-2.2,2.3-0.3,3.8s4.4,2,6.4,3.7c3.3,2.9,1.7,9.9-2.8,10.8c-2.9,0.6-5.8,0.5-8.2-1.7c-1-0.9-1.3-1.9-0.3-3s1.9-0.6,2.7,0.4
	c0.8,1.1,2.2,1.6,3.5,1.4c1.5-0.2,3.2-1,3.2-2.7c-0.1-1.6-1.2-3-2.7-3.4c-2.3-0.9-5.1-1.5-6.2-4.1C78.3,235.8,81.5,231.4,87.2,232z"
	/>
<path class="st1" d="M99.2,244.5c0-2.4-0.1-4.8,0-7.1c0.1-1.5-0.4-2-1.8-1.8c-0.2,0-0.5,0-0.8,0c-1.4,0.1-2.9-0.1-3-1.9
	c-0.1-1.9,1.5-1.8,2.9-1.7c3.2,0,6.4,0,9.7,0c1,0,2.2-0.1,2.2,1.4c0.1,1.1-0.7,2.1-1.8,2.2c-0.1,0-0.1,0-0.2,0
	c-1.2,0.1-2.8-0.5-3.3,0.3c-0.6,1-0.3,2.6-0.3,3.9c0,4-0.1,8,0,12c0,1.4-0.6,2.1-1.8,2.1c-0.9,0.1-1.8-0.6-1.9-1.5
	c0-0.2,0-0.4,0-0.5C99.3,249.4,99.2,246.9,99.2,244.5z"/>
<path class="st1" d="M144.1,121.2l-33.9-0.1c-0.6,0-1.2,0-1.8,0c-0.7,0.1-1.5-0.4-1.6-1.1c0-0.1,0-0.2,0-0.4c-0.1-1.5,1-1.1,1.7-1.1
	c8.7,0,17.3,0,26,0c3.2,0,6.4,0,9.7,0c0.7,0,1.3,0.1,1.9,0.5C146.5,120.8,145.2,120.9,144.1,121.2z"/>
<path class="st1" d="M143.1,174.8c-11.4,0-22.8,0-34.2,0c-0.7,0-2,0.7-2-1c0-1.5,1-1.5,2.1-1.5l32.1-0.1
	C143,172,143.3,173.2,143.1,174.8z"/>
<path class="st1" d="M139.5,127.4l-29.3-0.1c-0.6,0-1.2,0-1.8,0c-0.7,0.2-1.5-0.3-1.6-1.1c0-0.1,0-0.3,0-0.4c-0.1-1.5,1-1.1,1.7-1.1
	c9.4,0,18.8,0,28.3,0c1.3,0,2.7-0.5,3.8,0.5C140.6,126.1,140.5,127,139.5,127.4z"/>
<path class="st1" d="M134.4,151.2l-25.5,0.1c-1.1,0-2.1-0.1-2-1.6c0.1-1.7,1.3-1,2.1-1c8.5-0.1,17-0.1,25.5-0.1
	C136.3,149.5,135,150.4,134.4,151.2z"/>
<path class="st1" d="M134.4,145.1l-25.5,0.1c-1.1,0-2.1-0.1-2.1-1.6c0-1.7,1.3-1,2.1-1c8.7,0,17.3,0,26,0
	C136.1,143.7,134.8,144.3,134.4,145.1z"/>
<path class="st1" d="M190.6,192.7c0.2,1.9-1.6,1.4-2.4,1.9c-0.2,0.2-1.6-0.1-1.6-1.1c0.1-1.9,2-1.4,3.1-1.8
	C190.3,191.4,190.7,191.9,190.6,192.7z"/>
<path class="st1" d="M185.8,102.7c0.9-0.1,1.3,0.2,1.2,1.1s0,1.7-0.9,1.8s-1.5-0.7-1.7-1.6S185,102.9,185.8,102.7z"/>
<path class="st1" d="M222.5,150.3c-0.7,0-1.2-0.5-1.3-1.2c0,0,0-0.1,0-0.1c0.1-0.7,0.7-1.2,1.4-1.2c0.6,0.1,1.1,0.5,1.2,1.2
	C223.8,149.8,223.3,150.2,222.5,150.3z"/>
<path class="st1" d="M222.3,137.2c-0.2,0.8-0.6,1.3-1.4,1.2c-0.7-0.1-1.2-0.7-1.2-1.4s0.7-1.2,1.4-1.2
	C221.9,136,222.2,136.6,222.3,137.2z"/>
<path class="st1" d="M189.1,205.2c0,0.7-0.6,1.2-1.2,1.2c0,0-0.1,0-0.1,0c-0.7,0-1.2-0.6-1.2-1.3c0-0.7,0.6-1.2,1.3-1.2l0,0
	C188.6,203.9,189,204.4,189.1,205.2z"/>
<path class="st1" d="M187.8,199.8c0.8,0.1,1.3,0.5,1.3,1.3c0,0.7-0.6,1.3-1.3,1.3c-0.7,0-1.3-0.6-1.3-1.3c0-0.7,0.5-1.2,1.1-1.3
	C187.7,199.8,187.8,199.8,187.8,199.8z"/>
<path class="st1" d="M223.7,144.9c-0.4,0.5-0.4,1.4-1.6,1.3c-0.8-0.1-0.9-0.5-0.9-1.1c0-0.9,0.4-1.4,1.3-1.4
	S223.2,144.6,223.7,144.9z"/>
<path class="st1" d="M187,73.2c0.1,0.8-0.3,1-1,1s-1.5-0.2-1.4-1c0.1-0.8,0.7-1.4,1.5-1.5C186.8,71.7,187.1,72.4,187,73.2z"/>
<path class="st1" d="M137.9,206.9c-0.9,0-1.5,0.1-1.5-1s0.5-1.1,1.3-1.1s1.3-0.1,1.3,1S138.6,207.1,137.9,206.9z"/>
<path class="st1" d="M126.2,204.9c0.8-0.1,1.2,0.2,1.1,1.1c0,1.1-0.7,0.9-1.4,0.9c-0.8,0.1-1.2-0.2-1.2-1.1
	C124.7,204.7,125.4,204.9,126.2,204.9z"/>
<path class="st1" d="M221.1,159.4c0.6,0,1.2-0.1,1.1,0.8c0,0.8-0.6,1.4-1.4,1.5c-0.7,0-1.2-0.6-1.2-1.3c0-0.1,0-0.2,0-0.2
	C219.8,159.1,220.5,159.5,221.1,159.4z"/>
<path class="st1" d="M115.5,205.9c0.2,0.9-0.3,1.2-1.2,1.1c-0.6-0.1-1.4,0.2-1.4-0.9c0-0.9,0.3-1.2,1.2-1.1
	C114.8,205,115.6,204.7,115.5,205.9z"/>
<path class="st1" d="M102.3,207c-0.8,0.1-1.1-0.3-1.1-1.1c0-1.1,0.8-0.8,1.4-0.9c0.9-0.1,1.2,0.2,1.2,1.1
	C103.8,207.2,103,206.9,102.3,207z"/>
<path class="st1" d="M90.4,204.9c0.9,0.1,1.6-0.2,1.6,0.9c0,0.9-0.3,1.2-1.2,1.1c-0.6-0.1-1.4,0.2-1.4-0.9
	C89.5,205.2,89.7,204.7,90.4,204.9z"/>
<path class="st1" d="M188.1,198.3c-0.9,0-1.5-0.3-1.6-1.2s0.9-0.8,1.3-1.2c0.5,0.4,1.4,0.4,1.3,1.5C189,198,188.8,198.4,188.1,198.3
	z"/>
<path class="st1" d="M189.7,106.4c-0.7-0.2-1.2-0.9-1.1-1.6c0-0.8,0.3-1,1.1-1s1.5,0.3,1.4,1S190.2,105.9,189.7,106.4z"/>
<path class="st1" d="M186.1,97.6c-0.8,0.1-1.5-0.2-1.6-0.9c0-0.8,0.6-1.4,1.4-1.5c0.8-0.1,1.1,0.6,1.1,1.4S187,97.8,186.1,97.6z"/>
<path class="st1" d="M185.9,94.1c-0.6-0.5-1.4-0.8-1.3-1.7s0.9-0.9,1.6-0.9c0.9,0,0.9,0.5,0.9,1.2C187.1,93.4,186.6,94,185.9,94.1z"
	/>
<path class="st1" d="M186.1,79.8c0.8-0.1,1,0.3,1,1s-0.3,1.5-1,1.4c-0.8-0.1-1.4-0.7-1.4-1.5C184.6,80,185.3,79.7,186.1,79.8z"/>
<path class="st1" d="M187,85c0.1,0.8-0.3,1-1,1s-1.5-0.3-1.4-1c0.1-0.8,0.7-1.4,1.5-1.4C186.8,83.4,187.1,84.2,187,85z"/>
<path class="st1" d="M187,88.8c0,0.7-0.6,1.2-1.3,1.2c-1,0.1-0.7-1-1.2-1.3c0.5-0.3,0.3-1.4,1.3-1.2C186.5,87.5,187,88.1,187,88.8z"
	/>
<path class="st1" d="M185.8,99.2c0.7,0,1.2,0.5,1.2,1.2c0,0,0,0.1,0,0.1c0,0.7-0.5,1.2-1.1,1.3c0,0-0.1,0-0.1,0
	c-1,0.1-0.7-1-1.2-1.3C185.1,100.1,184.8,99,185.8,99.2z"/>
<path class="st1" d="M173.3,204.9c0.6-0.1,0.9,0.2,1,0.9c0.1,1.2-0.6,1.1-1.4,1.1c-0.5,0-1.2,0.1-1.2-0.8S172.4,204.9,173.3,204.9z"
	/>
<path class="st1" d="M161.4,204.9c0.6,0,1.2,0,1.2,0.8s-0.1,1.4-1,1.2c-0.6-0.1-1.5,0.4-1.5-0.7
	C159.9,205.4,160.5,204.9,161.4,204.9z"/>
<path class="st1" d="M187,77c0,0.7-0.6,1.2-1.3,1.2c-1,0.1-0.7-1-1.2-1.3c0.5-0.3,0.3-1.4,1.3-1.2C186.5,75.7,187,76.3,187,77
	C187,77,187,77,187,77z"/>
<path class="st1" d="M79.3,206.9c-1.2,0.1-1.6,0-1.6-1s0.5-1,1.2-1c0.7,0,1.3,0.5,1.3,1.1c0,0,0,0,0,0
	C80.4,207.2,79.5,206.9,79.3,206.9z"/>
<path class="st1" d="M150.8,205.9c0.1,1.5-0.9,1-1.6,1.1s-1.1-0.2-1-1s0.9-1.1,1.7-1.1S150.8,205.4,150.8,205.9z"/>
<path class="st1" d="M223.3,156.5c-0.6,0.6-0.9,1.4-1.8,1.4s-0.8-0.7-0.8-1.2c0-0.9,0.5-1.3,1.4-1.4S222.6,156.4,223.3,156.5z"/>
<path class="st1" d="M123.2,205.9c0.1,0.7-0.1,1.1-0.9,1.1s-1.6-0.2-1.6-1.1c0-0.7,0.7-0.9,1.5-1S123.3,205.1,123.2,205.9z"/>
<path class="st1" d="M94.7,207c-0.6,0-1.2,0-1.1-0.9s0.1-1.3,1.1-1.2c0.7,0.1,1.4,0.3,1.4,1S95.4,206.9,94.7,207z"/>
<path class="st1" d="M99.7,206c0.1,0.8-0.3,0.9-1,0.9s-1.4-0.3-1.4-1c0-0.9,0.8-1.1,1.6-1.1S99.7,205.4,99.7,206z"/>
<path class="st1" d="M105.3,205.9c-0.1-0.8,0.3-1,1-1s1.4,0.2,1.5,1c0,0.9-0.8,1.1-1.6,1.1S105.3,206.5,105.3,205.9z"/>
<path class="st1" d="M111.4,205.9c0.1,0.9-0.3,1-1,1s-1.4-0.3-1.4-1c0-0.9,0.8-1,1.6-1S111.5,205.4,111.4,205.9z"/>
<path class="st1" d="M118.2,207c-0.6,0-1.2,0-1.1-0.9s0.1-1.3,1-1.2c0.7,0.1,1.4,0.3,1.4,1S118.9,206.9,118.2,207z"/>
<path class="st1" d="M129.7,204.9c1,0,1.6,0.3,1.6,1.1s-0.7,0.9-1.4,1c-1,0.1-1-0.5-1-1.2S129.3,204.8,129.7,204.9z"/>
<path class="st1" d="M134,204.9c0.8-0.1,0.9,0.3,1,1c0.1,1-0.4,1.1-1.2,1s-1.4-0.4-1.3-1.1S133.2,204.8,134,204.9z"/>
<path class="st1" d="M87.9,205.9c0.1,0.8-0.2,1.1-1,1.1s-1.4-0.2-1.5-1c0-0.9,0.7-1.1,1.6-1.1S88.1,205.2,87.9,205.9z"/>
<path class="st1" d="M141.4,204.9c1,0,1.6,0.3,1.6,1.1s-0.7,0.9-1.4,1c-1,0.1-1-0.5-1.1-1.2S141,204.8,141.4,204.9z"/>
<path class="st1" d="M154.9,205.8c-0.2,0.7-0.8,1.2-1.6,1.1c-1,0.1-1-0.5-1-1.2c0-0.9,0.6-0.8,1.1-0.8
	C154.2,204.9,154.6,205.4,154.9,205.8z"/>
<path class="st1" d="M165.2,206.9c-0.6,0-1.1,0-1.1-0.9s0.1-1.3,1.1-1.2c0.7,0.1,1.4,0.3,1.4,1S165.9,207,165.2,206.9z"/>
<path class="st1" d="M222.2,151.8c0.8-0.1,1.4,0.2,1.5,0.9s-0.6,1.1-1.3,1.1s-1.2-0.1-1.2-1.1C221.3,152.1,221.5,151.7,222.2,151.8z
	"/>
<path class="st1" d="M194.7,106.2c0,0.6-0.5,1.1-1.1,1.2c-1.1,0.2-1.2-0.9-1.4-1.4c-0.3-0.9,0.9-0.9,1.3-1.1
	C194.4,104.7,194.1,105.9,194.7,106.2z"/>
<path class="st1" d="M176.8,206.9c-0.7,0.1-1-0.2-1-1c0-0.9,0.4-1.1,1.2-1.1s1.4,0.3,1.3,1.1S177.6,207,176.8,206.9z"/>
<path class="st1" d="M186,206c0.1,0.8-0.4,0.9-1,0.9s-1.4-0.3-1.4-1c0-0.9,0.8-1,1.6-1.1S186,205.4,186,206z"/>
<path class="st1" d="M221.5,164.7c-0.8,0.3-1.4,0.9-1.9,0.8c-0.5-0.4-0.8-1-0.8-1.6c0-0.2,1.1-0.9,1.4-0.7S221,164.1,221.5,164.7z"
	/>
<path class="st1" d="M221.8,140c0.8,0,1.5,0.4,1.4,1.2c-0.1,0.6-0.7,1-1.3,0.9c0,0,0,0-0.1,0c-0.7-0.1-1.2-0.6-1.1-1.3
	c0,0,0-0.1,0-0.1C220.8,139.8,221.5,140.1,221.8,140z"/>
<path class="st1" d="M217.7,126.3c0,0.9-0.4,1.5-1,1.4c-0.8,0-1.1-0.7-1-1.5c0-0.5,0-1,0.7-1C217,125.3,217.5,125.7,217.7,126.3z"/>
<path class="st1" d="M221.1,133.3c-0.5,0.6-0.4,1.6-1.3,1.4c-0.6-0.1-1.2-0.4-1.1-1.3c0.1-0.8,0.3-1.1,1-0.9
	C220.2,132.5,220.8,132.8,221.1,133.3z"/>
<path class="st1" d="M145.8,207c-0.7,0-1.5,0-1.4-0.9c0.1-0.5,0.3-1.3,1.3-1.2c0.7,0.1,1.1,0.2,1,1S146.6,207.1,145.8,207z"/>
<path class="st1" d="M84.2,206.1c-0.3,0.7-0.9,0.8-1.6,0.8c-0.9,0-0.8-0.6-0.8-1.2c-0.1-0.9,0.5-0.8,1.1-0.9
	C84,204.8,83.8,205.7,84.2,206.1z"/>
<path class="st1" d="M218.5,166.6c1.1,0.2,0.7,1.2,1,1.7s-0.5,0.9-1.1,0.9c-0.9,0-1-0.9-1.1-1.4
	C217.1,166.8,218.4,167.3,218.5,166.6z"/>
<path class="st1" d="M216.7,172.7c-0.8,0.1-1.1-0.1-1.1-0.8s0.1-1.4,0.9-1.6s1.1,0.4,1.2,1C217.8,171.9,217.4,172.5,216.7,172.7
	C216.8,172.7,216.7,172.7,216.7,172.7z"/>
<path class="st1" d="M181.9,206c0.1,0.9-0.4,1-1.1,1s-0.9-0.3-1-1c0-1,0.5-1,1.2-1S182,205.4,181.9,206z"/>
<path class="st1" d="M170.2,206c0.1,0.9-0.4,1-1,1s-1-0.3-1-1c0-1,0.5-1,1.2-1S170.2,205.4,170.2,206z"/>
<path class="st1" d="M158.4,205.9c0.1,0.7-0.2,1-1,1c-0.9,0-1.1-0.4-1.1-1.2s0.5-0.9,1.1-0.9S158.5,205.2,158.4,205.9z"/>
<path class="st1" d="M198.4,189.3c-0.5,0.8-0.3,2-1.7,1.8c-0.6-0.1-1.2-0.6-0.9-1.2C196.4,188.8,197.3,189,198.4,189.3z"/>
<path class="st1" d="M201.3,187.9c0.1,0.8-0.1,1.2-0.9,1.2c-0.6,0-1.1,0-1.1-0.9s0.1-1.2,1.1-1.2C201,187.1,201.5,187.2,201.3,187.9
	z"/>
<path class="st1" d="M210.5,180.8c0.1,0.8-0.1,1.2-0.9,1.2c-0.6,0-1.1,0-1.1-0.9s0.1-1.2,1.1-1.2
	C210.2,179.9,210.7,180.1,210.5,180.8z"/>
<path class="st1" d="M215.6,174.7c0.1,0.9-0.3,1-1,1.1c-1,0-1-0.5-1-1.2c0-0.9,0.6-0.8,1.2-0.8C215.6,173.7,215.8,174.1,215.6,174.7
	z"/>
<path class="st1" d="M218.1,128.8c0.9,0,1.5,0.2,1.4,0.9s-0.3,1.4-1.3,1.2c-0.5-0.1-1,0.1-1-0.7C217.2,129.6,217.5,129,218.1,128.8z
	"/>
<path class="st1" d="M214.5,124.2c-0.8,0.1-0.9-0.4-0.9-1.1s0.3-1,1-1c1,0,1,0.5,1,1.2S215.1,124.2,214.5,124.2z"/>
<path class="st1" d="M209.7,118.1c-0.7,0.1-1.3,0-1.2-0.9c0-0.6-0.1-1.2,0.8-1.2c0.7,0,1.3,0,1.2,1
	C210.5,117.7,210.5,118.2,209.7,118.1z"/>
<path class="st1" d="M201.3,109.5c0,0.8-0.3,1.4-1.1,1.4c-0.6,0-1-0.6-1-1.2c0-0.9,0.9-1,1.4-1.1C201.4,108.2,201.3,109,201.3,109.5
	z"/>
<path class="st1" d="M195.6,107.1c1.1-0.4,2.1-0.5,2.6,0.5c0.3,0.6-0.3,1.1-0.9,1.2C195.8,109.1,196.2,107.7,195.6,107.1z"/>
<path class="st1" d="M213.1,177.9c0.1,0.8-0.4,0.9-1.1,0.9c-1,0-1-0.6-1-1.3c0-0.9,0.6-0.8,1.2-0.8
	C213.1,176.8,213.1,177.3,213.1,177.9z"/>
<path class="st1" d="M193.4,190.6c0.6,0,1.1,0.3,1,1c-0.1,0.4-0.2,1.2-1.1,1.1c-0.6-0.1-1.2-0.4-1.1-1.1
	C192.3,191,192.8,190.6,193.4,190.6C193.4,190.6,193.4,190.6,193.4,190.6z"/>
<path class="st1" d="M205,185.3c-0.6,0.7-0.2,2.1-1.8,1.7c-0.3-0.1-0.8-0.3-0.6-0.9C203,184.9,203.8,184.7,205,185.3z"/>
<path class="st1" d="M212.1,119.1c0.6-0.1,1.1,0.1,1,0.9c0,0.6,0.1,1.2-0.8,1.1c-0.7,0-1.2-0.6-1.2-1.2c0,0,0,0,0,0
	C211,119.1,211.5,119.1,212.1,119.1z"/>
<path class="st1" d="M95.1,159.4c2.9,0,5.8,0.1,8.7,0c1.9-0.1,2.6,0.6,2.6,2.4c0,5.9,0,11.9,0,17.8c0,1.3-0.6,1.8-1.8,1.8
	c-6.3,0-12.6,0-18.9,0c-1.3,0-1.8-0.5-1.8-1.8c0-6.1,0-12.2,0-18.3c0-1.5,0.7-1.9,2.1-1.8C89,159.5,92,159.4,95.1,159.4z
	 M95.2,179.4c2.3,0,4.6-0.1,6.9,0c1.4,0.1,1.7-0.4,1.7-1.7c-0.1-4.7-0.1-9.4,0-14c0-1.4-0.6-1.7-1.8-1.6c-4.6,0.1-9.2,0.1-13.8,0
	c-1.5,0-1.9,0.4-1.8,1.9c0.1,4.4,0.2,8.9,0,13.3c-0.1,2.1,0.7,2.4,2.5,2.3C90.9,179.3,93.1,179.4,95.2,179.4z"/>
<path class="st1" d="M95.1,112c3.1,0,6.1,0,9.2,0c1.6,0,2.1,0.6,2.1,2.1c-0.1,5.8,0,11.6,0,17.4c0,1.6-0.4,2.6-2.4,2.6
	c-5.9-0.1-11.8-0.1-17.6,0c-1.8,0-2.4-0.7-2.4-2.3c0-6,0-11.9,0-17.9c0-1.5,0.8-1.8,2.1-1.8C89,112,92,112,95.1,112z M103.8,123.4
	c0-2.9-0.1-5.3,0-7.7c0-1.3-0.4-1.8-1.7-1.7c-4.7,0.1-9.4,0.1-14,0c-1.1,0-1.7,0.2-1.7,1.5c0.1,4.8,0.1,9.5,0,14.3
	c0,1.2,0.3,1.6,1.6,1.6c2.5-0.1,4.9,0,7.4,0c2.7,0,6.4,0.9,7.9-0.4C105,129.3,103.6,125.6,103.8,123.4L103.8,123.4z"/>
<path class="st1" d="M95.1,109.4c-3.1,0-6.1,0-9.2,0c-1.5,0-2.1-0.4-2.1-2c0.1-5.8,0-11.6,0-17.3c0-1.8,0.5-2.7,2.6-2.7
	c5.7,0.1,11.4,0.1,17.1,0c2.1,0,2.9,0.8,2.9,2.8c-0.1,5.6-0.1,11.2,0,16.8c0,1.8-0.5,2.4-2.3,2.4C101.1,109.3,98.1,109.4,95.1,109.4
	z M103.8,98.8c0-2.4-0.1-4.8,0-7.2c0.1-1.4-0.4-1.7-1.7-1.7c-4.6,0.1-9.2,0.1-13.8,0c-1.4,0-1.9,0.3-1.9,1.8c0.1,4.6,0.1,9.2,0,13.8
	c0,1.5,0.4,1.9,1.9,1.8c4.5-0.1,9-0.1,13.5,0c1.8,0.1,2.1-0.7,2-2.2C103.7,103.1,103.8,100.9,103.8,98.8z"/>
<path class="st1" d="M95.1,136c3,0,6,0.1,8.9,0c1.6,0,2.3,0.3,2.3,2.1c-0.1,5.8,0,11.6,0,17.3c0,1.8-0.8,2.6-2.6,2.6
	c-5.8,0-11.5,0-17.3,0c-1.8,0-2.6-0.9-2.6-2.6c0-5.8,0.1-11.6,0-17.3c0-1.6,0.6-2.1,2.1-2C89,136,92.1,136,95.1,136z M103.8,146.8
	c0-2.4,0-4.8,0-7.1c0-1.2-0.3-1.6-1.6-1.6c-4.8,0.1-9.5,0.1-14.3,0c-1.3,0-1.6,0.5-1.6,1.6c0.1,4.7,0.1,9.4,0,14
	c0,1.3,0.3,1.8,1.7,1.8c4.7-0.1,9.3-0.1,14,0c1.4,0,1.7-0.5,1.7-1.8C103.7,151.3,103.8,149,103.8,146.8L103.8,146.8z"/>
<path class="st1" d="M138.5,194.2c-10.6,0-21.1,0-31.6,0c-0.9,0-2.4,0.4-2.4-1c0-1.2,1.2-1.6,2.5-1.6c20.9,0,41.8,0,62.8,0
	c0.6,0,1.2,0.1,1.7,0.3c0.6,0.2,1,0.9,0.9,1.6c-0.1,1-0.8,0.7-1.3,0.7c-4.9,0-9.9,0-14.8,0L138.5,194.2z"/>
<path class="st1" d="M136.1,95.1c8.3,0,16.7,0,25,0c0.7,0,2-0.6,1.9,1.1c-0.1,1.3-0.9,1.4-1.9,1.4h-50.2c-1.1,0-2.4,0-2.4-1.4
	s1.4-1.1,2.4-1.1C119.2,95.1,127.7,95.1,136.1,95.1z"/>
<path class="st1" d="M122,168.6c-4.5,0-9,0-13.5,0c-0.6,0-1.6,0.5-1.7-0.9c0-1.2,0.5-1.7,1.7-1.7h27.3c1,0,1.7,0.3,1.6,1.4
	s-1,1.2-1.9,1.2C131.1,168.6,126.6,168.6,122,168.6z"/>
<path class="st1" d="M122.7,103.8c-3.9,0-7.8,0-11.7,0c-1.1,0-2.5,0-2.5-1.3c0-1.7,1.5-1.2,2.5-1.2c8,0,16,0,23.9,0
	c0.7,0,2-0.7,2.1,0.9c0,1.4-1.1,1.6-2.1,1.6C130.8,103.8,126.8,103.8,122.7,103.8z"/>
<path class="st1" d="M91.8,194.2c-2,0-4.1,0-6.1,0c-0.8,0-1.7,0-1.8-1c0-0.8,0.6-1.5,1.4-1.5c4.3-0.1,8.6-0.1,12.9,0.1
	c0.5,0,1.6,0.3,1.3,1.4c-0.2,0.7-0.8,1.1-1.5,1C96,194.2,93.9,194.2,91.8,194.2z"/>
<path class="st2" d="M129.9,74.7c-5.6,0-11.2,0-16.8,0c-1.6,0-2.2-0.2-2.2-2c0.1-4.7,0.1-9.3,0-14c0-1.4,0.3-1.9,1.8-1.9
	c11.6,0.1,23.1,0.1,34.7,0c1.4,0,1.9,0.2,1.9,1.8c-0.1,4.8-0.1,9.5,0,14.3c0.1,1.7-0.6,1.9-2.1,1.9
	C141.4,74.6,135.7,74.7,129.9,74.7z"/>
<path class="st2" d="M129.8,52.2c7.1,0,14.3,0,21.4,0c1.6,0,2.2,0.4,2.1,2.1c-0.2,2,0,3.9,0,5.9c0,0.7,0,1.3-1,1.3s-1.1-0.6-1-1.3
	c0-0.2,0-0.3,0-0.5c-0.1-5.4-0.1-5.4-5.6-5.4c-11.6,0-23.1,0-34.7,0c-2,0-2.8,0.5-2.6,2.6c0.1,1.2,0,2.4,0,3.6c0,0.8-0.2,1-1,1
	s-1-0.3-1-1c0-2.4,0-4.8,0-7.1c0-1.5,1.1-1,1.8-1C115.4,52.2,122.6,52.2,129.8,52.2z"/>
<path class="st2" d="M130,40.4c4.7,0.2,8.6,3.4,9.9,7.9c0.2,0.6,0.3,1.4-0.6,1.2s-1.8,0.8-2.4-0.9c-1.4-3.8-3.8-5.3-7.5-5.2
	c-2.7,0.1-5.8,2.3-6.2,4.9c-0.3,2-1.6,1.2-2.4,1.1c-1.3-0.1-0.8-1.2-0.5-1.9C121.7,43.4,125.6,40.5,130,40.4z"/>
<path class="st2" d="M125.7,49.6c0.5-2.1,2.4-3.6,4.5-3.5c2.1,0,3.3,1.5,4.1,3.5H125.7z"/>
<path class="st3" d="M176.4,184.5c-19.6,0.1-35.6-15.6-35.7-35.2c0-0.1,0-0.3,0-0.4c0-19.5,15.6-36.7,37.8-35.9
	c17.3,0.6,34.7,15.7,34.1,37.4C212.1,167.6,196.3,185.4,176.4,184.5z M198.1,125.2c-0.3,0.3-0.6,0.5-0.8,0.7
	c-8.5,8.5-17.1,17.1-25.6,25.7c-1.1,1.2-1.8,1.3-3,0c-3.6-3.8-7.3-7.4-11-11.1c-0.9-1-1.5-1.3-2.6-0.1c-2.6,2.8-5.4,5.5-8.1,8.1
	c-0.9,0.8-1,1.3-0.1,2.2c6.9,6.8,13.8,13.7,20.6,20.6c1,1,1.7,1,2.7,0c11.9-11.9,23.8-23.8,35.7-35.7c0.9-0.9,1-1.5,0-2.4
	C203.4,130.6,200.8,127.9,198.1,125.2z"/>
<path class="st2" d="M180.6,241.7c-4,0.4-1.8-2.7-2.2-4.2c-0.3-1.2-0.5-2.7,1.8-2.5c3,0.2,4.8,1.4,4.8,3.5S183.6,241.7,180.6,241.7z
	"/>
<path class="st2" d="M194.7,242.5c-0.1-1.6-0.1-3.2,0.1-4.8c0.1-0.9-1.1-2.5,1.2-2.6c2.6-0.1,4.8,0.8,4.9,2.4
	c0.2,3.6,0.2,7.1,0,10.7c-0.3,2.8-2.8,2.2-4.7,2.3c-2.2,0.1-1.2-1.6-1.3-2.5C194.6,246.1,194.7,244.3,194.7,242.5z"/>
<path class="st2" d="M145.7,242.4c0-1.9,0.1-3.8,0-5.6s0.7-1.9,2.1-1.8c3.4,0.4,4.1,1.1,4.1,4.6c0,2.6-0.1,5.3,0,7.9
	c0.1,1.2-0.7,2.3-1.9,2.7c-1.3,0.3-2.7,0.3-4,0c-0.5-0.1-0.3-0.9-0.3-1.4C145.6,246.7,145.7,244.6,145.7,242.4z"/>
<path class="st2" d="M167.5,245.7h-4.8c0.7-2.6,1.4-5.1,2.3-8.4C166,240.6,166.7,243.1,167.5,245.7z"/>
<path class="st2" d="M112.6,245.8l2.2-7.8c1.4,2.3,1.5,4.6,2.3,6.7c0.3,0.8-0.2,1.2-1.1,1.1C114.8,245.7,113.8,245.8,112.6,245.8z"
	/>
<path class="st3" d="M95.2,179.4c-2.1,0-4.3-0.1-6.4,0c-1.8,0.1-2.6-0.2-2.5-2.3c0.2-4.4,0.1-8.9,0-13.3c0-1.4,0.4-1.9,1.8-1.9
	c4.6,0.1,9.2,0.1,13.8,0c1.2,0,1.8,0.2,1.8,1.6c-0.1,4.7-0.1,9.4,0,14c0,1.3-0.4,1.8-1.7,1.7C99.8,179.3,97.5,179.4,95.2,179.4z"/>
<path class="st3" d="M103.8,123.3c-0.2,2.3,1.2,6-0.5,7.6c-1.5,1.4-5.2,0.4-7.9,0.4c-2.5,0-4.9,0-7.4,0c-1.2,0-1.6-0.4-1.6-1.6
	c0.1-4.8,0.1-9.5,0-14.3c0-1.3,0.5-1.5,1.7-1.5c4.7,0,9.4,0.1,14,0c1.3,0,1.8,0.4,1.7,1.7C103.7,118.1,103.8,120.4,103.8,123.3z"/>
<path class="st4" d="M103.8,98.8c0,2.1-0.1,4.3,0,6.4c0.1,1.6-0.2,2.3-2,2.2c-4.5-0.1-9-0.1-13.5,0c-1.4,0-1.9-0.4-1.9-1.8
	c0.1-4.6,0.1-9.2,0-13.8c0-1.5,0.5-1.8,1.9-1.8c4.6,0.1,9.2,0.1,13.8,0c1.3,0,1.8,0.3,1.7,1.7C103.7,94,103.8,96.4,103.8,98.8z"/>
<path class="st3" d="M103.8,146.7c0,2.3-0.1,4.6,0,6.9c0,1.3-0.3,1.8-1.7,1.8c-4.7-0.1-9.3-0.1-14,0c-1.4,0-1.7-0.4-1.7-1.8
	c0.1-4.7,0.1-9.4,0-14c0-1.2,0.3-1.6,1.6-1.6c4.8,0.1,9.5,0.1,14.3,0c1.2,0,1.6,0.4,1.6,1.6C103.7,142,103.8,144.4,103.8,146.7z"/>
<path class="st1" d="M198.1,125.2c2.7,2.7,5.2,5.4,7.9,8c1,0.9,0.9,1.5,0,2.4c-11.9,11.9-23.9,23.8-35.7,35.7c-1,1-1.7,1.1-2.7,0
	c-6.8-6.9-13.7-13.7-20.6-20.5c-0.9-0.9-0.8-1.4,0.1-2.2c2.8-2.7,5.5-5.3,8.1-8.1c1.1-1.1,1.7-0.8,2.6,0.1c3.6,3.7,7.4,7.3,11,11.1
	c1.2,1.2,1.8,1.1,3,0c8.5-8.6,17-17.1,25.6-25.7C197.5,125.7,197.8,125.5,198.1,125.2z M198.1,128.8c-0.5,0.4-0.8,0.8-1.2,1.1
	c-8.4,8.4-16.8,16.7-25,25.1c-1.4,1.4-2.1,1.4-3.4,0c-2.2-2.4-4.5-4.6-6.8-6.9c-1.7-1.6-3.4-4.6-5.1-4.5c-1.8,0.1-3.4,3-5.1,4.6
	c-1.2,1.1-1.3,1.8-0.1,3c5.4,5.3,10.8,10.6,16.1,16.1c1.3,1.3,2,1.4,3.4,0c9.1-9.3,18.4-18.4,27.5-27.7c1.7-1.7,4.9-3.3,4.6-5.3
	S199.8,130.6,198.1,128.8L198.1,128.8z"/>
<path class="st4" d="M198.1,128.8c1.8,1.9,4.6,3.5,4.9,5.6s-2.9,3.6-4.6,5.3c-9.2,9.2-18.4,18.4-27.5,27.7c-1.4,1.4-2.1,1.3-3.4,0
	c-5.3-5.4-10.6-10.8-16.1-16.1c-1.2-1.2-1.2-1.9,0.1-3c1.8-1.6,3.4-4.6,5.1-4.6c1.6-0.1,3.4,2.9,5.1,4.5c2.3,2.3,4.7,4.5,6.8,6.9
	c1.3,1.4,2,1.4,3.4,0c8.3-8.4,16.7-16.8,25-25.1C197.2,129.6,197.6,129.2,198.1,128.8z"/>
</svg>
