<svg id="Layer_1" data-name="Layer 1" xmlns="http://www.w3.org/2000/svg" viewBox="0 0 300 300"><defs><style>.cls-1{fill:#fefefe;}.cls-2{fill:#f3f6f7;}.cls-3{fill:#231f20;}.cls-4{fill:#6ea3a3;}.cls-5{fill:#f5d755;}</style></defs><path class="cls-1" d="M283.57,150q0,65.75,0,131.49c0,1.65-.18,2.15-2,2.15q-131.62-.09-263.24,0c-1.63,0-1.94-.41-1.94-2q.06-131.62,0-263.25c0-1.9.6-2,2.18-2q131.49.08,263,0c1.78,0,2.08.39,2.08,2.11Q283.53,84.24,283.57,150ZM134.4,151.21c.57-.85,1.87-1.7,0-2.57l0-3.56c.4-.76,1.65-1.34.51-2.43a33.22,33.22,0,0,1,2.05-8.77c.72-2.24,2.33-4.11,2.58-6.52,1-.39,1.05-1.26,1.11-2.13,1.76-.81,2.66-2.37,3.48-4,1.07-.32,2.37-.42,2-2.11.52-.42,1.07-.82,1.56-1.27a42.4,42.4,0,0,1,27.67-11.54c.52.41.7,1.45,1.69,1s.8-1.36.8-2.2c0-14,0-27.92,0-41.88,0-1.76-.69-1.86-2.08-1.85-6,.06-12.09,0-18.13.06-1.44,0-1.9-.38-1.83-1.83.11-2.63,0-5.28.05-7.91,0-1.58-.58-2.1-2.11-2.06-3.23.07-6.46,0-9.7,0-1,0-1.26-.2-1.57-1.3-1.47-5.27-4.39-8.78-10.26-10.16-5.41-1.27-13.78,3-14.63,10-.15,1.27-.48,1.52-1.63,1.49-3.15-.06-6.31.13-9.45-.07-2-.13-2.43.59-2.3,2.41.16,2.21-.1,4.44.08,6.64s-.3,2.88-2.68,2.82c-7.14-.2-14.3,0-21.44-.12-2.34,0-3,.55-3,3q.1,67.55,0,135.09c0,2.36.6,3,3,3,29.71-.09,59.42-.06,89.13-.06,2.21,0,4.42,0,6.63,0,1.44,0,2-.55,1.94-2-.07-2.22-.12-4.44,0-6.64a1.78,1.78,0,0,0-1.56-2.09c-.46-.69-1.18-.52-1.84-.57a43.25,43.25,0,0,1-19.21-5.85,51,51,0,0,1-12.22-10.51c.27-1.58-.05-2.71-2-2.62-.21-.45-.39-.91-.64-1.34C137,164.71,134.64,158.29,134.4,151.21ZM176.66,187c21.38.52,38-17,38.45-37a38.2,38.2,0,0,0-36.57-39.64c-23.28-.93-38.73,17.34-40.13,35.09C136.45,170.38,157.43,188.07,176.66,187ZM128.3,240.39c2.32,4.37,4.37,8.18,6.37,12a2.25,2.25,0,0,0,2.54,1.46c1.14-.24,1.34-1.16,1.33-2.29-.06-5.69,0-11.39,0-17.08,0-1.32.15-2.58-1.85-2.55s-1.72,1.42-1.73,2.65c0,3.29,0,6.59,0,9.88-1.72-2.67-3-5.33-4.4-8a15.38,15.38,0,0,0-2.07-3.65,2.62,2.62,0,0,0-2.73-.85c-1.26.27-1,1.37-1,2.28,0,5.78,0,11.56,0,17.34,0,1.49.57,2.27,1.91,2.24s1.78-.77,1.73-2.16C128.22,248.15,128.3,244.58,128.3,240.39Zm46.48,2.37c0,3,0,5.94,0,8.92,0,1.3.63,2.2,1.88,2.2s1.86-.75,1.73-2.15a21.25,21.25,0,0,1,0-4.58c.09-.8-.91-2.1.84-2.42,1.52-.27,2.07.69,2.62,1.78,1,2.06,2,4.16,3.18,6.13.46.76,1.21,1.9,2.44,1.05a2,2,0,0,0,.69-3,44.26,44.26,0,0,0-2.62-4.76c-.62-.84-1.07-1.77.5-2.52,2.9-1.37,2.61-4.17,2.48-6.73-.11-2.17-1.64-3.4-3.51-4.12-2.59-1-5.33-.36-8-.57-1.86-.16-2.35.67-2.29,2.38C174.85,237.15,174.78,240,174.78,242.76Zm16.34,0v4.84c0,6.94,0,6.94,7,6.38h.26c3.91-.82,6.4-1.82,6.08-6.85-.2-3.13,0-6.29,0-9.43A5.44,5.44,0,0,0,199,232c-1.95-.09-3.91.06-5.86,0-1.57-.08-2.11.55-2.07,2.09C191.18,236.93,191.12,239.83,191.12,242.72Zm-49,.24v4.58c0,6.91,0,6.91,6.94,6.4,4-.29,6.26-2.25,6.32-5.57.07-3.65.08-7.3,0-10.94a5,5,0,0,0-3.74-5c-2.48-.85-5-.29-7.49-.5-1.57-.13-2.09.56-2.05,2.08C142.14,237,142.09,240,142.09,243Zm31.13,8.86a3.28,3.28,0,0,1-.39-.69q-2.61-8.74-5.22-17.48a2.24,2.24,0,0,0-2.45-1.7,2.34,2.34,0,0,0-2.64,1.79c-1.69,5.67-3.3,11.36-5.18,17-.56,1.67-.39,2.48,1.21,3.08,1.8.67,2.28-1,2.33-1.82.2-3.11,2-3.25,4.47-3.21,2.15,0,3.62.27,3.82,2.74a2.48,2.48,0,0,0,.59,1.58c.55.44,1.13,1.23,2.14.53C172.52,253.17,173.31,253,173.22,251.82ZM123,252a1.62,1.62,0,0,1-.28-.42c-1.78-6-3.53-11.94-5.34-17.9a2.09,2.09,0,0,0-2.35-1.78c-1.35.09-2.21.48-2.61,1.83-1.69,5.65-3.28,11.34-5.18,16.93-.64,1.86-.22,2.78,1.42,3.15s1.93-1.2,2.2-2.36c.22-.95.31-2.41,1.06-2.52a15.33,15.33,0,0,1,5.81.07c1.24.28,1.15,2,1.35,3.22a2,2,0,0,0,2.21,1.57A2,2,0,0,0,123,252Zm90.09,1.9c4.53.31,6.18-2,7-4.44a7,7,0,0,0-3.51-8.07c-1.3-.69-2.72-1.14-4-1.8-1-.51-2-1.26-1.71-2.58s1.51-1.84,2.81-2a5.9,5.9,0,0,1,3.09.8c1,.43,2.35.67,2.85-.64s-.25-2.27-1.56-2.7a12.82,12.82,0,0,0-7.61,0c-2.68.74-3.79,4.58-3.19,6.71.8,2.77,3,4.14,5.44,5a7.26,7.26,0,0,1,3.26,2.19c1.3,1.46.8,2.67-.69,3.64-2.2,1.42-4.07.62-5.77-.93-.67-.62-1.38-1.24-2.13-.35-.59.7-1.29,1.49-.47,2.62a5.15,5.15,0,0,0,1.78,1.66A7.81,7.81,0,0,0,213.13,253.93ZM87.23,232c-5.77-.59-8.88,3.8-6.91,8.54,1.11,2.65,3.93,3.17,6.23,4.12a3.83,3.83,0,0,1,2.7,3.44c0,1.66-1.71,2.43-3.17,2.66a3.91,3.91,0,0,1-3.52-1.43c-.77-.9-1.57-1.6-2.69-.35s-.77,2.1.27,3c2.4,2.18,5.31,2.3,8.23,1.72,4.48-.88,6-7.83,2.78-10.75-1.93-1.71-4.41-2.19-6.38-3.67s-1.86-2.65.27-3.81a4.42,4.42,0,0,1,4,.05c1,.4,2.16,1.52,3-.43s-.53-2.18-1.87-2.79C89.08,231.83,88,232.19,87.23,232Zm12,12.46c0,2.46.1,4.93,0,7.39a1.69,1.69,0,0,0,1.86,2c1.18,0,1.83-.67,1.79-2.11-.12-4-.06-8,0-12,0-1.34-.3-2.93.3-3.94.51-.85,2.2-.18,3.35-.31a2,2,0,0,0,2-2.18c0-1.51-1.15-1.4-2.18-1.39-3.23,0-6.46,0-9.68,0-1.36,0-3-.22-2.89,1.73.07,1.76,1.54,2,3,1.86.26,0,.52,0,.77,0,1.42-.23,1.91.31,1.84,1.78C99.09,239.7,99.18,242.08,99.18,244.46Zm91.42-51.79c.12-.79-.29-1.3-1-1-1.09.47-2.95-.12-3.06,1.83-.06,1,1.34,1.24,1.58,1.08C189,194,190.81,194.52,190.6,192.67Zm-4.76-89.94c-.8.13-1.49.47-1.32,1.43s.76,1.68,1.66,1.55.84-1.06.88-1.85S186.74,102.62,185.84,102.73Zm36.69,47.53c.78-.08,1.27-.48,1.27-1.28a1.27,1.27,0,0,0-2.53,0A1.22,1.22,0,0,0,222.53,150.26Zm-.22-13c-.09-.66-.38-1.22-1.2-1.28a1.26,1.26,0,0,0-.21,2.52C221.71,138.57,222.12,138.09,222.31,137.25Zm-33.22,68c-.05-.81-.44-1.3-1.24-1.33a1.26,1.26,0,1,0-.1,2.52A1.22,1.22,0,0,0,189.09,205.23Zm-1.29-5.44a1.22,1.22,0,0,0-1.26,1.29,1.26,1.26,0,1,0,2.52,0C189.07,200.27,188.58,199.87,187.8,199.79Zm35.9-54.86c-.45-.36-.16-1.36-1.14-1.31s-1.28.58-1.31,1.45c0,.66.07,1,.9,1.14C223.25,146.36,223.25,145.44,223.7,144.93ZM187,73.18c.06-.78-.2-1.52-1-1.5a1.58,1.58,0,0,0-1.48,1.46c0,.78.7,1,1.45,1S187.14,73.94,187,73.18ZM137.91,206.94c.71.16,1.11-.09,1.13-1s-.62-1-1.32-1-1.28,0-1.28,1.06S137.06,207,137.91,206.94Zm-11.75-2c-.73,0-1.44-.18-1.46.93,0,.95.38,1.18,1.21,1.12.65-.06,1.37.17,1.39-.94C127.31,205.08,126.93,204.8,126.16,204.91Zm95-45.47c-.58.1-1.32-.3-1.43.85a1.24,1.24,0,0,0,1.2,1.49,1.57,1.57,0,0,0,1.38-1.5C222.37,159.34,221.7,159.46,221.12,159.44Zm-105.6,46.41c.09-1.18-.76-.88-1.38-.95-.87-.09-1.2.24-1.19,1.14,0,1.14.78.85,1.42.91C115.23,207,115.68,206.74,115.52,205.85ZM102.26,207c.76-.05,1.52.22,1.54-.91,0-.91-.3-1.24-1.18-1.15-.63.07-1.4-.23-1.41.91C101.2,206.7,101.5,207.08,102.26,207Zm-11.85-2.07c-.76-.21-.92.33-.94,1.15,0,1.14.77.85,1.4.91.87.09,1.2-.23,1.18-1.14C92,204.68,91.27,205,90.41,204.89Zm97.73-6.62c.68.09.88-.24,1-1,.13-1.1-.81-1-1.3-1.48-.36.48-1.41.23-1.28,1.24S187.21,198.29,188.14,198.27Zm1.55-91.9c.47-.46,1.33-.76,1.36-1.57s-.69-1-1.44-1-1.08.19-1.06,1A1.54,1.54,0,0,0,189.69,106.37Zm-3.57-8.73c.85.12.94-.4.92-1.08s-.31-1.48-1.07-1.38a1.58,1.58,0,0,0-1.4,1.54C184.63,97.48,185.36,97.72,186.12,97.64Zm-.23-3.57A1.29,1.29,0,0,0,187,92.66c0-.62,0-1.18-.88-1.16-.74,0-1.47.15-1.59.88S185.34,93.58,185.89,94.07Zm.2-14.3c-.78,0-1.52.19-1.52,1a1.57,1.57,0,0,0,1.44,1.5c.77.06,1-.67,1-1.42S186.87,79.66,186.09,79.77ZM187,85c.05-.78-.19-1.52-1-1.52a1.57,1.57,0,0,0-1.5,1.44c-.06.77.67,1,1.43,1S187.14,85.73,187,85Zm0,3.83a1.28,1.28,0,0,0-1.19-1.35c-1-.17-.77.91-1.28,1.23.47.37.2,1.38,1.17,1.32A1.26,1.26,0,0,0,187,88.78Zm-1.23,10.4c-1-.16-.73,1-1.26,1.27.52.32.24,1.39,1.24,1.28a1.21,1.21,0,0,0,1.23-1.27A1.19,1.19,0,0,0,185.81,99.18Zm-12.5,105.73c-.94,0-1.51.32-1.59,1.25s.62.76,1.16.79c.79,0,1.49.06,1.41-1.1C174.24,205.08,174,204.81,173.31,204.91Zm-11.95,0c-.87,0-1.42.45-1.37,1.35,0,1.12,1,.58,1.51.68.95.16,1-.45,1-1.2S162,204.89,161.36,204.91ZM187,77a1.27,1.27,0,0,0-1.2-1.34c-1-.16-.76.92-1.27,1.25.48.35.21,1.37,1.18,1.3A1.26,1.26,0,0,0,187,77ZM79.34,206.89c.16,0,1,.34.93-.79A1.23,1.23,0,0,0,79,204.91c-.74,0-1.25,0-1.25,1S78.15,207,79.34,206.89Zm71.42-1c.06-.46,0-1-.83-1s-1.49.18-1.69,1.08.24,1.06,1,1S150.82,207.33,150.76,205.87Zm72.56-49.36c-.75-.07-.25-1.15-1.14-1.15s-1.41.45-1.42,1.35c0,.52-.24,1.25.76,1.2S222.73,157.14,223.32,156.51ZM123.18,205.87c.1-.75-.25-1-1-1s-1.45.24-1.47,1c0,.92.75,1.09,1.57,1.11S123.25,206.53,123.18,205.87ZM94.69,207c.7,0,1.39-.28,1.35-1.06s-.69-1-1.43-1c-1-.06-1,.43-1.06,1.2S94.05,207,94.69,207Zm5-.93c0-.64,0-1.15-.85-1.14s-1.61.16-1.61,1.07c0,.73.69,1,1.43,1S99.79,206.82,99.68,206Zm5.64-.17c-.06.66,0,1.13.88,1.1s1.61-.17,1.58-1.09c0-.73-.72-1-1.46-1S105.22,205.1,105.32,205.86Zm6.1.08c.09-.55,0-1.06-.83-1s-1.6.14-1.62,1c0,.74.68,1,1.42,1S111.54,206.85,111.42,205.94Zm6.77,1c.69,0,1.39-.28,1.35-1.06s-.7-1-1.44-1c-1-.06-1,.43-1,1.2S117.55,207,118.19,207Zm11.49-2.06c-.41-.07-.89,0-.88.86s.06,1.28,1,1.21c.74-.05,1.41-.26,1.44-1S130.66,204.9,129.68,204.9Zm4.29,0c-.75-.1-1.42.2-1.51.91s.55,1.07,1.29,1.12,1.25-.09,1.2-1C134.92,205.21,134.76,204.8,134,204.92Zm-46,1c.14-.62-.09-1-.89-1s-1.6.19-1.55,1.11c0,.72.74.94,1.48,1S88,206.71,87.92,205.87Zm53.51-1c-.41-.07-.89,0-.89.86s.07,1.28,1.05,1.21c.73-.05,1.4-.26,1.44-1S142.41,204.9,141.43,204.9Zm13.46.94c-.32-.47-.64-1-1.45-.94-.59,0-1.16-.05-1.15.84,0,.72,0,1.29,1,1.23A1.54,1.54,0,0,0,154.89,205.84ZM165.16,207c.75,0,1.39-.31,1.37-1s-.7-1-1.44-1c-1-.06-1,.43-1.05,1.2S164.54,207,165.16,207Zm57.07-55.16c-.75-.11-1,.26-1,1,0,.92.38,1.12,1.18,1.07s1.39-.35,1.31-1.12S223,151.71,222.23,151.79Zm-27.54-45.61c-.55-.31-.27-1.52-1.14-1.29-.45.12-1.57.21-1.31,1.07.15.51.23,1.59,1.35,1.38A1.25,1.25,0,0,0,194.69,106.18ZM176.78,206.94c.77.08,1.43-.21,1.49-.94s-.58-1.05-1.32-1.1-1.21.17-1.17,1.08C175.81,206.72,176,207.06,176.78,206.94ZM186,206c0-.62,0-1.16-.84-1.15s-1.61.15-1.63,1.06c0,.74.68,1,1.42,1S186.11,206.85,186,206Zm35.47-41.35c-.49-.64-.78-1.36-1.27-1.56s-1.39.47-1.39.72a2.06,2.06,0,0,0,.81,1.61C220,165.62,220.73,165,221.48,164.69Zm.36-24.66c-.37.1-1-.2-1.08.61a1.22,1.22,0,0,0,1.11,1.43,1.1,1.1,0,0,0,1.35-.87C223.33,140.39,222.67,140.07,221.84,140Zm-4.15-13.77a1.33,1.33,0,0,0-1.31-1c-.77,0-.72.5-.74,1,0,.76.23,1.43,1,1.46C217.31,127.73,217.66,127.17,217.69,126.26Zm3.41,7a2,2,0,0,0-1.39-.85c-.74-.21-1,.18-1,.93-.12,1,.54,1.19,1.12,1.33C220.73,134.9,220.6,133.88,221.1,133.26ZM145.79,207c.8.12.89-.38.91-1.06s-.3-.94-1-1c-1-.09-1.23.67-1.29,1.19C144.28,206.91,145.08,207,145.79,207Zm-61.54-.82c-.45-.39-.3-1.37-1.31-1.24-.62.08-1.19,0-1.13.9,0,.59-.07,1.19.85,1.17C83.37,207,84,206.87,84.25,206.13Zm134.24-39.56c-.05.77-1.44.18-1.22,1.15.11.48.17,1.42,1.1,1.42.61,0,1.38-.29,1.09-.88S219.63,166.79,218.49,166.57Zm-1.77,6.12a1.18,1.18,0,0,0,.94-1.4c-.08-.66-.51-1.2-1.16-1s-.9.88-.88,1.63S215.93,172.79,216.72,172.69ZM181.91,206c.06-.54.05-1.08-.82-1.08s-1.26.09-1.22,1c0,.72.22,1,1,1S182,206.87,181.91,206Zm-11.75,0c.06-.54.06-1.08-.82-1.08s-1.26.09-1.22,1c0,.72.23,1,1,1S170.27,206.87,170.16,206Zm-11.74,0c.09-.71-.16-1.06-.94-1s-1.1,0-1.11.89.18,1.22,1.09,1.18C158.21,206.93,158.52,206.66,158.42,205.94Zm40-16.68c-1.06-.26-2-.48-2.55.57-.34.67.3,1.14.87,1.24C198,191.3,197.88,190.06,198.38,189.26Zm2.94-1.34c.16-.71-.28-.86-1-.91-.94,0-1.06.42-1.06,1.2s.52.85,1.13.87C201.21,189.11,201.41,188.7,201.32,187.92Zm9.19-7.15c.16-.72-.27-.86-1-.91-.94-.05-1.06.42-1.06,1.2s.51.84,1.13.87C210.41,182,210.61,181.55,210.51,180.77Zm5.11-6c.14-.6-.06-1-.87-1-.58,0-1.17-.07-1.16.83,0,.73,0,1.27,1,1.23C215.3,175.78,215.73,175.63,215.62,174.74Zm2.48-45.93a1.37,1.37,0,0,0-.93,1.34c0,.77.57.61,1,.71,1,.19,1.18-.66,1.28-1.17S219,128.79,218.1,128.81Zm-3.62-4.61c.62,0,1.18,0,1.17-.84s-.08-1.26-1-1.22c-.71,0-1,.23-1,1S213.67,124.29,214.48,124.2Zm-4.77-6.14c.75.15.79-.38.83-1,.07-1-.52-1-1.24-1-.9,0-.78.61-.81,1.18C208.43,118.06,209,118.12,209.71,118.06Zm-8.37-8.61c-.06-.45.11-1.26-.64-1-.48.18-1.4.19-1.4,1.14,0,.68.35,1.24,1,1.25C201.06,110.87,201.35,110.21,201.34,109.45Zm-5.73-2.35c.58.63.21,2,1.63,1.75.62-.09,1.23-.6.95-1.21C197.72,106.63,196.75,106.67,195.61,107.1Zm17.47,70.84c0-.63,0-1.18-.86-1.13-.57,0-1.18-.1-1.18.8,0,.71,0,1.31,1,1.26C212.7,178.84,213.17,178.74,213.08,177.94Zm-19.64,12.67a1.09,1.09,0,0,0-1.23,1c-.05.65.49,1,1.14,1.07.89.15,1-.64,1.06-1.08C194.58,190.94,194.08,190.63,193.44,190.61ZM205,185.27c-1.21-.56-2-.41-2.41.82-.16.51.26.75.6.85C204.75,187.38,204.44,185.94,205,185.27Zm7.07-66.17c-.57,0-1.08,0-1,.75a1.23,1.23,0,0,0,1.22,1.28c.92.09.78-.57.82-1.14C213.15,119.16,212.67,119,212.06,119.1Z"/><path class="cls-2" d="M134.4,145.08l0,3.56c-8.51,0-17,0-25.52.11-.72,0-2-.72-2.06,1,0,1.46.9,1.58,2,1.57l25.52-.07c.24,7.08,2.58,13.5,6,19.58.25.43.43.89.64,1.34l-32.14.08c-1.11,0-2.08,0-2.09,1.53,0,1.71,1.3,1,2,1,11.4,0,22.8,0,34.19,0a51,51,0,0,0,12.22,10.51,43.25,43.25,0,0,0,19.21,5.85c.66,0,1.38-.12,1.84.57-1.64,1.49-1.08,3.47-1,5.23.13,2.2-.37,3-2.81,3q-45.06-.15-90.12,0c-2.36,0-2.69-.7-2.68-2.81q.09-52.45,0-104.92c0-8.77,0-17.53,0-26.3,0-1.3.12-1.95,1.72-1.94q12.65.13,25.28,0c1.4,0,1.69.47,1.65,1.75-.08,2.8.11,5.62-.07,8.42-.13,2,.31,2.72,2.55,2.69,12.68-.12,25.36-.09,38,0,1.8,0,2.56-.26,2.41-2.3-.2-2.79,0-5.61-.08-8.42-.08-1.61.32-2.16,2.06-2.13,6.55.11,13.1.12,19.65,0,1.88,0,2.39.41,2.38,2.35-.08,13.36,0,26.72,0,40.07a42.4,42.4,0,0,0-27.67,11.54c-.49.45-1,.85-1.56,1.27a2.83,2.83,0,0,0-1.88-.54c-3.23,0-6.46,0-9.68,0q-13,0-26,0c-.73,0-1.82-.43-1.73,1.07a1.38,1.38,0,0,0,1.63,1.47c.6,0,1.19,0,1.79,0l33.88.08c-.82,1.64-1.72,3.2-3.48,4-1.17-1-2.57-.48-3.84-.49-9.43,0-18.85,0-28.27,0-.75,0-1.81-.4-1.71,1.08a1.38,1.38,0,0,0,1.65,1.46c.59,0,1.19,0,1.78,0l29.28.09c-.25,2.41-1.86,4.28-2.58,6.52a33.22,33.22,0,0,0-2.05,8.77c-8.67,0-17.34-.06-26,0-.72,0-2-.73-2.05,1,0,1.47.92,1.57,2.05,1.56ZM95.08,159.45c-3.06,0-6.12,0-9.17,0-1.33,0-2.08.3-2.07,1.83,0,6.11,0,12.23,0,18.34,0,1.3.49,1.83,1.8,1.82q9.43,0,18.86,0c1.28,0,1.84-.46,1.84-1.79,0-5.94,0-11.88,0-17.83,0-1.78-.74-2.49-2.6-2.39C100.86,159.56,98,159.45,95.08,159.45Zm0-47.5c-3.06,0-6.13,0-9.19,0-1.32,0-2.08.3-2.07,1.83,0,6,0,11.91,0,17.87,0,1.61.65,2.34,2.42,2.32,5.87-.1,11.75-.12,17.62,0,2,0,2.44-.92,2.44-2.56,0-5.79,0-11.58,0-17.36,0-1.53-.49-2.15-2.07-2.11C101.23,112,98.17,112,95.1,112Zm0-2.56c3,0,5.94-.08,8.91,0,1.81.08,2.35-.59,2.33-2.36-.09-5.6-.08-11.2,0-16.8,0-2.06-.82-2.88-2.87-2.85-5.68.06-11.37.11-17.06,0-2.11,0-2.59.9-2.58,2.68,0,5.77.05,11.54,0,17.32,0,1.59.63,2.07,2.13,2C89,109.34,92.07,109.39,95.13,109.39Zm0,26.56c-3.06,0-6.11.05-9.17,0-1.5,0-2.14.44-2.13,2,.07,5.77,0,11.55,0,17.32,0,1.78.71,2.65,2.55,2.64q8.66-.06,17.32,0c1.79,0,2.64-.73,2.63-2.57,0-5.77-.07-11.55,0-17.32,0-1.78-.75-2.15-2.31-2.11C101.08,136,98.1,136,95.13,136Zm43.36,58.23h17.6c4.93,0,9.86,0,14.79,0,.51,0,1.26.3,1.34-.68a1.33,1.33,0,0,0-.87-1.55,3.7,3.7,0,0,0-1.71-.31q-31.37,0-62.75,0c-1.26,0-2.47.39-2.46,1.56,0,1.41,1.49,1,2.42,1Q122.68,194.2,138.49,194.18Zm-2.4-99.09q-12.63,0-25.26,0c-1,0-2.36-.34-2.37,1.12s1.32,1.42,2.42,1.42h50.25c1,0,1.85-.16,1.91-1.45.07-1.71-1.21-1.08-1.95-1.09C152.75,95.08,144.42,95.09,136.09,95.09Zm-14,73.55c4.51,0,9,0,13.53,0,.89,0,1.79,0,1.89-1.16s-.67-1.41-1.65-1.41h-27.3c-1.18,0-1.71.51-1.67,1.69,0,1.34,1.06.84,1.68.85C113,168.66,117.53,168.64,122,168.64Zm.64-64.87c4.07,0,8.14,0,12.21,0,1,0,2.1-.16,2.08-1.56,0-1.65-1.34-.93-2.07-.94-8,0-16,0-23.92,0-1,0-2.56-.44-2.52,1.22,0,1.35,1.43,1.32,2.51,1.32C114.87,103.78,118.77,103.77,122.68,103.77ZM91.81,194.18c2.11,0,4.23,0,6.35,0a1.32,1.32,0,0,0,1.5-1c.26-1.1-.83-1.38-1.34-1.39-4.32-.12-8.63-.13-12.95-.06A1.53,1.53,0,0,0,84,193.22c.06.94,1,1,1.75,1C87.74,194.17,89.77,194.18,91.81,194.18Z"/><path class="cls-3" d="M175.35,106.3c0-13.35-.09-26.71,0-40.07,0-1.94-.5-2.38-2.38-2.35-6.55.13-13.1.12-19.65,0-1.74,0-2.14.52-2.06,2.13.12,2.81-.12,5.63.08,8.42.15,2-.61,2.31-2.41,2.3-12.68-.07-25.36-.1-38,0-2.24,0-2.68-.67-2.55-2.69.18-2.8,0-5.62.07-8.42,0-1.28-.25-1.76-1.65-1.75q-12.65.1-25.28,0c-1.6,0-1.73.64-1.72,1.94,0,8.77,0,17.53,0,26.3q0,52.45,0,104.92c0,2.11.32,2.82,2.68,2.81q45.06-.15,90.12,0c2.44,0,2.94-.75,2.81-3-.1-1.76-.66-3.74,1-5.23a1.78,1.78,0,0,1,1.56,2.09c-.14,2.2-.09,4.42,0,6.64,0,1.41-.5,2-1.94,2-2.21-.07-4.42,0-6.63,0-29.71,0-59.42,0-89.13.06-2.39,0-3-.66-3-3q.1-67.54,0-135.09c0-2.42.7-3,3-3,7.14.14,14.3-.08,21.44.12,2.38.06,2.86-.7,2.68-2.82s.08-4.43-.08-6.64c-.13-1.82.27-2.54,2.3-2.41,3.14.2,6.3,0,9.45.07,1.15,0,1.48-.22,1.63-1.49.85-6.95,9.22-11.24,14.63-10,5.87,1.38,8.79,4.89,10.26,10.16.31,1.1.59,1.31,1.57,1.3,3.24,0,6.47,0,9.7,0,1.53,0,2.16.48,2.11,2.06-.08,2.63.06,5.28-.05,7.91-.07,1.45.39,1.85,1.83,1.83,6-.08,12.09,0,18.13-.06,1.39,0,2.09.09,2.08,1.85-.08,14,0,27.92,0,41.88,0,.84.17,1.75-.8,2.2S175.87,106.71,175.35,106.3ZM129.88,74.66c5.79,0,11.57,0,17.35,0,1.44,0,2.11-.16,2.06-1.88-.14-4.76-.12-9.53,0-14.29,0-1.53-.53-1.77-1.9-1.77q-17.34.07-34.7,0c-1.52,0-1.8.5-1.78,1.88.08,4.68.12,9.36,0,14,0,1.78.6,2.06,2.16,2C118.65,74.61,124.27,74.66,129.88,74.66Zm-.06-22.47c-7.22,0-14.45,0-21.68,0-.72,0-1.83-.48-1.81,1q0,3.57,0,7.14c0,.74.24,1,1,1s1.05-.3,1-1c0-1.19.11-2.39,0-3.57-.23-2.05.6-2.61,2.61-2.59,11.57.08,23.13,0,34.7,0,5.48,0,5.48,0,5.62,5.37a4.34,4.34,0,0,1,0,.51c0,.73,0,1.3,1,1.29s1-.6,1-1.31c0-2-.13-3.92,0-5.87.14-1.71-.47-2.09-2.1-2.07C144.11,52.24,137,52.18,129.82,52.19ZM130,40.44a10.3,10.3,0,0,0-9.68,7.19c-.26.71-.81,1.81.52,1.92.78.06,2.11.91,2.4-1.13.38-2.65,3.45-4.84,6.15-4.92,3.65-.1,6.06,1.37,7.48,5.2.61,1.68,1.63.73,2.42.87s.78-.63.62-1.21A10.89,10.89,0,0,0,130,40.44Zm-4.38,9.12h8.65c-.77-2-2-3.45-4.1-3.45A4.45,4.45,0,0,0,125.65,49.56Z"/><path class="cls-3" d="M176.66,187c-19.23,1-40.21-16.65-38.25-41.52,1.4-17.75,16.85-36,40.13-35.09a38.2,38.2,0,0,1,36.57,39.64C214.61,170,198,187.55,176.66,187Zm-.22-2.55c19.85.93,35.64-16.87,36.14-34.09.63-21.72-16.78-36.78-34.05-37.42-22.18-.83-37.8,16.4-37.81,35.89A35.48,35.48,0,0,0,176.44,184.48Z"/><path class="cls-3" d="M128.3,240.39c0,4.19-.08,7.76,0,11.33,0,1.39-.52,2.14-1.73,2.16s-1.94-.75-1.91-2.24c.08-5.78,0-11.56,0-17.34,0-.91-.24-2,1-2.28a2.62,2.62,0,0,1,2.73.85,15.38,15.38,0,0,1,2.07,3.65c1.37,2.63,2.68,5.29,4.4,8,0-3.29,0-6.59,0-9.88,0-1.23-.34-2.62,1.73-2.65s1.85,1.23,1.85,2.55c0,5.69,0,11.39,0,17.08,0,1.13-.19,2-1.33,2.29a2.25,2.25,0,0,1-2.54-1.46C132.67,248.57,130.62,244.76,128.3,240.39Z"/><path class="cls-3" d="M174.78,242.76c0-2.81.07-5.61,0-8.42-.06-1.71.43-2.54,2.29-2.38,2.66.21,5.4-.43,8,.57,1.87.72,3.4,1.95,3.51,4.12.13,2.56.42,5.36-2.48,6.73-1.57.75-1.12,1.68-.5,2.52a44.26,44.26,0,0,1,2.62,4.76,2,2,0,0,1-.69,3c-1.23.85-2-.29-2.44-1.05-1.18-2-2.15-4.07-3.18-6.13-.55-1.09-1.1-2-2.62-1.78-1.75.32-.75,1.62-.84,2.42a21.25,21.25,0,0,0,0,4.58c.13,1.4-.53,2.15-1.73,2.15s-1.89-.9-1.88-2.2C174.79,248.7,174.78,245.73,174.78,242.76Zm5.81-1.08c3,0,4.34-1,4.4-3.21s-1.76-3.24-4.77-3.48c-2.34-.19-2.11,1.34-1.8,2.52C178.82,239,176.58,242.06,180.59,241.68Z"/><path class="cls-3" d="M191.12,242.72c0-2.89.06-5.79,0-8.67,0-1.54.5-2.17,2.07-2.09,2,.09,3.91-.06,5.86,0a5.44,5.44,0,0,1,5.37,5.67c0,3.14-.16,6.3,0,9.43.32,5-2.17,6-6.08,6.85h-.26c-7,.56-7,.56-7-6.38Zm3.58-.23c0,1.78-.11,3.57,0,5.34.08.92-1,2.62,1.27,2.54,1.92-.08,4.47.57,4.73-2.26a82.72,82.72,0,0,0,0-10.68c-.05-1.65-2.29-2.56-4.87-2.41-2.22.13-1,1.73-1.16,2.64A40.93,40.93,0,0,0,194.7,242.49Z"/><path class="cls-3" d="M142.09,243c0-3,0-5.94,0-8.91,0-1.52.48-2.21,2.05-2.08,2.49.21,5-.35,7.49.5a5,5,0,0,1,3.74,5c.08,3.64.07,7.29,0,10.94-.06,3.32-2.35,5.28-6.32,5.57-6.94.51-6.94.51-6.94-6.4Zm3.57-.51c0,2.12,0,4.25,0,6.37,0,.49-.19,1.32.28,1.38a9.62,9.62,0,0,0,4,0,2.67,2.67,0,0,0,1.87-2.71c-.1-2.63,0-5.26,0-7.9,0-3.5-.66-4.2-4.1-4.55-1.38-.13-2.24,0-2.07,1.82S145.66,240.58,145.66,242.45Z"/><path class="cls-3" d="M173.22,251.82c.09,1.18-.7,1.35-1.32,1.78-1,.7-1.59-.09-2.14-.53a2.48,2.48,0,0,1-.59-1.58c-.2-2.47-1.67-2.71-3.82-2.74-2.51,0-4.27.1-4.47,3.21,0,.86-.53,2.49-2.33,1.82-1.6-.6-1.77-1.41-1.21-3.08,1.88-5.6,3.49-11.29,5.18-17a2.34,2.34,0,0,1,2.64-1.79,2.24,2.24,0,0,1,2.45,1.7q2.63,8.74,5.22,17.48A3.28,3.28,0,0,0,173.22,251.82Zm-5.76-6.08c-.75-2.62-1.47-5.14-2.41-8.4-.92,3.29-1.62,5.81-2.34,8.4Z"/><path class="cls-3" d="M123,252a2,2,0,0,1-1.71,1.8,2,2,0,0,1-2.21-1.57c-.2-1.21-.11-2.94-1.35-3.22A15.33,15.33,0,0,0,112,249c-.75.11-.84,1.57-1.06,2.52-.27,1.16-.41,2.77-2.2,2.36s-2.06-1.29-1.42-3.15c1.9-5.59,3.49-11.28,5.18-16.93.4-1.35,1.26-1.74,2.61-1.83a2.09,2.09,0,0,1,2.35,1.78c1.81,6,3.56,11.94,5.34,17.9A1.42,1.42,0,0,0,123,252Zm-10.46-6.25c1.18,0,2.27-.05,3.36,0,.88.05,1.38-.34,1.09-1.15-.75-2.11-.91-4.43-2.27-6.69Z"/><path class="cls-3" d="M213.13,253.93a7.81,7.81,0,0,1-4.44-.93,5.15,5.15,0,0,1-1.78-1.66c-.82-1.13-.12-1.92.47-2.62.75-.89,1.46-.27,2.13.35,1.7,1.55,3.57,2.35,5.77.93,1.49-1,2-2.18.69-3.64a7.26,7.26,0,0,0-3.26-2.19c-2.48-.82-4.64-2.19-5.44-5-.6-2.13.51-6,3.19-6.71a12.82,12.82,0,0,1,7.61,0c1.31.43,2.06,1.43,1.56,2.7s-1.85,1.07-2.85.64a5.9,5.9,0,0,0-3.09-.8c-1.3.16-2.52.54-2.81,2s.69,2.07,1.71,2.58c1.32.66,2.74,1.11,4,1.8a7,7,0,0,1,3.51,8.07C219.31,252,217.66,254.24,213.13,253.93Z"/><path class="cls-3" d="M87.23,232c.81.19,1.85-.17,3,.33,1.34.61,2.74.71,1.87,2.79s-2,.83-3,.43a4.42,4.42,0,0,0-4-.05c-2.13,1.16-2.24,2.34-.27,3.81s4.45,2,6.38,3.67c3.27,2.92,1.7,9.87-2.78,10.75-2.92.58-5.83.46-8.23-1.72-1-.93-1.31-1.88-.27-3s1.92-.55,2.69.35a3.91,3.91,0,0,0,3.52,1.43c1.46-.23,3.17-1,3.17-2.66a3.83,3.83,0,0,0-2.7-3.44c-2.3-.95-5.12-1.47-6.23-4.12C78.35,235.8,81.46,231.41,87.23,232Z"/><path class="cls-3" d="M99.18,244.46c0-2.38-.09-4.76,0-7.13.07-1.47-.42-2-1.84-1.78-.25,0-.51,0-.77,0-1.45.1-2.92-.1-3-1.86-.07-1.95,1.53-1.75,2.89-1.73,3.22,0,6.45,0,9.68,0,1,0,2.15-.12,2.18,1.39a2,2,0,0,1-2,2.18c-1.15.13-2.84-.54-3.35.31-.6,1-.3,2.6-.3,3.94,0,4-.09,8,0,12,0,1.44-.61,2.11-1.79,2.11a1.69,1.69,0,0,1-1.86-2C99.28,249.39,99.18,246.92,99.18,244.46Z"/><path class="cls-3" d="M144.13,121.22l-33.88-.08c-.6,0-1.19,0-1.79,0a1.38,1.38,0,0,1-1.63-1.47c-.09-1.5,1-1.07,1.73-1.07q13,0,26,0c3.22,0,6.45,0,9.68,0a2.83,2.83,0,0,1,1.88.54C146.5,120.8,145.2,120.9,144.13,121.22Z"/><path class="cls-3" d="M143.05,174.75c-11.39,0-22.79,0-34.19,0-.72,0-2,.71-2-1,0-1.49,1-1.53,2.09-1.53l32.14-.08C143,172,143.32,173.17,143.05,174.75Z"/><path class="cls-3" d="M139.54,127.36l-29.28-.09c-.59,0-1.19,0-1.78,0a1.38,1.38,0,0,1-1.65-1.46c-.1-1.48,1-1.08,1.71-1.08,9.42,0,18.84,0,28.27,0,1.27,0,2.67-.54,3.84.49C140.59,126.1,140.52,127,139.54,127.36Z"/><path class="cls-3" d="M134.4,151.21l-25.52.07c-1.13,0-2.07-.11-2-1.57.05-1.68,1.34-1,2.06-1,8.51-.08,17-.09,25.52-.11C136.27,149.51,135,150.36,134.4,151.21Z"/><path class="cls-3" d="M134.4,145.08l-25.5.07c-1.13,0-2.08-.09-2.05-1.56,0-1.69,1.33-1,2.05-1,8.67,0,17.34,0,26,0C136.05,143.74,134.8,144.32,134.4,145.08Z"/><path class="cls-3" d="M190.6,192.67c.21,1.85-1.59,1.35-2.45,1.91-.24.16-1.64-.09-1.58-1.08.11-1.95,2-1.36,3.06-1.83C190.31,191.37,190.72,191.88,190.6,192.67Z"/><path class="cls-3" d="M185.84,102.73c.9-.11,1.26.22,1.22,1.13s0,1.73-.88,1.85-1.51-.68-1.66-1.55S185,102.86,185.84,102.73Z"/><path class="cls-3" d="M222.53,150.26a1.22,1.22,0,0,1-1.26-1.28,1.27,1.27,0,0,1,2.53,0C223.8,149.78,223.31,150.18,222.53,150.26Z"/><path class="cls-3" d="M222.31,137.25c-.19.84-.6,1.32-1.41,1.24a1.26,1.26,0,0,1,.21-2.52C221.93,136,222.22,136.59,222.31,137.25Z"/><path class="cls-3" d="M189.09,205.23a1.22,1.22,0,0,1-1.34,1.19,1.26,1.26,0,1,1,.1-2.52C188.65,203.93,189,204.42,189.09,205.23Z"/><path class="cls-3" d="M187.8,199.79c.78.08,1.27.48,1.26,1.29a1.26,1.26,0,1,1-2.52,0A1.22,1.22,0,0,1,187.8,199.79Z"/><path class="cls-3" d="M223.7,144.93c-.45.51-.45,1.43-1.55,1.28-.83-.12-.92-.48-.9-1.14,0-.87.38-1.41,1.31-1.45S223.25,144.57,223.7,144.93Z"/><path class="cls-3" d="M187,73.18c.11.76-.26,1-1,1s-1.49-.24-1.45-1a1.58,1.58,0,0,1,1.48-1.46C186.83,71.66,187.09,72.4,187,73.18Z"/><path class="cls-3" d="M137.91,206.94c-.85,0-1.46.07-1.47-1s.52-1.08,1.28-1.06,1.34-.06,1.32,1S138.62,207.1,137.91,206.94Z"/><path class="cls-3" d="M126.16,204.91c.77-.11,1.15.17,1.14,1.11,0,1.11-.74.88-1.39.94-.83.06-1.23-.17-1.21-1.12C124.72,204.73,125.43,204.92,126.16,204.91Z"/><path class="cls-3" d="M221.12,159.45c.58,0,1.25-.11,1.15.83a1.57,1.57,0,0,1-1.38,1.5,1.24,1.24,0,0,1-1.2-1.49C219.8,159.14,220.54,159.54,221.12,159.45Z"/><path class="cls-3" d="M115.52,205.85c.16.89-.29,1.19-1.15,1.1-.64-.06-1.4.23-1.42-.91,0-.9.32-1.23,1.19-1.14C114.76,205,115.61,204.67,115.52,205.85Z"/><path class="cls-3" d="M102.26,207c-.76.12-1.06-.26-1.05-1.15,0-1.14.78-.84,1.41-.91.88-.09,1.19.24,1.18,1.15C103.78,207.18,103,206.91,102.26,207Z"/><path class="cls-3" d="M90.41,204.89c.86.06,1.62-.21,1.64.92,0,.91-.31,1.23-1.18,1.14-.63-.06-1.43.23-1.4-.91C89.49,205.22,89.65,204.68,90.41,204.89Z"/><path class="cls-3" d="M188.14,198.27c-.93,0-1.5-.3-1.61-1.22s.92-.76,1.28-1.24c.49.43,1.43.38,1.3,1.48C189,198,188.82,198.36,188.14,198.27Z"/><path class="cls-3" d="M189.69,106.37a1.54,1.54,0,0,1-1.14-1.62c0-.8.32-1,1.06-1s1.46.26,1.44,1S190.16,105.91,189.69,106.37Z"/><path class="cls-3" d="M186.12,97.64c-.76.08-1.49-.16-1.55-.92a1.58,1.58,0,0,1,1.4-1.54c.76-.1,1.05.62,1.07,1.38S187,97.76,186.12,97.64Z"/><path class="cls-3" d="M185.89,94.07c-.55-.49-1.45-.82-1.32-1.69s.85-.87,1.59-.88c.92,0,.88.54.88,1.16A1.29,1.29,0,0,1,185.89,94.07Z"/><path class="cls-3" d="M186.09,79.77c.78-.11,1,.3,1,1s-.27,1.48-1,1.42a1.57,1.57,0,0,1-1.44-1.5C184.57,80,185.31,79.72,186.09,79.77Z"/><path class="cls-3" d="M187,85c.11.78-.3,1-1,1s-1.49-.27-1.43-1a1.57,1.57,0,0,1,1.5-1.44C186.84,83.43,187.08,84.17,187,85Z"/><path class="cls-3" d="M187,88.78a1.26,1.26,0,0,1-1.3,1.2c-1,.06-.7-1-1.17-1.32.51-.32.26-1.4,1.28-1.23A1.28,1.28,0,0,1,187,88.78Z"/><path class="cls-3" d="M185.81,99.18a1.19,1.19,0,0,1,1.21,1.28,1.21,1.21,0,0,1-1.23,1.27c-1,.11-.72-1-1.24-1.28C185.08,100.14,184.79,99,185.81,99.18Z"/><path class="cls-3" d="M173.31,204.91c.64-.1.93.17,1,.94.08,1.16-.62,1.14-1.41,1.1-.54,0-1.24.15-1.16-.79S172.37,204.89,173.31,204.91Z"/><path class="cls-3" d="M161.36,204.91c.61,0,1.17,0,1.17.83s-.08,1.36-1,1.2c-.55-.1-1.46.44-1.51-.68C159.94,205.36,160.49,204.93,161.36,204.91Z"/><path class="cls-3" d="M187,77a1.26,1.26,0,0,1-1.29,1.21c-1,.07-.7-1-1.18-1.3.51-.33.26-1.41,1.27-1.25A1.27,1.27,0,0,1,187,77Z"/><path class="cls-3" d="M79.34,206.89c-1.19.14-1.64,0-1.63-1s.51-1,1.25-1a1.23,1.23,0,0,1,1.31,1.19C80.37,207.23,79.5,206.86,79.34,206.89Z"/><path class="cls-3" d="M150.76,205.87c.06,1.46-.92,1-1.56,1.07s-1.13-.2-1-1,.86-1.08,1.69-1.08S150.82,205.41,150.76,205.87Z"/><path class="cls-3" d="M223.32,156.51c-.59.63-.91,1.36-1.8,1.4s-.77-.68-.76-1.2c0-.9.5-1.34,1.42-1.35S222.57,156.44,223.32,156.51Z"/><path class="cls-3" d="M123.18,205.87c.07.66-.06,1.11-.89,1.09s-1.61-.19-1.57-1.11c0-.72.72-.95,1.47-1S123.28,205.12,123.18,205.87Z"/><path class="cls-3" d="M94.69,207c-.64,0-1.15,0-1.14-.87s.09-1.26,1.06-1.2c.74.05,1.4.27,1.43,1S95.39,206.92,94.69,207Z"/><path class="cls-3" d="M99.68,206c.11.79-.33.94-1,.93s-1.43-.27-1.43-1c0-.91.8-1.05,1.61-1.07S99.73,205.39,99.68,206Z"/><path class="cls-3" d="M105.32,205.86c-.1-.76.27-1,1-1s1.44.25,1.46,1c0,.92-.77,1.07-1.58,1.09S105.26,206.52,105.32,205.86Z"/><path class="cls-3" d="M111.42,205.94c.12.91-.35,1-1,1s-1.43-.27-1.42-1c0-.91.82-1,1.62-1S111.51,205.39,111.42,205.94Z"/><path class="cls-3" d="M118.19,207c-.64,0-1.15,0-1.14-.87s.09-1.26,1-1.2c.74.05,1.4.27,1.44,1S118.88,206.92,118.19,207Z"/><path class="cls-3" d="M129.68,204.9c1,0,1.64.3,1.6,1.07s-.7.95-1.44,1c-1,.07-1-.46-1-1.21S129.27,204.83,129.68,204.9Z"/><path class="cls-3" d="M134,204.92c.79-.12.95.29,1,1,.05,1-.42,1.1-1.2,1s-1.38-.37-1.29-1.12S133.22,204.82,134,204.92Z"/><path class="cls-3" d="M87.92,205.87c.11.84-.21,1.11-1,1.1s-1.45-.24-1.48-1c0-.92.74-1.1,1.55-1.11S88.06,205.25,87.92,205.87Z"/><path class="cls-3" d="M141.43,204.9c1,0,1.64.3,1.6,1.07s-.71.95-1.44,1c-1,.07-1-.46-1.05-1.21S141,204.83,141.43,204.9Z"/><path class="cls-3" d="M154.89,205.84a1.54,1.54,0,0,1-1.57,1.13c-1,.06-1-.51-1-1.23,0-.89.56-.81,1.15-.84C154.25,204.86,154.57,205.37,154.89,205.84Z"/><path class="cls-3" d="M165.16,206.94c-.62,0-1.13,0-1.12-.85s.09-1.26,1.05-1.2c.74.05,1.41.27,1.44,1S165.91,207,165.16,206.94Z"/><path class="cls-3" d="M222.23,151.79c.76-.08,1.43.21,1.5.93s-.57,1.06-1.31,1.12-1.22-.15-1.18-1.07C221.27,152.05,221.48,151.68,222.23,151.79Z"/><path class="cls-3" d="M194.69,106.18a1.25,1.25,0,0,1-1.1,1.16c-1.12.21-1.2-.87-1.35-1.38-.26-.86.86-.95,1.31-1.07C194.42,104.66,194.14,105.87,194.69,106.18Z"/><path class="cls-3" d="M176.78,206.94c-.74.12-1-.22-1-1,0-.91.36-1.14,1.17-1.08s1.39.34,1.32,1.1S177.55,207,176.78,206.94Z"/><path class="cls-3" d="M186,206c.1.81-.36.93-1,.92s-1.43-.27-1.42-1c0-.91.82-1,1.63-1.06S186,205.42,186,206Z"/><path class="cls-3" d="M221.48,164.69c-.75.34-1.45.93-1.85.77a2.06,2.06,0,0,1-.81-1.61c0-.25,1.05-.85,1.39-.72S221,164.05,221.48,164.69Z"/><path class="cls-3" d="M221.84,140c.83,0,1.49.36,1.38,1.17a1.1,1.1,0,0,1-1.35.87,1.22,1.22,0,0,1-1.11-1.43C220.82,139.83,221.47,140.13,221.84,140Z"/><path class="cls-3" d="M217.69,126.26c0,.91-.38,1.47-1,1.45-.8,0-1.06-.7-1-1.46,0-.52,0-1,.74-1A1.33,1.33,0,0,1,217.69,126.26Z"/><path class="cls-3" d="M221.1,133.26c-.5.62-.37,1.64-1.31,1.41-.58-.14-1.24-.37-1.12-1.33.09-.75.3-1.14,1-.93A2,2,0,0,1,221.1,133.26Z"/><path class="cls-3" d="M145.79,207c-.71,0-1.51,0-1.42-.89.06-.52.31-1.28,1.29-1.19.74.08,1.06.25,1,1S146.59,207.07,145.79,207Z"/><path class="cls-3" d="M84.25,206.13c-.28.74-.88.82-1.59.83-.92,0-.81-.58-.85-1.17-.06-.9.51-.82,1.13-.9C84,204.76,83.8,205.74,84.25,206.13Z"/><path class="cls-3" d="M218.49,166.57c1.14.22.7,1.16,1,1.69s-.48.88-1.09.88c-.93,0-1-.94-1.1-1.42C217.05,166.75,218.44,167.34,218.49,166.57Z"/><path class="cls-3" d="M216.72,172.69c-.79.1-1.08-.12-1.1-.81s.15-1.45.88-1.63,1.08.38,1.16,1A1.18,1.18,0,0,1,216.72,172.69Z"/><path class="cls-3" d="M181.91,206c.1.9-.4,1-1.06,1s-.95-.31-1-1c0-1,.47-1,1.22-1S182,205.43,181.91,206Z"/><path class="cls-3" d="M170.16,206c.11.9-.4,1-1,1s-1-.31-1-1c0-1,.47-1,1.22-1S170.22,205.43,170.16,206Z"/><path class="cls-3" d="M158.42,205.94c.1.72-.21,1-1,1-.91,0-1.09-.37-1.09-1.18s.47-.88,1.11-.89S158.51,205.23,158.42,205.94Z"/><path class="cls-3" d="M198.38,189.26c-.5.8-.34,2-1.68,1.81-.57-.1-1.21-.57-.87-1.24C196.36,188.78,197.32,189,198.38,189.26Z"/><path class="cls-3" d="M201.32,187.92c.09.78-.11,1.19-.91,1.16-.61,0-1.13,0-1.13-.87s.12-1.25,1.06-1.2C201,187.06,201.48,187.21,201.32,187.92Z"/><path class="cls-3" d="M210.51,180.77c.1.78-.1,1.19-.9,1.16-.62,0-1.13,0-1.13-.87s.12-1.25,1.06-1.2C210.24,179.91,210.67,180.05,210.51,180.77Z"/><path class="cls-3" d="M215.62,174.74c.11.89-.32,1-1,1.07-1,0-1-.5-1-1.23,0-.9.58-.81,1.16-.83C215.56,173.71,215.76,174.14,215.62,174.74Z"/><path class="cls-3" d="M218.1,128.81c.89,0,1.52.25,1.39.88s-.29,1.36-1.28,1.17c-.47-.1-1,.06-1-.71A1.37,1.37,0,0,1,218.1,128.81Z"/><path class="cls-3" d="M214.48,124.2c-.81.09-.88-.41-.89-1.07s.31-1,1-1c1,0,1,.47,1,1.22S215.1,124.22,214.48,124.2Z"/><path class="cls-3" d="M209.71,118.06c-.74.06-1.28,0-1.22-.86,0-.57-.09-1.18.81-1.18.72,0,1.31,0,1.24,1C210.5,117.68,210.46,118.21,209.71,118.06Z"/><path class="cls-3" d="M201.34,109.46c0,.75-.28,1.41-1.08,1.39-.61,0-1-.57-1-1.25,0-.95.92-1,1.4-1.14C201.45,108.19,201.28,109,201.34,109.46Z"/><path class="cls-3" d="M195.61,107.1c1.14-.43,2.11-.47,2.58.54.28.61-.33,1.12-.95,1.21C195.82,109.05,196.19,107.73,195.61,107.1Z"/><path class="cls-3" d="M213.08,177.94c.09.8-.38.9-1.05.93-1,0-1-.55-1-1.26,0-.9.61-.76,1.18-.8C213.09,176.76,213.12,177.31,213.08,177.94Z"/><path class="cls-3" d="M193.44,190.61c.64,0,1.14.33,1,1-.11.44-.17,1.23-1.06,1.08-.65-.11-1.19-.42-1.14-1.07A1.09,1.09,0,0,1,193.44,190.61Z"/><path class="cls-3" d="M205,185.27c-.55.67-.24,2.11-1.81,1.67-.34-.1-.76-.34-.6-.85C203,184.86,203.78,184.71,205,185.27Z"/><path class="cls-3" d="M212.06,119.1c.61-.07,1.09.06,1,.89,0,.57.1,1.23-.82,1.14a1.23,1.23,0,0,1-1.22-1.28C211,119.1,211.49,119.1,212.06,119.1Z"/><path class="cls-3" d="M95.08,159.45c2.89,0,5.78.11,8.66,0,1.86-.1,2.6.61,2.6,2.39,0,5.95,0,11.89,0,17.83,0,1.33-.56,1.8-1.84,1.79q-9.44,0-18.86,0c-1.31,0-1.81-.52-1.8-1.82,0-6.11,0-12.23,0-18.34,0-1.53.74-1.85,2.07-1.83C89,159.48,92,159.45,95.08,159.45Zm.12,19.92c2.3,0,4.6-.08,6.89,0,1.36.06,1.74-.4,1.72-1.73-.08-4.68-.09-9.36,0-14,0-1.44-.55-1.67-1.79-1.65-4.6.06-9.2.08-13.79,0-1.46,0-1.88.41-1.85,1.86.09,4.42.16,8.86,0,13.27-.09,2.05.66,2.43,2.46,2.3C90.94,179.26,93.07,179.37,95.2,179.37Z"/><path class="cls-3" d="M95.1,112c3.07,0,6.13,0,9.19,0,1.58,0,2.08.58,2.07,2.11-.06,5.78,0,11.57,0,17.36,0,1.64-.44,2.6-2.44,2.56-5.87-.12-11.75-.1-17.62,0-1.77,0-2.42-.71-2.42-2.32,0-6,0-11.91,0-17.87,0-1.53.75-1.85,2.07-1.83C89,112,92,112,95.1,112Zm8.68,11.39c0-2.89-.07-5.27,0-7.65,0-1.34-.37-1.75-1.72-1.73-4.68.08-9.36.06-14,0-1.13,0-1.68.2-1.66,1.52.07,4.76.06,9.53,0,14.29,0,1.22.35,1.64,1.59,1.6,2.46-.08,4.93,0,7.4,0,2.7,0,6.36.92,7.87-.45C105,129.32,103.55,125.61,103.78,123.34Z"/><path class="cls-3" d="M95.13,109.39c-3.06,0-6.12,0-9.17,0-1.5,0-2.14-.44-2.13-2,.07-5.78,0-11.55,0-17.32,0-1.78.47-2.73,2.58-2.68,5.69.14,11.38.09,17.06,0,2.05,0,2.89.79,2.87,2.85-.07,5.6-.08,11.2,0,16.8,0,1.77-.52,2.44-2.33,2.36C101.07,109.31,98.1,109.39,95.13,109.39Zm8.65-10.58c0-2.38-.08-4.77,0-7.15.06-1.37-.42-1.73-1.74-1.71q-6.88.12-13.78,0c-1.38,0-1.94.29-1.91,1.8q.14,6.9,0,13.79c0,1.47.44,1.87,1.87,1.84,4.51-.09,9-.13,13.53,0,1.81.06,2.11-.65,2-2.2C103.7,103.07,103.78,100.94,103.78,98.81Z"/><path class="cls-3" d="M95.13,136c3,0,6,.06,8.92,0,1.56,0,2.34.33,2.31,2.11-.08,5.77,0,11.55,0,17.32,0,1.84-.84,2.58-2.63,2.57q-8.66-.06-17.32,0c-1.84,0-2.56-.86-2.55-2.64,0-5.77.05-11.55,0-17.32,0-1.6.63-2.08,2.13-2C89,136,92.07,136,95.13,136Zm8.65,10.79c0-2.39,0-4.77,0-7.15,0-1.19-.31-1.64-1.56-1.62-4.77.06-9.53.07-14.3,0-1.27,0-1.56.46-1.55,1.63.06,4.68.07,9.36,0,14,0,1.31.31,1.78,1.69,1.75q7-.12,14,0c1.4,0,1.73-.47,1.68-1.76C103.72,151.33,103.78,149,103.78,146.74Z"/><path class="cls-3" d="M138.49,194.18q-15.83,0-31.64,0c-.93,0-2.41.41-2.42-1,0-1.17,1.2-1.57,2.46-1.56q31.38,0,62.75,0a3.7,3.7,0,0,1,1.71.31,1.33,1.33,0,0,1,.87,1.55c-.08,1-.83.67-1.34.68-4.93,0-9.86,0-14.79,0Z"/><path class="cls-3" d="M136.09,95.09c8.33,0,16.66,0,25,0,.74,0,2-.62,1.95,1.09-.06,1.29-.87,1.45-1.91,1.45H110.88c-1.1,0-2.43,0-2.42-1.42s1.41-1.12,2.37-1.12Q123.46,95.07,136.09,95.09Z"/><path class="cls-3" d="M122,168.64c-4.51,0-9,0-13.52,0-.62,0-1.63.49-1.68-.85,0-1.18.49-1.69,1.67-1.69h27.3c1,0,1.74.29,1.65,1.41s-1,1.16-1.89,1.16C131.06,168.63,126.55,168.64,122,168.64Z"/><path class="cls-3" d="M122.68,103.77c-3.91,0-7.81,0-11.71,0-1.08,0-2.48,0-2.51-1.32,0-1.66,1.51-1.21,2.52-1.22,8,0,16,0,23.92,0,.73,0,2-.71,2.07.94,0,1.4-1.1,1.55-2.08,1.56C130.82,103.8,126.75,103.77,122.68,103.77Z"/><path class="cls-3" d="M91.81,194.18c-2,0-4.07,0-6.1,0-.8,0-1.69,0-1.75-1a1.53,1.53,0,0,1,1.41-1.52c4.32-.07,8.63-.06,12.95.06.51,0,1.6.29,1.34,1.39a1.32,1.32,0,0,1-1.5,1C96,194.17,93.92,194.18,91.81,194.18Z"/><path class="cls-1" d="M129.88,74.66c-5.61,0-11.23,0-16.84,0-1.56,0-2.21-.25-2.16-2,.14-4.67.1-9.35,0-14,0-1.38.26-1.89,1.78-1.88q17.35.09,34.7,0c1.37,0,1.93.24,1.9,1.77-.11,4.76-.13,9.53,0,14.29.05,1.72-.62,1.9-2.06,1.88C141.45,74.62,135.67,74.66,129.88,74.66Z"/><path class="cls-1" d="M129.82,52.19c7.15,0,14.29.05,21.44,0,1.63,0,2.24.36,2.1,2.07-.16,2,0,3.91,0,5.87,0,.71,0,1.31-1,1.31s-1.06-.56-1-1.29a4.34,4.34,0,0,0,0-.51c-.14-5.37-.14-5.37-5.62-5.37-11.57,0-23.13,0-34.7,0-2,0-2.84.54-2.61,2.59.14,1.18,0,2.38,0,3.57,0,.75-.24,1-1,1s-1-.31-1-1q0-3.57,0-7.14c0-1.49,1.09-1,1.81-1C115.37,52.17,122.6,52.19,129.82,52.19Z"/><path class="cls-1" d="M130,40.44a10.89,10.89,0,0,1,9.91,7.92c.16.58.31,1.38-.62,1.21s-1.81.81-2.42-.87c-1.42-3.83-3.83-5.3-7.48-5.2-2.7.08-5.77,2.27-6.15,4.92-.29,2-1.62,1.19-2.4,1.13-1.33-.11-.78-1.21-.52-1.92A10.3,10.3,0,0,1,130,40.44Z"/><path class="cls-1" d="M125.65,49.56a4.45,4.45,0,0,1,4.55-3.45c2.11,0,3.33,1.45,4.1,3.45Z"/><path class="cls-4" d="M176.44,184.48a35.48,35.48,0,0,1-35.72-35.62c0-19.49,15.63-36.72,37.81-35.89,17.27.64,34.68,15.7,34.05,37.42C212.08,167.61,196.29,185.41,176.44,184.48Zm21.67-59.26c-.34.3-.59.51-.82.74q-12.82,12.81-25.61,25.66c-1.15,1.16-1.79,1.27-3,0-3.58-3.76-7.34-7.35-11-11.06-.93-1-1.52-1.27-2.6-.12-2.62,2.79-5.36,5.47-8.11,8.13-.86.82-1,1.34-.06,2.24q10.35,10.23,20.58,20.57c1,1,1.74,1,2.74,0q17.84-17.9,35.74-35.73c.94-.94,1-1.48,0-2.42C203.36,130.62,200.77,127.91,198.11,125.22Z"/><path class="cls-1" d="M180.59,241.68c-4,.38-1.77-2.68-2.17-4.17-.31-1.18-.54-2.71,1.8-2.52,3,.24,4.83,1.37,4.77,3.48S183.59,241.69,180.59,241.68Z"/><path class="cls-1" d="M194.7,242.49a40.93,40.93,0,0,1,.05-4.83c.11-.91-1.06-2.51,1.16-2.64,2.58-.15,4.82.76,4.87,2.41a82.72,82.72,0,0,1,0,10.68c-.26,2.83-2.81,2.18-4.73,2.26-2.25.08-1.19-1.62-1.27-2.54C194.59,246.06,194.7,244.27,194.7,242.49Z"/><path class="cls-1" d="M145.66,242.45c0-1.87.14-3.75,0-5.6s.69-1.95,2.07-1.82c3.44.35,4.1,1.05,4.1,4.55,0,2.64-.07,5.27,0,7.9a2.67,2.67,0,0,1-1.87,2.71,9.62,9.62,0,0,1-4,0c-.47-.06-.28-.89-.28-1.38C145.65,246.7,145.66,244.57,145.66,242.45Z"/><path class="cls-1" d="M167.46,245.74h-4.75c.72-2.59,1.42-5.11,2.34-8.4C166,240.6,166.71,243.12,167.46,245.74Z"/><path class="cls-1" d="M112.58,245.77l2.18-7.83c1.36,2.26,1.52,4.58,2.27,6.69.29.81-.21,1.2-1.09,1.15C114.85,245.72,113.76,245.77,112.58,245.77Z"/><path class="cls-4" d="M95.2,179.37c-2.13,0-4.26-.11-6.38,0-1.8.13-2.55-.25-2.46-2.3.18-4.41.11-8.85,0-13.27,0-1.45.39-1.89,1.85-1.86,4.59.09,9.19.07,13.79,0,1.24,0,1.82.21,1.79,1.65-.09,4.68-.08,9.36,0,14,0,1.33-.36,1.79-1.72,1.73C99.8,179.29,97.5,179.37,95.2,179.37Z"/><path class="cls-4" d="M103.78,123.34c-.23,2.27,1.2,6-.53,7.56-1.51,1.37-5.17.41-7.87.45-2.47,0-4.94,0-7.4,0-1.24,0-1.6-.38-1.59-1.6.06-4.76.07-9.53,0-14.29,0-1.32.53-1.53,1.66-1.52,4.68,0,9.36.07,14,0,1.35,0,1.77.39,1.72,1.73C103.71,118.07,103.78,120.45,103.78,123.34Z"/><path class="cls-5" d="M103.78,98.81c0,2.13-.08,4.26,0,6.38.08,1.55-.22,2.26-2,2.2-4.51-.14-9-.1-13.53,0-1.43,0-1.9-.37-1.87-1.84q.14-6.89,0-13.79c0-1.51.53-1.82,1.91-1.8q6.88.12,13.78,0c1.32,0,1.8.34,1.74,1.71C103.7,94,103.78,96.43,103.78,98.81Z"/><path class="cls-4" d="M103.78,146.74c0,2.29-.06,4.59,0,6.89,0,1.29-.28,1.79-1.68,1.76q-7-.12-14,0c-1.38,0-1.71-.44-1.69-1.75.07-4.68.06-9.36,0-14,0-1.17.28-1.65,1.55-1.63,4.77.07,9.53.06,14.3,0,1.25,0,1.6.43,1.56,1.62C103.73,142,103.78,144.35,103.78,146.74Z"/><path class="cls-3" d="M198.11,125.22c2.66,2.69,5.25,5.4,7.94,8,1,.94.92,1.48,0,2.42q-17.91,17.82-35.74,35.73c-1,1-1.71,1.07-2.74,0Q157.31,161.08,147,150.84c-.9-.9-.8-1.42.06-2.24,2.75-2.66,5.49-5.34,8.11-8.13,1.08-1.15,1.67-.84,2.6.12,3.62,3.71,7.38,7.3,11,11.06,1.19,1.24,1.83,1.13,3,0q12.75-12.88,25.61-25.66C197.52,125.73,197.77,125.52,198.11,125.22Zm0,3.57c-.47.45-.84.79-1.2,1.15-8.36,8.36-16.76,16.68-25,25.11-1.37,1.4-2.09,1.36-3.35,0-2.16-2.39-4.52-4.61-6.83-6.88-1.67-1.65-3.45-4.59-5.07-4.52-1.77.08-3.35,3-5.13,4.63-1.22,1.08-1.29,1.76-.05,3q8.15,7.92,16.05,16.06c1.3,1.33,2,1.45,3.36,0,9.12-9.28,18.37-18.42,27.54-27.66,1.71-1.72,4.92-3.34,4.65-5.3S199.84,130.64,198.08,128.79Z"/><path class="cls-5" d="M198.08,128.79c1.76,1.85,4.65,3.53,4.93,5.57s-2.94,3.58-4.65,5.3c-9.17,9.24-18.42,18.38-27.54,27.66-1.39,1.4-2.06,1.28-3.36,0q-7.91-8.15-16.05-16.06c-1.24-1.21-1.17-1.89.05-3,1.78-1.58,3.36-4.55,5.13-4.63,1.62-.07,3.4,2.87,5.07,4.52,2.31,2.27,4.67,4.49,6.83,6.88,1.26,1.4,2,1.44,3.35,0,8.28-8.43,16.68-16.75,25-25.11C197.24,129.58,197.61,129.24,198.08,128.79Z"/></svg>